STARTFONT 2.1
COMMENT
COMMENT Converted from OpenType font "Patriot-Regular.otf" by "otf2bdf 3.0".
COMMENT
FONT -FreeType-Patriot-Medium-R-Normal--89-640-100-100-P-419-ISO10646-1
SIZE 64 100 100
FONTBOUNDINGBOX 141 117 -32 -24
STARTPROPERTIES 19
FOUNDRY "FreeType"
FAMILY_NAME "Patriot"
WEIGHT_NAME "Medium"
SLANT "R"
SETWIDTH_NAME "Normal"
ADD_STYLE_NAME ""
PIXEL_SIZE 89
POINT_SIZE 640
RESOLUTION_X 100
RESOLUTION_Y 100
SPACING "P"
AVERAGE_WIDTH 419
CHARSET_REGISTRY "ISO10646"
CHARSET_ENCODING "1"
FONT_ASCENT 89
FONT_DESCENT 17
COPYRIGHT "Copyright © 2020 by Behalf Studio. All rights reserved."
_OTF_FONTFILE "Patriot-Regular.otf"
_OTF_PSNAME "Patriot-Regular"
ENDPROPERTIES
CHARS 426
STARTCHAR 0020
ENCODING 32
SWIDTH 360 0
DWIDTH 32 0
BBX 0 0 0 0
BITMAP
ENDCHAR
STARTCHAR 0021
ENCODING 33
SWIDTH 247 0
DWIDTH 22 0
BBX 13 63 5 -1
BITMAP
3FC0
3FC0
3FC0
3FC0
3FC0
3FC0
3FC0
3FC0
3FC0
3FC0
3FC0
3FC0
3FC0
3FC0
3FC0
3FC0
3FC0
3FC0
3FC0
3FC0
3FC0
3FC0
3FC0
3FC0
3FC0
3FC0
3FC0
3FC0
3FC0
3FC0
3FC0
3FC0
3FC0
3FC0
3FC0
3FC0
3FC0
3FC0
3FC0
3FC0
0000
0000
0000
0000
0000
0000
0000
0000
0000
0000
0700
3FC0
7FE0
FFF0
FFF0
FFF8
FFF8
FFF8
FFF8
FFF0
7FF0
3FE0
1F80
ENDCHAR
STARTCHAR 0022
ENCODING 34
SWIDTH 303 0
DWIDTH 27 0
BBX 18 19 5 43
BITMAP
FC0FC0
FC0FC0
FC0FC0
FC0FC0
FC0FC0
FC0FC0
FC0FC0
FC0FC0
FC0FC0
FC0FC0
FC0FC0
FC0FC0
FC0FC0
FC0FC0
FC0FC0
FC0FC0
FC0FC0
FC0FC0
FC0FC0
ENDCHAR
STARTCHAR 0023
ENCODING 35
SWIDTH 630 0
DWIDTH 56 0
BBX 47 62 5 0
BITMAP
0003F8003F80
0003F8003F80
0003F8003F80
0003F8003F80
0003F0003F80
0007F0003F80
0007F0007F00
0007F0007F00
0007F0007F00
0007F0007F00
0007F0007F00
0007E0007F00
000FE0007F00
000FE000FE00
000FE000FE00
000FE000FE00
000FE000FE00
000FE000FE00
000FE000FE00
3FFFFFFFFFFE
3FFFFFFFFFFE
3FFFFFFFFFFE
3FFFFFFFFFFE
3FFFFFFFFFFE
3FFFFFFFFFFE
001F8001FC00
003F8001FC00
003F8003F800
003F8003F800
003F8003F800
003F8003F800
003F8003F800
003F8003F800
007F0003F800
007F0007F000
007F0007F000
007F0007F000
007F0007F000
FFFFFFFFFFF0
FFFFFFFFFFF0
FFFFFFFFFFF0
FFFFFFFFFFF0
FFFFFFFFFFF0
FFFFFFFFFFF0
00FE000FE000
00FE000FE000
00FE000FE000
01FC000FE000
01FC001FC000
01FC001FC000
01FC001FC000
01FC001FC000
01FC001FC000
01FC001FC000
03F8001FC000
03F8003F8000
03F8003F8000
03F8003F8000
03F8003F8000
03F8003F8000
03F8003F8000
07F0003F8000
ENDCHAR
STARTCHAR 0024
ENCODING 36
SWIDTH 540 0
DWIDTH 48 0
BBX 39 78 5 -8
BITMAP
00007E0000
00007E0000
00007E0000
00007E0000
00007E0000
00007E0000
0000FE0000
000FFFC000
003FFFF000
00FFFFFC00
01FFFFFE00
03FFFFFF00
07FFFFFF80
07FFFFFFC0
0FFFFFFFE0
0FFE7EFFE0
1FF87E3FF0
1FF07E1FF0
1FF07E1FF0
1FE07E0FF8
1FE07E0FF8
1FE07E07F8
1FE07E07E0
1FE07E0700
1FE07E0000
1FF07E0000
1FF87E0000
0FF87E0000
0FFC7E0000
07FF7E0000
07FFFE0000
03FFFE0000
01FFFE0000
00FFFE0000
007FFF0000
003FFF8000
000FFFE000
0007FFF000
0001FFFC00
0000FFFE00
00007FFF00
00007FFF80
00007FFFC0
00007FFFE0
00007EFFF0
00007E7FF0
00007E1FF8
00007E0FF8
00007E0FFC
00007E07FC
00007E07FC
00007E03FC
01007E03FE
1F007E03FE
FF007E03FE
FF807E03FC
FF807E03FC
FFC07E07FC
7FC07E07FC
7FE07E0FFC
3FF07E1FF8
3FF87E3FF8
1FFE7EFFF0
1FFFFFFFF0
0FFFFFFFE0
07FFFFFFC0
03FFFFFF80
01FFFFFF00
007FFFFE00
001FFFF800
0003FFC000
00007E0000
00007E0000
00007E0000
00007E0000
00007E0000
00007E0000
00007E0000
ENDCHAR
STARTCHAR 0025
ENCODING 37
SWIDTH 866 0
DWIDTH 77 0
BBX 68 65 5 -1
BITMAP
000FC0000000000000
007FF8000000000000
01FFFE0000000FE000
07FFFF8000001FC000
0FFFFFC000003F8000
1FFFFFE000003F8000
1FFFFFF000007F0000
3FE01FF00000FE0000
7FC00FF80001FE0000
7F8007F80001FC0000
FF0003FC0003F80000
FF0001FC0007F00000
FE0001FC0007F00000
FE0001FC000FE00000
FE0001FE001FC00000
FE0000FE001FC00000
FE0001FE003F800000
FE0001FC007F000000
FE0001FC00FF000000
FF0003FC00FE000000
7F0003FC01FC000000
7F8007F803F8000000
7FC00FF803F8000000
3FF03FF007F0000000
1FFFFFE00FE0000000
0FFFFFE00FE0000000
07FFFFC01FC0000000
03FFFF003F80000000
00FFFE007F80000000
003FF0007F00000000
00000000FE00000000
00000001FC00000000
00000001FC00000000
00000003F800000000
00000007F000000000
00000007F0003F0000
0000000FE003FFE000
0000001FC00FFFF800
0000003FC01FFFFC00
0000003F803FFFFF00
0000007F007FFFFF80
000000FE00FFFFFF80
000000FE01FF80FFC0
000001FC01FE003FC0
000003F803FE001FE0
000003F803FC000FE0
000007F003F8000FF0
00000FE003F80007F0
00001FE007F80007F0
00001FC007F00007F0
00003F8007F00007F0
00007F0007F00007F0
00007F0007F80007F0
0000FE0003F80007F0
0001FC0003F8000FF0
0001FC0003FC001FE0
0003F80001FE001FE0
0007F00001FF007FC0
000FF00000FFC0FFC0
000FE00000FFFFFF80
001FC000007FFFFF00
003F8000003FFFFE00
003F8000000FFFFC00
007F00000007FFF000
000000000000FFC000
ENDCHAR
STARTCHAR 0026
ENCODING 38
SWIDTH 652 0
DWIDTH 58 0
BBX 49 64 5 -1
BITMAP
0001FFC0000000
000FFFF0000000
003FFFFC000000
007FFFFF000000
01FFFFFF800000
03FFFFFFC00000
07FFFFFFE00000
07FFE7FFF00000
0FFF007FF80000
0FFC001FF80000
1FF8000FFC0000
1FF00007F80000
1FE00003F00000
3FE00003E00000
3FE00001800000
3FC00000000000
3FC00000000000
3FC00000000000
3FC00000000000
3FE00000000000
3FE00000000000
1FE00000000000
1FF00000000000
1FF80000000000
0FFC0000000000
07FF0000000000
07FFFFFFFFFF80
03FFFFFFFFFF80
01FFFFFFFFFF80
00FFFFFFFFFF80
01FFFFFFFFFF80
03FFFFFFFFFF80
07FFFFFFFFFF80
0FFFFFFFFFFF80
1FFF80001FF000
3FFC00001FF000
3FF000001FF000
7FE000001FF000
7FC000001FF000
7FC000001FF000
FF8000001FF000
FF8000001FE000
FF8000001FE000
FF0000003FE000
FF0000003FE000
FF0000003FE000
FF8000007FC000
FF8000007FC000
FF8000007FC000
FF800000FF8000
FFC00001FF8000
7FE00001FF8000
7FF00003FF0000
3FF80007FE0000
3FFC001FFE0000
1FFF807FFC0000
0FFFFFFFF80000
0FFFFFFFF80000
07FFFFFFF00000
01FFFFFFC00000
00FFFFFF800000
003FFFFE000000
000FFFF8000000
0000FFC0000000
ENDCHAR
STARTCHAR 0027
ENCODING 39
SWIDTH 168 0
DWIDTH 15 0
BBX 6 19 5 43
BITMAP
FC
FC
FC
FC
FC
FC
FC
FC
FC
FC
FC
FC
FC
FC
FC
FC
FC
FC
FC
ENDCHAR
STARTCHAR 0028
ENCODING 40
SWIDTH 326 0
DWIDTH 29 0
BBX 19 83 5 -12
BITMAP
000200
000700
000FC0
000FE0
001FE0
001FC0
003FC0
007F80
007F00
00FF00
00FE00
01FC00
01FC00
03F800
03F800
07F000
07F000
0FE000
0FE000
0FE000
1FC000
1FC000
1F8000
3F8000
3F8000
3F0000
7F0000
7F0000
7F0000
7E0000
7E0000
FE0000
FE0000
FE0000
FE0000
FE0000
FC0000
FC0000
FC0000
FC0000
FC0000
FC0000
FC0000
FC0000
FC0000
FC0000
FC0000
FC0000
FE0000
FE0000
FE0000
FE0000
7E0000
7E0000
7F0000
7F0000
7F0000
3F0000
3F8000
3F8000
1F8000
1FC000
1FC000
0FC000
0FE000
0FE000
07F000
07F000
03F800
03F800
03FC00
01FC00
01FE00
00FE00
007F00
007F80
003F80
003FC0
001FE0
000FE0
000FC0
000780
000200
ENDCHAR
STARTCHAR 0029
ENCODING 41
SWIDTH 326 0
DWIDTH 29 0
BBX 19 83 5 -12
BITMAP
080000
1C0000
7E0000
FE0000
FF0000
7F8000
3F8000
3FC000
1FC000
1FE000
0FE000
07F000
07F000
03F800
03F800
01FC00
01FC00
00FE00
00FE00
007F00
007F00
007F00
003F00
003F80
003F80
001F80
001FC0
001FC0
000FC0
000FC0
000FC0
000FE0
000FE0
000FE0
0007E0
0007E0
0007E0
0007E0
0007E0
0007E0
0007E0
0007E0
0007E0
0007E0
0007E0
0007E0
0007E0
0007E0
0007E0
0007E0
000FE0
000FE0
000FC0
000FC0
000FC0
001FC0
001FC0
001F80
001F80
003F80
003F80
003F00
007F00
007F00
00FE00
00FE00
01FC00
01FC00
03FC00
03F800
07F800
07F000
0FF000
0FE000
1FE000
3FC000
3F8000
7F8000
FF0000
FF0000
7E0000
3C0000
080000
ENDCHAR
STARTCHAR 002A
ENCODING 42
SWIDTH 450 0
DWIDTH 40 0
BBX 31 30 5 33
BITMAP
00030000
0007C000
000FC000
001FE000
001FE000
001FE000
001FE000
001FE000
000FE000
3C0FE0F8
FF8FC3FC
FFC7CFFC
FFE79FFE
FFF7BFFE
FFFFFFFC
7FFFFFF8
1FFFFFF0
010FE300
001FE000
007FF800
00FEFC00
01FCFE00
03FCFF00
07FCFF80
07FC7FC0
0FF87FC0
0FF83FC0
0FF03FC0
07E01FC0
03C00F80
ENDCHAR
STARTCHAR 002B
ENCODING 43
SWIDTH 551 0
DWIDTH 49 0
BBX 40 39 5 10
BITMAP
0000FE0000
0000FE0000
0000FE0000
0000FE0000
0000FE0000
0000FE0000
0000FE0000
0000FE0000
0000FE0000
0000FE0000
0000FE0000
0000FE0000
0000FE0000
0000FE0000
0000FE0000
0000FE0000
FFFFFFFFFF
FFFFFFFFFF
FFFFFFFFFF
FFFFFFFFFF
FFFFFFFFFF
FFFFFFFFFF
FFFFFFFFFF
0000FE0000
0000FE0000
0000FE0000
0000FE0000
0000FE0000
0000FE0000
0000FE0000
0000FE0000
0000FE0000
0000FE0000
0000FE0000
0000FE0000
0000FE0000
0000FE0000
0000FE0000
0000FE0000
ENDCHAR
STARTCHAR 002C
ENCODING 44
SWIDTH 258 0
DWIDTH 23 0
BBX 14 17 5 -10
BITMAP
03FC
07F8
07F8
07F0
0FF0
0FE0
0FE0
1FC0
1FC0
1F80
3F80
3F00
7E00
7E00
7C00
FC00
F800
ENDCHAR
STARTCHAR 002D
ENCODING 45
SWIDTH 438 0
DWIDTH 39 0
BBX 30 7 5 17
BITMAP
FFFFFFFC
FFFFFFFC
FFFFFFFC
FFFFFFFC
FFFFFFFC
FFFFFFFC
FFFFFFFC
ENDCHAR
STARTCHAR 002E
ENCODING 46
SWIDTH 247 0
DWIDTH 22 0
BBX 13 13 5 -1
BITMAP
0700
3FC0
7FE0
FFF0
FFF0
FFF8
FFF8
FFF8
FFF8
FFF0
7FF0
3FE0
1F80
ENDCHAR
STARTCHAR 002F
ENCODING 47
SWIDTH 393 0
DWIDTH 35 0
BBX 25 65 5 -1
BITMAP
00003F80
00003F80
00003F80
00007F00
00007F00
00007F00
00007F00
0000FE00
0000FE00
0000FE00
0001FC00
0001FC00
0001FC00
0001FC00
0003F800
0003F800
0003F800
0007F000
0007F000
0007F000
0007F000
000FE000
000FE000
000FE000
001FC000
001FC000
001FC000
001F8000
003F8000
003F8000
003F8000
007F0000
007F0000
007F0000
007E0000
00FE0000
00FE0000
00FE0000
01FC0000
01FC0000
01FC0000
01F80000
03F80000
03F80000
03F80000
07F00000
07F00000
07F00000
07E00000
0FE00000
0FE00000
0FE00000
1FC00000
1FC00000
1FC00000
1F800000
3F800000
3F800000
3F800000
7F000000
7F000000
7F000000
7E000000
FE000000
FE000000
ENDCHAR
STARTCHAR 0030
ENCODING 48
SWIDTH 708 0
DWIDTH 63 0
BBX 57 65 3 -1
BITMAP
0000000800000000
000007FFF0000000
00003FFFFE000000
0001FFFFFF800000
0003FFFFFFE00000
000FFFFFFFF80000
001FFFFFFFFC0000
003FFFFFFFFE0000
007FFF007FFF0000
00FFF8000FFF8000
01FFE00003FFC000
03FF800000FFE000
07FF0000007FF000
07FE0000003FF000
0FFC0000001FF800
0FF80000000FF800
1FF000000007FC00
1FF000000007FC00
3FE000000003FE00
3FE000000003FE00
3FC000000001FE00
7FC000000001FF00
7F8000000000FF00
7F8000000000FF00
7F8000000000FF00
FF8000000000FF80
FF00000000007F80
FF00000000007F80
FF00000000007F80
FF00000000007F80
FF00000000007F80
FF00000000007F80
FF00000000007F80
FF00000000007F80
FF00000000007F80
FF00000000007F80
FF00000000007F80
FF00000000007F80
FF00000000007F80
FF00000000007F80
7F8000000000FF80
7F8000000000FF00
7F8000000000FF00
7FC000000000FF00
7FC000000001FF00
3FC000000001FE00
3FE000000003FE00
3FE000000003FE00
1FF000000007FC00
1FF80000000FFC00
0FF80000000FF800
0FFC0000001FF800
07FE0000003FF000
03FF0000007FE000
03FFC00001FFE000
01FFF00007FFC000
00FFFC001FFF8000
007FFFC1FFFF0000
003FFFFFFFFE0000
001FFFFFFFFC0000
0007FFFFFFF00000
0003FFFFFFE00000
0000FFFFFF800000
00001FFFFE000000
000003FFE0000000
ENDCHAR
STARTCHAR 0031
ENCODING 49
SWIDTH 292 0
DWIDTH 26 0
BBX 18 62 4 0
BITMAP
003FC0
003FC0
003FC0
003FC0
003FC0
FFFFC0
FFFFC0
FFFFC0
FFFFC0
FFFFC0
FFFFC0
FFFFC0
FFFFC0
003FC0
003FC0
003FC0
003FC0
003FC0
003FC0
003FC0
003FC0
003FC0
003FC0
003FC0
003FC0
003FC0
003FC0
003FC0
003FC0
003FC0
003FC0
003FC0
003FC0
003FC0
003FC0
003FC0
003FC0
003FC0
003FC0
003FC0
003FC0
003FC0
003FC0
003FC0
003FC0
003FC0
003FC0
003FC0
003FC0
003FC0
003FC0
003FC0
003FC0
003FC0
003FC0
003FC0
003FC0
003FC0
003FC0
003FC0
003FC0
003FC0
ENDCHAR
STARTCHAR 0032
ENCODING 50
SWIDTH 540 0
DWIDTH 48 0
BBX 42 64 3 0
BITMAP
000004000000
0003FFF00000
000FFFFE0000
003FFFFF8000
00FFFFFFC000
01FFFFFFE000
03FFFFFFF000
07FFFFFFF800
0FFFC07FFC00
0FFE001FFE00
1FFC0007FE00
1FF80003FF00
3FF00001FF00
3FE00001FF00
7FE00000FF00
7FC00000FF80
7FC00000FF80
7F8000007F80
FF8000007F80
FF8000007F80
7F8000007F80
030000007F80
00000000FF80
00000000FF80
00000000FF00
00000000FF00
00000001FF00
00000001FE00
00000003FE00
00000007FC00
00000007FC00
0000000FF800
0000001FF800
0000001FF000
0000003FF000
0000007FE000
000000FFC000
000001FF8000
000003FF0000
000007FF0000
00000FFE0000
00001FFC0000
00003FF80000
00007FF00000
0000FFE00000
0001FFC00000
0003FF800000
0007FF000000
000FFE000000
001FFC000000
003FF8000000
003FF0000000
007FE0000000
00FFC0000000
01FF80000000
03FF00000000
07FE00000000
0FFFFFFFFFC0
1FFFFFFFFFC0
3FFFFFFFFFC0
7FFFFFFFFFC0
FFFFFFFFFFC0
FFFFFFFFFFC0
FFFFFFFFFFC0
ENDCHAR
STARTCHAR 0033
ENCODING 51
SWIDTH 517 0
DWIDTH 46 0
BBX 41 63 3 -1
BITMAP
7FFFFFFFFC00
7FFFFFFFFC00
7FFFFFFFFC00
7FFFFFFFFC00
7FFFFFFFF800
7FFFFFFFF000
7FFFFFFFE000
0000007FC000
000001FF8000
000003FE0000
000007FC0000
00000FF80000
00001FF00000
00003FE00000
00007FC00000
0000FF800000
0001FF000000
0003FE000000
000FFC000000
001FFF000000
003FFFE00000
007FFFF80000
00FFFFFE0000
01FFFFFF8000
03FFFFFFC000
07FFFFFFE000
0FFFFFFFF000
0FFC00FFF800
07F0003FF800
03E0000FFC00
01800007FE00
00000003FE00
00000001FF00
00000001FF00
00000000FF00
00000000FF80
00000000FF80
000000007F80
000000007F80
000000007F80
000000007F80
000000007F80
000000007F80
000000007F80
00000000FF80
00000000FF80
00000000FF00
00000001FF00
00000001FF00
02000003FE00
0F000003FE00
1F800007FC00
7FC0000FFC00
FFE0003FF800
7FF800FFF800
7FFF07FFF000
3FFFFFFFE000
1FFFFFFFC000
07FFFFFF8000
03FFFFFF0000
00FFFFFC0000
003FFFF00000
0007FF800000
ENDCHAR
STARTCHAR 0034
ENCODING 52
SWIDTH 528 0
DWIDTH 47 0
BBX 45 62 1 0
BITMAP
0000001FFC00
000001FFFC00
000007FFFC00
00003FFFFC00
00007FFFFC00
0001FFFFFC00
0003FFFFFC00
000FFFFFFC00
001FFFC3FC00
003FFF03FC00
007FFC03FC00
007FF003FC00
00FFE003FC00
01FFC003FC00
03FF8003FC00
03FF0003FC00
07FE0003FC00
07FC0003FC00
0FF80003FC00
0FF80003FC00
1FF00003FC00
1FF00003FC00
1FE00003FC00
3FE00003FC00
3FC00003FC00
3FC00003FC00
7FC00003FC00
7FC00003FC00
7F800003FC00
7F800003FC00
7F800003FC00
7F800003FC00
FF800003FC00
FF800003FC00
FF800003FC00
FF800003FC00
FFFFFFFFFFF8
FFFFFFFFFFF8
FFFFFFFFFFF8
FFFFFFFFFFF8
FFFFFFFFFFF8
FFFFFFFFFFF8
FFFFFFFFFFF8
00000003FC00
00000003FC00
00000003FC00
00000003FC00
00000003FC00
00000003FC00
00000003FC00
00000003FC00
00000003FC00
00000003FC00
00000003FC00
00000003FC00
00000003FC00
00000003FC00
00000003FC00
00000003FC00
00000003FC00
00000003FC00
00000003FC00
ENDCHAR
STARTCHAR 0035
ENCODING 53
SWIDTH 540 0
DWIDTH 48 0
BBX 41 63 4 -1
BITMAP
1FFFFFFFFC00
1FFFFFFFFC00
1FFFFFFFFC00
1FFFFFFFFC00
1FFFFFFFFC00
1FFFFFFFFC00
1FFFFFFFFC00
3FC000000000
3FC000000000
3FC000000000
3FC000000000
3FC000000000
3FC000000000
3FC000000000
3F8000000000
3F8000000000
3F8000000000
3F8000000000
7F8000000000
7F80FF800000
7F87FFF80000
7F9FFFFE0000
7FFFFFFF0000
7FFFFFFFC000
7FFFFFFFE000
7FFFFFFFF000
7FFFFFFFF800
7FFE007FF800
7FF0001FFC00
FFE0000FFE00
3F800007FE00
0F000003FF00
02000001FF00
00000001FF00
00000000FF80
00000000FF80
000000007F80
000000007F80
000000007F80
000000007F80
000000007F80
000000007F80
000000007F80
000000007F80
000000007F80
000000007F80
00000000FF80
00000000FF00
00000001FF00
02000001FF00
0F000003FE00
1F800007FE00
7FC0000FFC00
FFE0003FFC00
FFF8007FF800
7FFF87FFF000
3FFFFFFFE000
1FFFFFFFC000
0FFFFFFF8000
03FFFFFF0000
00FFFFFC0000
003FFFF00000
0007FF800000
ENDCHAR
STARTCHAR 0036
ENCODING 54
SWIDTH 607 0
DWIDTH 54 0
BBX 47 63 4 -1
BITMAP
000003FE0000
000007FE0000
000007FC0000
00000FF80000
00001FF80000
00003FF00000
00003FE00000
00007FC00000
0000FFC00000
0000FF800000
0001FF000000
0003FF000000
0003FE000000
0007FC000000
000FFC000000
001FF8000000
001FF0000000
003FE3F80000
007FFFFF8000
007FFFFFE000
00FFFFFFF800
01FFFFFFFC00
03FFFFFFFF00
03FFFFFFFF80
07FFF01FFFC0
07FF8003FFC0
0FFE0000FFE0
1FFC00007FF0
1FF800001FF8
3FF000001FF8
3FE000000FF8
7FC0000007FC
7FC0000007FC
7F80000003FC
FF80000003FE
FF00000001FE
FF00000001FE
FF00000001FE
FF00000001FE
FF00000001FE
FF00000001FE
FF00000001FE
FF00000001FE
FF00000001FE
FF80000001FE
FF80000003FE
7F80000003FC
7FC0000007FC
7FC0000007FC
3FE000000FF8
3FF000001FF8
1FF800003FF0
1FFC00007FF0
0FFE0000FFE0
07FF8003FFC0
03FFFC3FFF80
03FFFFFFFF80
01FFFFFFFE00
007FFFFFFC00
003FFFFFF800
000FFFFFE000
0003FFFF8000
00007FFC0000
ENDCHAR
STARTCHAR 0037
ENCODING 55
SWIDTH 450 0
DWIDTH 40 0
BBX 38 62 3 0
BITMAP
FFFFFFFFFC
FFFFFFFFFC
FFFFFFFFFC
FFFFFFFFF8
FFFFFFFFF8
FFFFFFFFF0
FFFFFFFFF0
0000001FF0
0000001FE0
0000001FE0
0000003FC0
0000003FC0
0000007FC0
0000007F80
0000007F80
000000FF00
000000FF00
000001FF00
000001FE00
000001FE00
000003FC00
000003FC00
000007FC00
000007F800
1FFFFFFFC0
1FFFFFFFC0
1FFFFFFFC0
1FFFFFFFC0
1FFFFFFFC0
1FFFFFFFC0
1FFFFFFFC0
00003FC000
00007FC000
00007F8000
0000FF8000
0000FF0000
0000FF0000
0001FF0000
0001FE0000
0003FE0000
0003FC0000
0003FC0000
0007FC0000
0007F80000
000FF80000
000FF00000
000FF00000
001FF00000
001FE00000
003FE00000
003FC00000
003FC00000
007FC00000
007F800000
00FF800000
00FF000000
00FF000000
01FF000000
01FE000000
03FE000000
03FC000000
03FC000000
ENDCHAR
STARTCHAR 0038
ENCODING 56
SWIDTH 562 0
DWIDTH 50 0
BBX 46 65 2 -1
BITMAP
000001800000
00007FF80000
0001FFFE0000
0003FFFF8000
000FFFFFC000
001FFFFFE000
001FFFFFF000
003FFCFFF000
007FE01FF800
007FC007F800
007F8007FC00
00FF0003FC00
00FF0003FC00
00FF0001FC00
00FF0001FC00
00FF0001FC00
00FF0001FC00
00FF0003FC00
00FF8003FC00
007F8007FC00
007FC00FF800
003FF03FF800
003FFFFFF000
001FFFFFE000
000FFFFFC000
001FFFFFF000
007FFFFFF800
00FFFFFFFE00
01FFFFFFFF00
03FFE00FFF80
07FF0003FF80
0FFE0000FFC0
1FF800007FE0
1FF000003FE0
3FE000001FF0
3FE000000FF0
3FC000000FF8
7FC0000007F8
7F80000007F8
7F80000007F8
7F80000007FC
7F80000003FC
FF00000003FC
FF00000003FC
FF80000003FC
7F80000007FC
7F80000007FC
7F80000007F8
7F80000007F8
7FC000000FF8
3FC000000FF8
3FE000001FF0
3FF000003FF0
1FF800003FE0
0FFC0000FFE0
0FFE0001FFC0
07FF8007FF80
03FFF03FFF80
01FFFFFFFF00
00FFFFFFFE00
007FFFFFFC00
003FFFFFF000
000FFFFFE000
0003FFFF0000
00007FFC0000
ENDCHAR
STARTCHAR 0039
ENCODING 57
SWIDTH 585 0
DWIDTH 52 0
BBX 47 64 3 0
BITMAP
000001000000
0000FFFE0000
0003FFFFC000
000FFFFFF000
003FFFFFF800
007FFFFFFE00
00FFFFFFFF00
03FFFFFFFF80
03FFF00FFFC0
07FF8003FFE0
0FFE0000FFE0
1FFC00003FF0
1FF800001FF8
3FF000000FF8
3FE000000FFC
7FC0000007FC
7FC0000003FC
7F80000003FE
7F80000003FE
FF80000001FE
FF00000001FE
FF00000001FE
FF00000001FE
FF00000001FE
FF00000001FE
FF00000001FE
FF00000001FE
FF00000001FE
FF80000001FE
7F80000003FE
7F80000003FC
7FC0000007FC
7FC0000007FC
3FE000000FF8
3FF000001FF8
1FF800003FF0
1FFC00007FF0
0FFF0000FFE0
07FFC003FFE0
03FFFC7FFFC0
01FFFFFFFF80
00FFFFFFFF80
007FFFFFFF00
003FFFFFFE00
000FFFFFFE00
0001FFFFFC00
00000F0FF800
0000001FF000
0000003FF000
0000003FE000
0000007FC000
000000FFC000
000001FF8000
000001FF0000
000003FF0000
000007FE0000
000007FC0000
00000FF80000
00001FF80000
00001FF00000
00003FE00000
00007FE00000
0000FFC00000
0000FF800000
ENDCHAR
STARTCHAR 003A
ENCODING 58
SWIDTH 247 0
DWIDTH 22 0
BBX 13 44 5 -1
BITMAP
0F80
3FC0
7FF0
FFF0
FFF8
FFF8
FFF8
FFF8
FFF8
FFF0
7FF0
3FE0
0F80
0000
0000
0000
0000
0000
0000
0000
0000
0000
0000
0000
0000
0000
0000
0000
0000
0000
0000
0700
3FC0
7FE0
FFF0
FFF0
FFF8
FFF8
FFF8
FFF8
FFF0
7FF0
3FE0
1F80
ENDCHAR
STARTCHAR 003B
ENCODING 59
SWIDTH 281 0
DWIDTH 25 0
BBX 16 53 5 -10
BITMAP
01F0
07F8
0FFC
1FFE
1FFE
1FFF
1FFF
1FFF
1FFE
1FFE
0FFC
07F8
01F0
0000
0000
0000
0000
0000
0000
0000
0000
0000
0000
0000
0000
0000
0000
0000
0000
0000
0000
0000
0000
0000
0000
0000
03FC
07F8
07F8
07F0
0FF0
0FE0
0FE0
1FC0
1FC0
1F80
3F80
3F00
7E00
7E00
7C00
FC00
F800
ENDCHAR
STARTCHAR 003C
ENCODING 60
SWIDTH 551 0
DWIDTH 49 0
BBX 40 37 5 9
BITMAP
0000000003
000000001F
00000000FF
00000003FF
0000001FFF
000000FFFF
000003FFFE
00001FFFF8
0000FFFFC0
0003FFFE00
001FFFF000
00FFFF8000
03FFFE0000
1FFFF00000
FFFF800000
FFFC000000
FFE0000000
FF80000000
FF00000000
FFE0000000
FFFC000000
FFFF000000
3FFFE00000
0FFFFC0000
01FFFF0000
003FFFE000
000FFFFC00
0001FFFF80
00003FFFE0
000007FFFC
000001FFFF
0000003FFF
00000007FF
00000001FF
000000003F
0000000007
0000000001
ENDCHAR
STARTCHAR 003D
ENCODING 61
SWIDTH 551 0
DWIDTH 49 0
BBX 40 24 5 17
BITMAP
FFFFFFFFFF
FFFFFFFFFF
FFFFFFFFFF
FFFFFFFFFF
FFFFFFFFFF
FFFFFFFFFF
0000000000
0000000000
0000000000
0000000000
0000000000
0000000000
0000000000
0000000000
0000000000
0000000000
0000000000
0000000000
FFFFFFFFFF
FFFFFFFFFF
FFFFFFFFFF
FFFFFFFFFF
FFFFFFFFFF
FFFFFFFFFF
ENDCHAR
STARTCHAR 003E
ENCODING 62
SWIDTH 551 0
DWIDTH 49 0
BBX 40 36 5 9
BITMAP
C000000000
F800000000
FE00000000
FFC0000000
FFF8000000
FFFE000000
FFFFC00000
1FFFF80000
03FFFE0000
007FFFC000
001FFFF800
0003FFFE00
00007FFFC0
00001FFFF8
000003FFFE
0000007FFF
0000000FFF
00000003FF
00000000FF
00000003FF
0000001FFF
000000FFFF
000007FFFC
00003FFFE0
0000FFFF80
0007FFFC00
003FFFE000
01FFFF8000
0FFFFC0000
3FFFE00000
FFFF800000
FFFC000000
FFE0000000
FF00000000
FC00000000
E000000000
ENDCHAR
STARTCHAR 003F
ENCODING 63
SWIDTH 427 0
DWIDTH 38 0
BBX 28 64 5 -1
BITMAP
007FE000
01FFFC00
03FFFE00
0FFFFF80
1FFFFF80
3FFFFFC0
3FFFFFE0
7FE07FE0
7F803FF0
FF001FF0
FF000FF0
FE000FF0
7E000FF0
0E000FF0
00000FF0
00000FF0
00000FF0
00001FE0
00001FE0
00003FC0
00007FC0
00007F80
0000FF80
0001FF00
0001FE00
0003FC00
0007FC00
0007F800
000FF000
001FF000
001FE000
003FC000
003FC000
003F8000
007F8000
007F8000
007F8000
007F0000
007F0000
007F0000
007F0000
007F0000
007F0000
00000000
00000000
00000000
00000000
00000000
00000000
00000000
00000000
001E0000
007F8000
00FFC000
01FFE000
01FFE000
03FFE000
03FFE000
03FFE000
01FFE000
01FFE000
00FFC000
007F8000
003F0000
ENDCHAR
STARTCHAR 0040
ENCODING 64
SWIDTH 798 0
DWIDTH 71 0
BBX 61 64 5 -1
BITMAP
000000FFFF800000
000007FFFFF00000
00001FFFFFFE0000
00007FFFFFFF8000
0001FFFFFFFFC000
0007FFC000FFF000
000FFE00001FF800
001FF0000007FC00
003FC0000001FE00
007F80000000FF00
00FE000000007F80
01FC000000003F80
03F8000000001FC0
07F0000000000FC0
07E00000000007E0
0FE00000000007E0
1FC0001FE00003F0
1F80007FF9F803F0
1F8001FFFDF803F0
3F0003FFFFF801F8
3F0007FFFFF801F8
7E000FFFFFF001F8
7E000FF80FF001F8
7E001FF00FF001F8
7C001FE007F001F8
FC003FC007F000F8
FC003F8003F001F8
FC003F8003F001F8
FC007F8003F001F8
FC007F0003E001F8
FC007F0003E001F8
FC007F0007E001F8
FC007F0007E003F0
FC007F0007E003F0
FC007F0007E003F0
FC007F800FE007E0
FC007F800FE007E0
FC003F801FE00FC0
FC003FC03FE01FC0
7E003FE07FF03F80
7E001FFFFFF87F00
7E001FFFFBFFFE00
7F000FFFF9FFFE00
3F0007FFF1FFF800
3F0003FFC0FFF000
1F8000FF803FC000
1FC0000000000000
0FC0000000000000
0FE0000000000000
07F0000000000000
07F8000000000000
03FC000000000C00
01FE000000001E00
00FF000000007F00
007F80000000FF00
003FE0000003FE00
001FF800000FFC00
000FFF00003FF800
0003FFF007FFF000
0001FFFFFFFFC000
00007FFFFFFF0000
00001FFFFFFC0000
000003FFFFE00000
0000003FFF000000
ENDCHAR
STARTCHAR 0041
ENCODING 65
SWIDTH 551 0
DWIDTH 49 0
BBX 44 64 4 0
BITMAP
000018000000
0007FFC00000
003FFFF00000
007FFFFC0000
01FFFFFE0000
03FFFFFF0000
07FFFFFF8000
07FFFFFFC000
0FFF83FFE000
1FFC00FFE000
1FF8003FF000
3FF0001FF000
3FE0001FF800
3FE0000FF800
7FC0000FF800
7FC00007F800
7F800007FC00
7F800007FC00
7F800007FC00
7F800007FC00
FF800003FC00
FF800003FC00
FF800003FC00
FF800003FC00
FF800003FC00
FF800003FC00
FF800003FC00
FF800003FC00
FF800003FC00
FF800003FC00
FF800003FC00
FF800003FC00
FF800003FC00
FF800003FC00
FF800003FC00
FF800003FC00
FF800003FC00
FF800003FC00
FF800003FC00
FF800003FC00
FF800003FC00
FF800003FC00
FF800003FC00
FF800003FC00
FF800003FC00
FF800003FC00
FF800003FC00
FF800003FC00
FF800003FC00
FF800003FC00
FF800003FC00
FF800003FC00
FF800003FC00
FF800003FC00
FF800003FC00
FF800003FC00
FFFFFFFFFFF0
FFFFFFFFFFF0
FFFFFFFFFFF0
FFFFFFFFFFF0
FFFFFFFFFFF0
FFFFFFFFFFF0
FFFFFFFFFFF0
FFFFFFFFFFF0
ENDCHAR
STARTCHAR 0042
ENCODING 66
SWIDTH 596 0
DWIDTH 53 0
BBX 48 62 3 0
BITMAP
03FFFFFF8000
03FFFFFFF000
03FFFFFFFC00
03FFFFFFFF00
03FFFFFFFF80
03FFFFFFFFC0
03FFFFFFFFE0
03FFFFFFFFF0
03FC0000FFF8
03FC00003FF8
03FC00000FFC
03FC00000FFC
03FC000007FC
03FC000003FC
03FC000003FE
03FC000003FE
03FC000003FE
03FC000003FE
03FC000003FE
03FC000003FC
03FC000003FC
03FC000007FC
03FC00000FFC
03FC00000FF8
03FC00003FF8
03FC0000FFF0
03FC001FFFF0
FFFFFFFFFFE0
FFFFFFFFFFC0
FFFFFFFFFF80
FFFFFFFFFFC0
FFFFFFFFFFE0
FFFFFFFFFFF0
FFFFFFFFFFF8
03FC0001FFFC
03FC00001FFC
03FC00000FFE
03FC000007FE
03FC000003FF
03FC000001FF
03FC000001FF
03FC000001FF
03FC000000FF
03FC000000FF
03FC000000FF
03FC000000FF
03FC000000FF
03FC000001FF
03FC000001FF
03FC000003FF
03FC000003FE
03FC000007FE
03FC00001FFE
03FC00007FFC
03FFFFFFFFF8
03FFFFFFFFF8
03FFFFFFFFF0
03FFFFFFFFE0
03FFFFFFFF80
03FFFFFFFE00
03FFFFFFF800
03FFFFFF8000
ENDCHAR
STARTCHAR 0043
ENCODING 67
SWIDTH 675 0
DWIDTH 60 0
BBX 57 65 3 -1
BITMAP
00000000E0000000
000000FFFF800000
000007FFFFF00000
00003FFFFFFE0000
0000FFFFFFFF8000
0001FFFFFFFFC000
0007FFFFFFFFF000
000FFFFFFFFFF800
001FFFFC0FFFFC00
003FFF8000FFFE00
007FFC00001FFF00
00FFF000000FFF80
01FFE0000003FF00
03FF80000001FE00
07FF00000000F800
07FE000000007000
0FFC000000002000
0FF8000000000000
1FF8000000000000
1FF0000000000000
3FF0000000000000
3FE0000000000000
3FC0000000000000
7FC0000000000000
7FC0000000000000
7F80000000000000
7F80000000000000
FF80000000000000
FF80000000000000
FF80000000000000
FF00000000000000
FF00000000000000
FF00000000000000
FF00000000000000
FF00000000000000
FF00000000000000
FF80000000000000
FF80000000000000
FF80000000000000
7F80000000000000
7FC0000000000000
7FC0000000000000
7FC0000000000000
3FE0000000000000
3FE0000000000000
3FF0000000000000
1FF0000000000000
1FF8000000000000
0FFC000000000000
0FFC000000002000
07FE000000007800
03FF80000000FC00
03FFC0000001FE00
01FFE0000003FF00
00FFF800000FFF80
007FFE00003FFF00
003FFFC001FFFE00
001FFFFFFFFFFC00
000FFFFFFFFFF800
0003FFFFFFFFE000
0001FFFFFFFFC000
00007FFFFFFF0000
00001FFFFFFC0000
000003FFFFF00000
0000007FFF000000
ENDCHAR
STARTCHAR 0044
ENCODING 68
SWIDTH 641 0
DWIDTH 57 0
BBX 50 62 5 0
BITMAP
FFFFFF00000000
FFFFFFF8000000
FFFFFFFF000000
FFFFFFFFC00000
FFFFFFFFF00000
FFFFFFFFF80000
FFFFFFFFFE0000
FFFFFFFFFF0000
FF0000FFFF8000
FF00001FFFC000
FF000003FFE000
FF000000FFF000
FF0000007FF000
FF0000003FF800
FF0000001FFC00
FF0000000FFC00
FF00000007FE00
FF00000003FE00
FF00000003FF00
FF00000001FF00
FF00000001FF00
FF00000000FF80
FF00000000FF80
FF00000000FF80
FF000000007F80
FF000000007F80
FF000000007FC0
FF000000007FC0
FF000000007FC0
FF000000007FC0
FF000000007FC0
FF000000007FC0
FF000000007FC0
FF000000007FC0
FF000000007FC0
FF000000007FC0
FF000000007F80
FF000000007F80
FF00000000FF80
FF00000000FF80
FF00000000FF80
FF00000001FF00
FF00000001FF00
FF00000003FF00
FF00000003FE00
FF00000007FE00
FF0000000FFC00
FF0000001FFC00
FF0000003FF800
FF0000007FF000
FF000001FFF000
FF000007FFE000
FF00001FFFC000
FF0001FFFF8000
FFFFFFFFFF0000
FFFFFFFFFE0000
FFFFFFFFF80000
FFFFFFFFE00000
FFFFFFFFC00000
FFFFFFFE000000
FFFFFFF0000000
FFFFFF00000000
ENDCHAR
STARTCHAR 0045
ENCODING 69
SWIDTH 495 0
DWIDTH 44 0
BBX 42 62 2 0
BITMAP
03FFFFFE0000
03FFFFFE0000
03FFFFFE0000
03FFFFFE0000
03FFFFFE0000
03FFFFFE0000
03FFFFFE0000
03FFFFFE0000
03FE00000000
03FE00000000
03FE00000000
03FE00000000
03FE00000000
03FE00000000
03FE00000000
03FE00000000
03FE00000000
03FE00000000
03FE00000000
03FE00000000
03FE00000000
03FE00000000
03FE00000000
03FE00000000
03FE00000000
03FE00000000
03FE00000000
FFFFFFFFE000
FFFFFFFFE000
FFFFFFFFE000
FFFFFFFFE000
FFFFFFFFE000
FFFFFFFFE000
FFFFFFFFE000
03FE00000000
03FE00000000
03FE00000000
03FE00000000
03FE00000000
03FE00000000
03FE00000000
03FE00000000
03FE00000000
03FE00000000
03FE00000000
03FE00000000
03FE00000000
03FE00000000
03FE00000000
03FE00000000
03FE00000000
03FE00000000
03FE00000000
03FE00000000
03FFFFFFFFC0
03FFFFFFFFC0
03FFFFFFFFC0
03FFFFFFFFC0
03FFFFFFFFC0
03FFFFFFFFC0
03FFFFFFFFC0
03FFFFFFFFC0
ENDCHAR
STARTCHAR 0046
ENCODING 70
SWIDTH 450 0
DWIDTH 40 0
BBX 39 62 2 0
BITMAP
01FFFFFFFE
01FFFFFFFE
01FFFFFFFE
01FFFFFFFE
01FFFFFFFE
01FFFFFFFE
01FFFFFFFE
01FFFFFFFE
01FF000000
01FF000000
01FF000000
01FF000000
01FF000000
01FF000000
01FF000000
01FF000000
01FF000000
01FF000000
01FF000000
01FF000000
01FF000000
01FF000000
01FF000000
01FF000000
01FF000000
01FF000000
01FF000000
01FF000000
FFFFFFFFF8
FFFFFFFFF8
FFFFFFFFF8
FFFFFFFFF8
FFFFFFFFF8
FFFFFFFFF8
FFFFFFFFF8
FFFFFFFFF8
01FF000000
01FF000000
01FF000000
01FF000000
01FF000000
01FF000000
01FF000000
01FF000000
01FF000000
01FF000000
01FF000000
01FF000000
01FF000000
01FF000000
01FF000000
01FF000000
01FF000000
01FF000000
01FF000000
01FF000000
01FF000000
01FF000000
01FF000000
01FF000000
01FF000000
01FF000000
ENDCHAR
STARTCHAR 0047
ENCODING 71
SWIDTH 832 0
DWIDTH 74 0
BBX 70 65 3 -1
BITMAP
00000000C000000000
000000FFFFC0000000
000007FFFFF8000000
00001FFFFFFE000000
00007FFFFFFF800000
0001FFFFFFFFE00000
0007FFFFFFFFF00000
000FFFFFFFFFF80000
001FFFFE0FFFFC0000
003FFF80007FFE0000
007FFE00001FFF0000
00FFF8000007FF8000
01FFE0000003FF0000
03FFC0000000FE0000
07FF000000007C0000
07FE00000000380000
0FFC00000000100000
0FFC00000000000000
1FF800000000000000
1FF000000000000000
3FF000000000000000
3FE000000000000000
3FE000000000000000
7FC000000000000000
7FC000000000000000
7F8000000000000000
7F8000000000000000
FF8000000000000000
FF8000000000000000
FF800001FFFFFFFFFC
FF000001FFFFFFFFFC
FF000001FFFFFFFFFC
FF000001FFFFFFFFFC
FF000001FFFFFFFFFC
FF000001FFFFFFFFFC
FF000001FFFFFFFFFC
FF800000000000FF80
FF800000000000FF80
FF800000000000FF80
7F800000000000FF00
7F800000000001FF00
7FC00000000001FF00
7FC00000000001FF00
3FE00000000003FE00
3FE00000000003FE00
3FF00000000007FE00
1FF00000000007FC00
1FF8000000000FFC00
0FFC000000000FF800
0FFE000000001FF800
07FF000000003FF000
03FF800000007FF000
03FFC0000000FFE000
01FFE0000003FFC000
00FFF8000007FF8000
007FFE00001FFF0000
003FFFC000FFFF0000
001FFFFFFFFFFC0000
000FFFFFFFFFF80000
0003FFFFFFFFF00000
0001FFFFFFFFC00000
00007FFFFFFF800000
00001FFFFFFE000000
000003FFFFF0000000
0000003FFF80000000
ENDCHAR
STARTCHAR 0048
ENCODING 72
SWIDTH 551 0
DWIDTH 49 0
BBX 43 62 2 0
BITMAP
03FE00001FE0
03FE00001FE0
03FE00001FE0
03FE00001FE0
03FE00001FE0
03FE00001FE0
03FE00001FE0
03FE00001FE0
03FE00001FE0
03FE00001FE0
03FE00001FE0
03FE00001FE0
03FE00001FE0
03FE00001FE0
03FE00001FE0
03FE00001FE0
03FE00001FE0
03FE00001FE0
03FE00001FE0
03FE00001FE0
03FE00001FE0
03FE00001FE0
03FE00001FE0
03FE00001FE0
03FE00001FE0
FFFFFFFFFFE0
FFFFFFFFFFE0
FFFFFFFFFFE0
FFFFFFFFFFE0
FFFFFFFFFFE0
FFFFFFFFFFE0
FFFFFFFFFFE0
FFFFFFFFFFE0
03FE00001FE0
03FE00001FE0
03FE00001FE0
03FE00001FE0
03FE00001FE0
03FE00001FE0
03FE00001FE0
03FE00001FE0
03FE00001FE0
03FE00001FE0
03FE00001FE0
03FE00001FE0
03FE00001FE0
03FE00001FE0
03FE00001FE0
03FE00001FE0
03FE00001FE0
03FE00001FE0
03FE00001FE0
03FE00001FE0
03FE00001FE0
03FE00001FE0
03FE00001FE0
03FE00001FE0
03FE00001FE0
03FE00001FE0
03FE00001FE0
03FE00001FE0
03FE00001FE0
ENDCHAR
STARTCHAR 0049
ENCODING 73
SWIDTH 180 0
DWIDTH 16 0
BBX 23 71 -3 0
BITMAP
001000
001000
001000
003800
003800
003800
007C00
007C00
007C00
FFFFFE
3FFFF8
1FFFF0
07FFC0
03FF80
01FF00
03FF80
03FF80
03FF80
07C780
0783C0
0600C0
040040
000000
000000
000000
000000
000000
000000
000000
000000
000000
000000
000000
01FF00
01FF00
01FF00
01FF00
01FF00
01FF00
01FF00
01FF00
01FF00
01FF00
01FF00
01FF00
01FF00
01FF00
01FF00
01FF00
01FF00
01FF00
01FF00
01FF00
01FF00
01FF00
01FF00
01FF00
01FF00
01FF00
01FF00
01FF00
01FF00
01FF00
01FF00
01FF00
01FF00
01FF00
01FF00
01FF00
01FF00
01FF00
ENDCHAR
STARTCHAR 004A
ENCODING 74
SWIDTH 461 0
DWIDTH 41 0
BBX 36 63 1 -1
BITMAP
000007FFF0
000007FFF0
000007FFF0
000007FFF0
000007FFF0
000007FFF0
000007FFF0
000007FFF0
0000001FF0
0000001FF0
0000001FF0
0000001FF0
0000001FF0
0000001FF0
0000001FF0
0000001FF0
0000001FF0
0000001FF0
0000001FF0
0000001FF0
0000001FF0
0000001FF0
0000001FF0
0000001FF0
0000001FF0
0000001FF0
0000001FF0
0000001FF0
0000001FF0
0000001FF0
0000001FF0
0000001FF0
0000001FF0
0000001FF0
0000001FF0
0000001FF0
0000001FF0
0000001FF0
0000001FF0
0000001FF0
0000001FF0
0000001FF0
0000001FF0
0000001FF0
0000001FF0
0000001FF0
0000001FE0
0100001FE0
0300003FE0
0F00003FE0
3F80007FE0
FF80007FC0
FFC000FFC0
7FE001FF80
7FF803FF80
3FFFFFFF00
1FFFFFFF00
1FFFFFFE00
0FFFFFFC00
03FFFFF800
01FFFFF000
007FFFC000
001FFE0000
ENDCHAR
STARTCHAR 004B
ENCODING 75
SWIDTH 528 0
DWIDTH 47 0
BBX 42 62 2 0
BITMAP
03FE0003FC00
03FE0003FC00
03FE0003FC00
03FE0003FC00
03FE0003FC00
03FE0003FC00
03FE0003FC00
03FE0003FC00
03FE0003FC00
03FE0003FC00
03FE0003FC00
03FE0003FC00
03FE0003FC00
03FE0003FC00
03FE0007FC00
03FE0007FC00
03FE0007FC00
03FE0007FC00
03FE0007F800
03FE000FF800
03FE000FF800
03FE000FF800
03FE001FF000
03FE003FF000
03FE007FE000
03FE01FFE000
FFFFFFFFC000
FFFFFFFFC000
FFFFFFFF8000
FFFFFFFFC000
FFFFFFFFE000
FFFFFFFFF000
FFFFFFFFF800
FFFFFFFFFC00
03FE003FFE00
03FE000FFE00
03FE0003FF00
03FE0001FF00
03FE0001FF00
03FE0000FF80
03FE0000FF80
03FE0000FF80
03FE00007F80
03FE00007F80
03FE00007FC0
03FE00007FC0
03FE00007FC0
03FE00007FC0
03FE00007FC0
03FE00007FC0
03FE00007FC0
03FE00007FC0
03FE00007FC0
03FE00007FC0
03FE00007FC0
03FE00007FC0
03FE00007FC0
03FE00007FC0
03FE00007FC0
03FE00007FC0
03FE00007FC0
03FE00007FC0
ENDCHAR
STARTCHAR 004C
ENCODING 76
SWIDTH 427 0
DWIDTH 38 0
BBX 32 62 5 0
BITMAP
FF000000
FF000000
FF000000
FF000000
FF000000
FF000000
FF000000
FF000000
FF000000
FF000000
FF000000
FF000000
FF000000
FF000000
FF000000
FF000000
FF000000
FF000000
FF000000
FF000000
FF000000
FF000000
FF000000
FF000000
FF000000
FF000000
FF000000
FF000000
FF000000
FF000000
FF000000
FF000000
FF000000
FF000000
FF000000
FF000000
FF000000
FF000000
FF000000
FF000000
FF000000
FF000000
FF000000
FF000000
FF000000
FF000000
FF000000
FF000000
FF000000
FF000000
FF000000
FF000000
FF000000
FF000000
FFFFFFFF
FFFFFFFF
FFFFFFFF
FFFFFFFF
FFFFFFFF
FFFFFFFF
FFFFFFFF
FFFFFFFF
ENDCHAR
STARTCHAR 004D
ENCODING 77
SWIDTH 866 0
DWIDTH 77 0
BBX 71 64 1 0
BITMAP
040000000000000000
0E0000003800000000
1F0000003C000001FE
1FC000003E000001FE
3FE000003F800001FE
7FF000003FC00001FE
FFFC00003FE00001FE
7FFE00003FF00001FE
1FFF00003FFC0001FE
0FFF80003FFE0001FE
07FFE0003FFF0001FE
03FFF0003FFFC001FE
03FFF8003FFFE001FE
03FFFC003FFFF001FE
03FFFF003FFFF801FE
03FFFF803FFFFE01FE
03FFFFC03FFFFF01FE
03FDFFF03FE7FF81FE
03FCFFF83FE3FFE1FE
03FC3FFC3FE1FFF1FE
03FC1FFE3FE07FF9FE
03FC0FFFBFE03FFDFE
03FC07FFFFE01FFFFE
03FC01FFFFE00FFFFE
03FC00FFFFE003FFFE
03FC007FFFE001FFFE
03FC001FFFE000FFFE
03FC000FFFE0007FFE
03FC0007FFE0001FFE
03FC0003FFE0000FFE
03FC0000FFE00007FE
03FC00007FE00003FE
03FC00003FE00001FE
03FC00003FE00001FE
03FC00003FE00001FE
03FC00003FE00001FE
03FC00003FE00001FE
03FC00003FE00001FE
03FC00003FE00001FE
03FC00003FE00001FE
03FC00003FE00001FE
03FC00003FE00001FE
03FC00003FE00001FE
03FC00003FE00001FE
03FC00003FE00001FE
03FC00003FE00001FE
03FC00003FE00001FE
03FC00003FE00001FE
03FC00003FE00001FE
03FC00003FE00001FE
03FC00003FE00001FE
03FC00003FE00001FE
03FC00003FE00001FE
03FC00003FE00001FE
03FC00003FE00001FE
03FC00003FE00001FE
03FC00003FE00001FE
03FC00003FE00001FE
03FC00003FE00001FE
03FC00003FE00001FE
03FC00003FE00001FE
03FC00003FE00001FE
03FC00003FE00001FE
03FC00003FE00001FE
ENDCHAR
STARTCHAR 004E
ENCODING 78
SWIDTH 517 0
DWIDTH 46 0
BBX 41 64 1 0
BITMAP
040000000000
0E0000000000
1F0000007F80
1FC000007F80
3FE000007F80
7FF000007F80
FFFC00007F80
7FFE00007F80
1FFF00007F80
0FFF80007F80
0FFFE0007F80
0FFFF0007F80
0FFFF8007F80
0FFFFE007F80
0FFFFF007F80
0FFFFF807F80
0FF7FFC07F80
0FF3FFF07F80
0FF0FFF87F80
0FF07FFC7F80
0FF03FFF7F80
0FF00FFFFF80
0FF007FFFF80
0FF003FFFF80
0FF001FFFF80
0FF0007FFF80
0FF0003FFF80
0FF0001FFF80
0FF0000FFF80
0FF00003FF80
0FF00001FF80
0FF00000FF80
0FF000007F80
0FF000007F80
0FF000007F80
0FF000007F80
0FF000007F80
0FF000007F80
0FF000007F80
0FF000007F80
0FF000007F80
0FF000007F80
0FF000007F80
0FF000007F80
0FF000007F80
0FF000007F80
0FF000007F80
0FF000007F80
0FF000007F80
0FF000007F80
0FF000007F80
0FF000007F80
0FF000007F80
0FF000007F80
0FF000007F80
0FF000007F80
0FF000007F80
0FF000007F80
0FF000007F80
0FF000007F80
0FF000007F80
0FF000007F80
0FF000007F80
0FF000007F80
ENDCHAR
STARTCHAR 004F
ENCODING 79
SWIDTH 810 0
DWIDTH 72 0
BBX 67 65 3 -1
BITMAP
00000000E000000000
000000FFFFC0000000
000007FFFFF8000000
00001FFFFFFF000000
00007FFFFFFFC00000
0001FFFFFFFFE00000
0007FFFFFFFFF80000
000FFFFFFFFFFC0000
001FFFFE0FFFFF0000
003FFF80007FFF8000
007FFE00000FFFC000
00FFF8000003FFE000
01FFE0000000FFF000
03FFC00000007FF000
07FF000000003FF800
07FE000000001FFC00
0FFC000000000FFC00
0FFC0000000007FE00
1FF80000000003FE00
1FF00000000003FF00
3FF00000000001FF00
3FE00000000000FF80
3FE00000000000FF80
7FC00000000000FF80
7FC000000000007FC0
7F8000000000007FC0
7F8000000000007FC0
FF8000000000003FC0
FF8000000000003FC0
FF8000000000003FC0
FF0000000000003FE0
FF0000000000003FE0
FF0000000000003FE0
FF0000000000003FE0
FF0000000000003FE0
FF0000000000003FC0
FF8000000000003FC0
FF8000000000003FC0
FF8000000000003FC0
7F8000000000007FC0
7F8000000000007FC0
7FC000000000007F80
7FC00000000000FF80
3FE00000000000FF80
3FE00000000001FF80
3FF00000000001FF00
1FF00000000003FF00
1FF80000000003FE00
0FFC0000000007FE00
0FFE000000000FFC00
07FF000000001FF800
03FF800000003FF800
03FFC00000007FF000
01FFE0000001FFE000
00FFF8000007FFC000
007FFE00001FFFC000
003FFFC0007FFF8000
001FFFFFFFFFFE0000
000FFFFFFFFFFC0000
0003FFFFFFFFF80000
0001FFFFFFFFE00000
00007FFFFFFF800000
00001FFFFFFE000000
000003FFFFF8000000
0000003FFF80000000
ENDCHAR
STARTCHAR 0050
ENCODING 80
SWIDTH 551 0
DWIDTH 49 0
BBX 46 62 2 0
BITMAP
07FFFFFC0000
07FFFFFFC000
07FFFFFFF000
07FFFFFFFC00
07FFFFFFFF00
07FFFFFFFF80
07FFFFFFFFC0
07FFFFFFFFE0
07F80003FFE0
07F800007FF0
07F800003FF0
07F800001FF8
07F800000FF8
07F8000007FC
07F8000007FC
07F8000007FC
07F8000003FC
07F8000003FC
07F8000003FC
07F8000003FC
07F8000003FC
07F8000003FC
07F8000007FC
07F8000007FC
07F800000FF8
07F800000FF8
07F800001FF8
07F800003FF0
07F80000FFF0
07F80003FFE0
07F801FFFFC0
FFFFFFFFFF80
FFFFFFFFFF00
FFFFFFFFFE00
FFFFFFFFFC00
FFFFFFFFF000
FFFFFFFF8000
FFFFFFFC0000
07F800000000
07F800000000
07F800000000
07F800000000
07F800000000
07F800000000
07F800000000
07F800000000
07F800000000
07F800000000
07F800000000
07F800000000
07F800000000
07F800000000
07F800000000
07F800000000
07F800000000
07F800000000
07F800000000
07F800000000
07F800000000
07F800000000
07F800000000
07F800000000
ENDCHAR
STARTCHAR 0051
ENCODING 81
SWIDTH 810 0
DWIDTH 72 0
BBX 67 66 3 -2
BITMAP
00000000E000000000
000000FFFFC0000000
000007FFFFF8000000
00001FFFFFFF000000
00007FFFFFFFC00000
0001FFFFFFFFE00000
0007FFFFFFFFF80000
000FFFFFFFFFFC0000
001FFFFE0FFFFF0000
003FFF80007FFF8000
007FFE00000FFFC000
00FFF8000003FFE000
01FFE0000000FFF000
03FFC00000007FF000
07FF000000003FF800
07FE000000001FFC00
0FFC000000000FFC00
0FFC0000000007FE00
1FF80000000003FE00
1FF00000000003FF00
3FF00000000001FF00
3FE00000000000FF80
3FE00000000000FF80
7FC00000000000FF80
7FC000000000007FC0
7F8000000000007FC0
7F8000000000007FC0
FF8000000000003FC0
FF8000000000003FC0
FF8000000000003FC0
FF0000000000003FE0
FF0000000000003FE0
FF0000000000003FE0
FF0000000000003FE0
FF0000000000003FE0
FF0000000000003FC0
FF8000000000003FC0
FF8000000000003FC0
FF8000000000003FC0
7F8000000000007FC0
7F8000000000007FC0
7FC000000000007F80
7FC00000000000FF80
3FE00000000600FF80
3FE00000000F01FF80
3FF00000001F81FF00
1FF00000003FC3FF00
1FF80000007FC3FE00
0FFC000000FFE7FE00
0FFE0000007FFFFC00
07FF0000003FFFFC00
03FF8000001FFFF800
03FFC000000FFFF000
01FFE0000007FFE000
00FFF8000003FFC000
007FFE00001FFFC000
003FFFC0007FFFE000
001FFFFFBFFFFFF000
000FFFFFFFFFFFF800
0003FFFFFFFFFFFC00
0001FFFFFFFFEFFE00
00007FFFFFFF87FC00
00001FFFFFFE03F800
000003FFFFF801F000
0000003FFF8000E000
000000000000004000
ENDCHAR
STARTCHAR 0052
ENCODING 82
SWIDTH 585 0
DWIDTH 52 0
BBX 47 62 2 0
BITMAP
03FFFFFF0000
03FFFFFFE000
03FFFFFFFC00
03FFFFFFFF00
03FFFFFFFF80
03FFFFFFFFC0
03FFFFFFFFE0
03FFFFFFFFF0
03FE0001FFF8
03FE00003FF8
03FE00001FFC
03FE00000FFC
03FE000007FC
03FE000003FE
03FE000003FE
03FE000003FE
03FE000001FE
03FE000001FE
03FE000001FE
03FE000001FE
03FE000001FE
03FE000003FE
03FE000003FE
03FE000003FC
03FE000007FC
03FE00000FFC
03FE00001FF8
03FE00003FF8
03FE0000FFF0
03FE003FFFF0
FFFFFFFFFFE0
FFFFFFFFFFC0
FFFFFFFFFF80
FFFFFFFFFE00
FFFFFFFFFC00
FFFFFFFFFC00
FFFFFFFFFE00
03FE007FFF00
03FE0007FF80
03FE0001FF80
03FE0000FFC0
03FE00007FC0
03FE00007FE0
03FE00003FE0
03FE00003FE0
03FE00001FF0
03FE00001FF0
03FE00001FF0
03FE00000FF0
03FE00000FF0
03FE00000FF0
03FE00000FF0
03FE00000FF8
03FE00000FF8
03FE00000FF8
03FE00000FF8
03FE00000FF8
03FE00000FF8
03FE00000FF8
03FE00000FF8
03FE00000FF8
03FE00000FF8
ENDCHAR
STARTCHAR 0053
ENCODING 83
SWIDTH 483 0
DWIDTH 43 0
BBX 38 65 3 -1
BITMAP
0000780000
000FFFC000
003FFFF000
00FFFFFC00
01FFFFFE00
03FFFFFF00
07FFFFFF80
0FFFFFFFC0
0FFF87FFC0
0FFC00FFE0
1FF8007FE0
1FF0003FF0
1FF0001FF0
3FE0000FF0
3FE0000FF8
3FE0000FF8
3FE00007E0
3FE0000600
1FE0000000
1FF0000000
1FF0000000
1FF8000000
0FFC000000
0FFE000000
07FF800000
03FFC00000
01FFF00000
00FFFC0000
007FFE0000
003FFF8000
000FFFE000
0007FFF000
0001FFFC00
0000FFFE00
00003FFF00
00000FFF80
000007FFC0
000001FFE0
000000FFF0
0000007FF0
0000003FF8
0000001FF8
0000000FFC
00000007FC
00000007FC
00000003FC
01000003FC
1F000003FC
FF000003FC
FF000003FC
FF800007FC
FF800007FC
7FC00007FC
7FE0000FF8
7FF0001FF8
3FF8003FF8
1FFE00FFF0
1FFFFFFFF0
0FFFFFFFE0
07FFFFFFC0
03FFFFFF80
01FFFFFF00
007FFFFE00
001FFFF800
0003FFC000
ENDCHAR
STARTCHAR 0054
ENCODING 84
SWIDTH 495 0
DWIDTH 44 0
BBX 41 62 2 0
BITMAP
FFFFFFFFFF80
FFFFFFFFFF80
FFFFFFFFFF80
FFFFFFFFFF80
FFFFFFFFFF80
FFFFFFFFFF80
FFFFFFFFFF80
FFFFFFFFFF80
0000FF800000
0000FF800000
0000FF800000
0000FF800000
0000FF800000
0000FF800000
0000FF800000
0000FF800000
0000FF800000
0000FF800000
0000FF800000
0000FF800000
0000FF800000
0000FF800000
0000FF800000
0000FF800000
0000FF800000
0000FF800000
0000FF800000
0000FF800000
0000FF800000
0000FF800000
0000FF800000
0000FF800000
0000FF800000
0000FF800000
0000FF800000
0000FF800000
0000FF800000
0000FF800000
0000FF800000
0000FF800000
0000FF800000
0000FF800000
0000FF800000
0000FF800000
0000FF800000
0000FF800000
0000FF800000
0000FF800000
0000FF800000
0000FF800000
0000FF800000
0000FF800000
0000FF800000
0000FF800000
0000FF800000
0000FF800000
0000FF800000
0000FF800000
0000FF800000
0000FF800000
0000FF800000
0000FF800000
ENDCHAR
STARTCHAR 0055
ENCODING 85
SWIDTH 506 0
DWIDTH 45 0
BBX 37 63 4 -1
BITMAP
FF000007F8
FF000007F8
FF000007F8
FF000007F8
FF000007F8
FF000007F8
FF000007F8
FF000007F8
FF000007F8
FF000007F8
FF000007F8
FF000007F8
FF000007F8
FF000007F8
FF000007F8
FF000007F8
FF000007F8
FF000007F8
FF000007F8
FF000007F8
FF000007F8
FF000007F8
FF000007F8
FF000007F8
FF000007F8
FF000007F8
FF000007F8
FF000007F8
FF000007F8
FF000007F8
FF000007F8
FF000007F8
FF000007F8
FF000007F8
FF000007F8
FF000007F8
FF000007F8
FF000007F8
FF000007F8
FF000007F8
FF000007F8
FF000007F8
FF000007F8
FF000007F8
FF000007F8
FF800007F8
FF800007F8
FF80000FF8
7F80000FF8
7FC0000FF0
7FC0001FF0
7FE0001FF0
3FE0003FE0
3FF0007FE0
1FFC01FFC0
1FFFDFFFC0
0FFFFFFF80
07FFFFFF00
03FFFFFE00
01FFFFFC00
00FFFFF800
003FFFE000
0007FF8000
ENDCHAR
STARTCHAR 0056
ENCODING 86
SWIDTH 461 0
DWIDTH 41 0
BBX 36 62 1 0
BITMAP
FF00000FF0
FF00000FF0
FF00000FF0
FF00000FF0
FF00000FF0
FF00000FF0
FF00000FF0
FF00000FF0
FF00000FF0
FF00000FF0
FF00000FF0
FF00000FF0
FF00000FF0
FF00000FF0
FF00000FF0
FF00000FF0
FF00000FF0
FF00000FF0
FF00000FF0
FF00000FF0
FF00000FF0
FF00000FF0
FF00000FF0
FF00000FF0
FF00000FF0
FF00000FF0
FF00000FF0
FF00000FF0
FF00000FF0
FF00000FF0
FF00000FF0
FF80000FF0
FF80001FF0
FF80001FF0
FF80001FF0
FF80001FF0
7F80001FF0
7F80001FE0
7F80001FE0
7FC0001FE0
7FC0003FE0
7FC0003FE0
3FC0003FE0
3FE0003FC0
3FE0007FC0
3FE0007FC0
1FF0007F80
1FF000FF80
1FF000FF80
0FF801FF00
0FFC01FF00
07FC03FE00
07FE07FE00
03FE07FC00
01FF0FF800
01FF9FF800
00FFFFF000
007FFFE000
003FFFC000
001FFF8000
000FFF0000
0007FE0000
ENDCHAR
STARTCHAR 0057
ENCODING 87
SWIDTH 776 0
DWIDTH 69 0
BBX 64 62 1 0
BITMAP
FF00000FF00000FF
FF00000FF00000FF
FF00000FF00000FF
FF00000FF00000FF
FF00000FF00000FF
FF00000FF00000FF
FF00000FF00000FF
FF00000FF00000FF
FF00000FF00000FF
FF00000FF00000FF
FF00000FF00000FF
FF00000FF00000FF
FF00000FF00000FF
FF00000FF00000FF
FF00000FF00000FF
FF00000FF00000FF
FF00000FF00000FF
FF00000FF00000FF
FF00000FF00000FF
FF00000FF00000FF
FF00000FF00000FF
FF00000FF00000FF
FF00000FF00000FF
FF00000FF00000FF
FF00000FF00000FF
FF00000FF00000FF
FF00000FF00000FF
FF00000FF00000FF
FF00000FF00000FF
FF00000FF00000FF
FF00000FF00000FF
FF80000FF00001FF
FF80001FF80001FF
FF80001FF80001FF
FF80001FF80001FF
FF80001FF80001FF
7F80001FF80001FE
7F80001FF80001FE
7F80001FF80001FE
7FC0001FF80003FE
7FC0003FFC0003FE
7FC0003FFC0003FE
3FC0003FFC0003FC
3FE0003FFC0007FC
3FE0007FFE0007FC
3FE0007FFE0007FC
1FF0007FFF000FF8
1FF000FFFF000FF8
1FF000FFFF000FF8
0FF801FFFF801FF0
0FFC01FFFF803FF0
07FC03FE7FC03FE0
07FE07FE7FE07FE0
03FE07FC3FE07FC0
01FF0FF81FF0FF80
01FF9FF81FF9FF80
00FFFFF00FFBFF00
007FFFE007FFFE00
003FFFC003FFFC00
001FFF8001FFF800
000FFF0000FFF000
0007FE00007FE000
ENDCHAR
STARTCHAR 0058
ENCODING 88
SWIDTH 517 0
DWIDTH 46 0
BBX 38 62 4 0
BITMAP
FF800007FC
FF800007FC
FF800007FC
FF800007FC
FF800007FC
FF800007FC
FF800007FC
FF800007FC
FF800007FC
FF800007FC
FF800007FC
FF800007FC
FF800007FC
FF800007FC
7F800007F8
7F800007F8
7FC0000FF8
7FC0000FF8
3FE0001FF8
3FE0001FF0
3FF0003FF0
1FF8007FE0
1FFF01FFE0
0FFFFFFFC0
07FFFFFF80
03FFFFFF00
01FFFFFE00
01FFFFFE00
03FFFFFF00
07FFFFFF80
0FFFFFFFC0
1FFE01FFE0
1FF8007FE0
3FF0003FF0
3FE0001FF0
3FE0001FF8
7FC0000FF8
7FC0000FF8
7F800007F8
7F800007F8
FF800007FC
FF800007FC
FF800007FC
FF800007FC
FF800007FC
FF800007FC
FF800007FC
FF800007FC
FF800007FC
FF800007FC
FF800007FC
FF800007FC
FF800007FC
FF800007FC
FF800007FC
FF800007FC
FF800007FC
FF800007FC
FF800007FC
FF800007FC
FF800007FC
FF800007FC
ENDCHAR
STARTCHAR 0059
ENCODING 89
SWIDTH 495 0
DWIDTH 44 0
BBX 38 62 3 0
BITMAP
FF800003FC
FF800003FC
FF800003FC
FF800003FC
FF800003FC
FF800003FC
FF800003FC
FF800003FC
FF800003FC
FF800003FC
FF800003FC
FF800003FC
FF800003FC
FF800003FC
FF800003FC
FF800003FC
FF800003FC
FF800003FC
FF800003FC
FF800003FC
FF800003FC
FF800003FC
FF800003FC
FF800003FC
FF800003FC
FF800003FC
FF800003FC
FF800007FC
FF800007FC
7F800007FC
7F800007FC
7F800007FC
7FC00007F8
7FC0000FF8
3FE0000FF8
3FE0001FF0
3FF0003FF0
1FF8007FF0
1FFC00FFE0
0FFFCFFFC0
07FFFFFFC0
07FFFFFF80
03FFFFFF00
01FFFFFE00
007FFFFC00
001FFFF000
0007FF8000
0001FE0000
0001FE0000
0001FE0000
0001FE0000
0001FE0000
0001FE0000
0001FE0000
0001FE0000
0001FE0000
0001FE0000
0001FE0000
0001FE0000
0001FE0000
0001FE0000
0001FE0000
ENDCHAR
STARTCHAR 005A
ENCODING 90
SWIDTH 506 0
DWIDTH 45 0
BBX 41 62 2 0
BITMAP
FFFFFFFFFF80
FFFFFFFFFF80
FFFFFFFFFF80
FFFFFFFFFF80
FFFFFFFFFF80
FFFFFFFFFF00
FFFFFFFFFE00
FFFFFFFFFE00
00000007FC00
0000000FFC00
0000000FF800
0000001FF000
0000001FF000
0000003FE000
0000007FE000
0000007FC000
000000FF8000
000000FF8000
000001FF0000
000003FF0000
000003FE0000
000007FC0000
000007FC0000
00000FF80000
00001FF80000
00001FF00000
00003FF00000
00003FE00000
00007FC00000
0000FFC00000
0000FF800000
0001FF800000
0001FF000000
0003FE000000
0007FE000000
0007FC000000
000FFC000000
000FF8000000
001FF0000000
003FF0000000
003FE0000000
007FE0000000
007FC0000000
00FF80000000
01FF80000000
01FF00000000
03FF00000000
03FE00000000
07FC00000000
0FFC00000000
0FF800000000
1FF800000000
1FF000000000
3FE000000000
7FFFFFFFFE00
7FFFFFFFFE00
FFFFFFFFFE00
FFFFFFFFFE00
FFFFFFFFFE00
FFFFFFFFFE00
FFFFFFFFFE00
FFFFFFFFFE00
ENDCHAR
STARTCHAR 005B
ENCODING 91
SWIDTH 236 0
DWIDTH 21 0
BBX 11 84 5 -12
BITMAP
FFE0
FFE0
FFE0
FFE0
FFE0
FC00
FC00
FC00
FC00
FC00
FC00
FC00
FC00
FC00
FC00
FC00
FC00
FC00
FC00
FC00
FC00
FC00
FC00
FC00
FC00
FC00
FC00
FC00
FC00
FC00
FC00
FC00
FC00
FC00
FC00
FC00
FC00
FC00
FC00
FC00
FC00
FC00
FC00
FC00
FC00
FC00
FC00
FC00
FC00
FC00
FC00
FC00
FC00
FC00
FC00
FC00
FC00
FC00
FC00
FC00
FC00
FC00
FC00
FC00
FC00
FC00
FC00
FC00
FC00
FC00
FC00
FC00
FC00
FC00
FC00
FC00
FC00
FC00
FC00
FFE0
FFE0
FFE0
FFE0
FFE0
ENDCHAR
STARTCHAR 005C
ENCODING 92
SWIDTH 393 0
DWIDTH 35 0
BBX 25 65 5 -1
BITMAP
FE000000
FE000000
FE000000
7F000000
7F000000
7F000000
7F000000
3F800000
3F800000
3F800000
1FC00000
1FC00000
1FC00000
1FC00000
0FE00000
0FE00000
0FE00000
07F00000
07F00000
07F00000
03F00000
03F80000
03F80000
03F80000
01FC0000
01FC0000
01FC0000
00FC0000
00FE0000
00FE0000
00FE0000
007F0000
007F0000
007F0000
003F0000
003F8000
003F8000
003F8000
001FC000
001FC000
001FC000
000FC000
000FE000
000FE000
000FE000
0007F000
0007F000
0007F000
0003F800
0003F800
0003F800
0003F800
0001FC00
0001FC00
0001FC00
0000FE00
0000FE00
0000FE00
0000FE00
00007F00
00007F00
00007F00
00003F80
00003F80
00003F80
ENDCHAR
STARTCHAR 005D
ENCODING 93
SWIDTH 236 0
DWIDTH 21 0
BBX 11 84 5 -12
BITMAP
FFE0
FFE0
FFE0
FFE0
FFE0
07E0
07E0
07E0
07E0
07E0
07E0
07E0
07E0
07E0
07E0
07E0
07E0
07E0
07E0
07E0
07E0
07E0
07E0
07E0
07E0
07E0
07E0
07E0
07E0
07E0
07E0
07E0
07E0
07E0
07E0
07E0
07E0
07E0
07E0
07E0
07E0
07E0
07E0
07E0
07E0
07E0
07E0
07E0
07E0
07E0
07E0
07E0
07E0
07E0
07E0
07E0
07E0
07E0
07E0
07E0
07E0
07E0
07E0
07E0
07E0
07E0
07E0
07E0
07E0
07E0
07E0
07E0
07E0
07E0
07E0
07E0
07E0
07E0
07E0
FFE0
FFE0
FFE0
FFE0
FFE0
ENDCHAR
STARTCHAR 005E
ENCODING 94
SWIDTH 472 0
DWIDTH 42 0
BBX 33 23 5 31
BITMAP
000FF80000
000FF80000
001FFC0000
001FFC0000
003FFE0000
007FFE0000
007F7F0000
00FE7F8000
00FE3F8000
01FC1FC000
01F81FC000
03F80FE000
07F00FE000
07F007F000
0FE003F000
0FE003F800
1FC001FC00
1FC001FC00
3F8000FE00
3F0000FE00
7F00007F00
FE00003F00
FE00003F80
ENDCHAR
STARTCHAR 005F
ENCODING 95
SWIDTH 528 0
DWIDTH 47 0
BBX 37 5 5 -9
BITMAP
FFFFFFFFF8
FFFFFFFFF8
FFFFFFFFF8
FFFFFFFFF8
FFFFFFFFF8
ENDCHAR
STARTCHAR 0060
ENCODING 96
SWIDTH 146 0
DWIDTH 13 0
BBX 14 12 0 67
BITMAP
FE00
7F00
3F80
1F80
1FC0
0FC0
07E0
03E0
03F0
01F8
00F8
007C
ENDCHAR
STARTCHAR 0061
ENCODING 97
SWIDTH 551 0
DWIDTH 49 0
BBX 44 64 4 0
BITMAP
000018000000
0007FFC00000
003FFFF00000
007FFFFC0000
01FFFFFE0000
03FFFFFF0000
07FFFFFF8000
07FFFFFFC000
0FFF83FFE000
1FFC00FFE000
1FF8003FF000
3FF0001FF000
3FE0001FF800
3FE0000FF800
7FC0000FF800
7FC00007F800
7F800007FC00
7F800007FC00
7F800007FC00
7F800007FC00
FF800003FC00
FF800003FC00
FF800003FC00
FF800003FC00
FF800003FC00
FF800003FC00
FF800003FC00
FF800003FC00
FF800003FC00
FF800003FC00
FF800003FC00
FF800003FC00
FF800003FC00
FF800003FC00
FF800003FC00
FF800003FC00
FF800003FC00
FF800003FC00
FF800003FC00
FF800003FC00
FF800003FC00
FF800003FC00
FF800003FC00
FF800003FC00
FF800003FC00
FF800003FC00
FF800003FC00
FF800003FC00
FF800003FC00
FF800003FC00
FF800003FC00
FF800003FC00
FF800003FC00
FF800003FC00
FF800003FC00
FF800003FC00
FFFFFFFFFFF0
FFFFFFFFFFF0
FFFFFFFFFFF0
FFFFFFFFFFF0
FFFFFFFFFFF0
FFFFFFFFFFF0
FFFFFFFFFFF0
FFFFFFFFFFF0
ENDCHAR
STARTCHAR 0062
ENCODING 98
SWIDTH 596 0
DWIDTH 53 0
BBX 48 62 3 0
BITMAP
03FFFFFF8000
03FFFFFFF000
03FFFFFFFC00
03FFFFFFFF00
03FFFFFFFF80
03FFFFFFFFC0
03FFFFFFFFE0
03FFFFFFFFF0
03FC0000FFF8
03FC00003FF8
03FC00000FFC
03FC00000FFC
03FC000007FC
03FC000003FC
03FC000003FE
03FC000003FE
03FC000003FE
03FC000003FE
03FC000003FE
03FC000003FC
03FC000003FC
03FC000007FC
03FC00000FFC
03FC00000FF8
03FC00003FF8
03FC0000FFF0
03FC001FFFF0
FFFFFFFFFFE0
FFFFFFFFFFC0
FFFFFFFFFF80
FFFFFFFFFFC0
FFFFFFFFFFE0
FFFFFFFFFFF0
FFFFFFFFFFF8
03FC0001FFFC
03FC00001FFC
03FC00000FFE
03FC000007FE
03FC000003FF
03FC000001FF
03FC000001FF
03FC000001FF
03FC000000FF
03FC000000FF
03FC000000FF
03FC000000FF
03FC000000FF
03FC000001FF
03FC000001FF
03FC000003FF
03FC000003FE
03FC000007FE
03FC00001FFE
03FC00007FFC
03FFFFFFFFF8
03FFFFFFFFF8
03FFFFFFFFF0
03FFFFFFFFE0
03FFFFFFFF80
03FFFFFFFE00
03FFFFFFF800
03FFFFFF8000
ENDCHAR
STARTCHAR 0063
ENCODING 99
SWIDTH 675 0
DWIDTH 60 0
BBX 57 65 3 -1
BITMAP
00000000E0000000
000000FFFF800000
000007FFFFF00000
00003FFFFFFE0000
0000FFFFFFFF8000
0001FFFFFFFFC000
0007FFFFFFFFF000
000FFFFFFFFFF800
001FFFFC0FFFFC00
003FFF8000FFFE00
007FFC00001FFF00
00FFF000000FFF80
01FFE0000003FF00
03FF80000001FE00
07FF00000000F800
07FE000000007000
0FFC000000002000
0FF8000000000000
1FF8000000000000
1FF0000000000000
3FF0000000000000
3FE0000000000000
3FC0000000000000
7FC0000000000000
7FC0000000000000
7F80000000000000
7F80000000000000
FF80000000000000
FF80000000000000
FF80000000000000
FF00000000000000
FF00000000000000
FF00000000000000
FF00000000000000
FF00000000000000
FF00000000000000
FF80000000000000
FF80000000000000
FF80000000000000
7F80000000000000
7FC0000000000000
7FC0000000000000
7FC0000000000000
3FE0000000000000
3FE0000000000000
3FF0000000000000
1FF0000000000000
1FF8000000000000
0FFC000000000000
0FFC000000002000
07FE000000007800
03FF80000000FC00
03FFC0000001FE00
01FFE0000003FF00
00FFF800000FFF80
007FFE00003FFF00
003FFFC001FFFE00
001FFFFFFFFFFC00
000FFFFFFFFFF800
0003FFFFFFFFE000
0001FFFFFFFFC000
00007FFFFFFF0000
00001FFFFFFC0000
000003FFFFF00000
0000007FFF000000
ENDCHAR
STARTCHAR 0064
ENCODING 100
SWIDTH 641 0
DWIDTH 57 0
BBX 50 62 5 0
BITMAP
FFFFFF00000000
FFFFFFF8000000
FFFFFFFF000000
FFFFFFFFC00000
FFFFFFFFF00000
FFFFFFFFF80000
FFFFFFFFFE0000
FFFFFFFFFF0000
FF0000FFFF8000
FF00001FFFC000
FF000003FFE000
FF000000FFF000
FF0000007FF000
FF0000003FF800
FF0000001FFC00
FF0000000FFC00
FF00000007FE00
FF00000003FE00
FF00000003FF00
FF00000001FF00
FF00000001FF00
FF00000000FF80
FF00000000FF80
FF00000000FF80
FF000000007F80
FF000000007F80
FF000000007FC0
FF000000007FC0
FF000000007FC0
FF000000007FC0
FF000000007FC0
FF000000007FC0
FF000000007FC0
FF000000007FC0
FF000000007FC0
FF000000007FC0
FF000000007F80
FF000000007F80
FF00000000FF80
FF00000000FF80
FF00000000FF80
FF00000001FF00
FF00000001FF00
FF00000003FF00
FF00000003FE00
FF00000007FE00
FF0000000FFC00
FF0000001FFC00
FF0000003FF800
FF0000007FF000
FF000001FFF000
FF000007FFE000
FF00001FFFC000
FF0001FFFF8000
FFFFFFFFFF0000
FFFFFFFFFE0000
FFFFFFFFF80000
FFFFFFFFE00000
FFFFFFFFC00000
FFFFFFFE000000
FFFFFFF0000000
FFFFFF00000000
ENDCHAR
STARTCHAR 0065
ENCODING 101
SWIDTH 495 0
DWIDTH 44 0
BBX 42 62 2 0
BITMAP
03FFFFFE0000
03FFFFFE0000
03FFFFFE0000
03FFFFFE0000
03FFFFFE0000
03FFFFFE0000
03FFFFFE0000
03FFFFFE0000
03FE00000000
03FE00000000
03FE00000000
03FE00000000
03FE00000000
03FE00000000
03FE00000000
03FE00000000
03FE00000000
03FE00000000
03FE00000000
03FE00000000
03FE00000000
03FE00000000
03FE00000000
03FE00000000
03FE00000000
03FE00000000
03FE00000000
FFFFFFFFE000
FFFFFFFFE000
FFFFFFFFE000
FFFFFFFFE000
FFFFFFFFE000
FFFFFFFFE000
FFFFFFFFE000
03FE00000000
03FE00000000
03FE00000000
03FE00000000
03FE00000000
03FE00000000
03FE00000000
03FE00000000
03FE00000000
03FE00000000
03FE00000000
03FE00000000
03FE00000000
03FE00000000
03FE00000000
03FE00000000
03FE00000000
03FE00000000
03FE00000000
03FE00000000
03FFFFFFFFC0
03FFFFFFFFC0
03FFFFFFFFC0
03FFFFFFFFC0
03FFFFFFFFC0
03FFFFFFFFC0
03FFFFFFFFC0
03FFFFFFFFC0
ENDCHAR
STARTCHAR 0066
ENCODING 102
SWIDTH 450 0
DWIDTH 40 0
BBX 39 62 2 0
BITMAP
01FFFFFFFE
01FFFFFFFE
01FFFFFFFE
01FFFFFFFE
01FFFFFFFE
01FFFFFFFE
01FFFFFFFE
01FFFFFFFE
01FF000000
01FF000000
01FF000000
01FF000000
01FF000000
01FF000000
01FF000000
01FF000000
01FF000000
01FF000000
01FF000000
01FF000000
01FF000000
01FF000000
01FF000000
01FF000000
01FF000000
01FF000000
01FF000000
01FF000000
FFFFFFFFF8
FFFFFFFFF8
FFFFFFFFF8
FFFFFFFFF8
FFFFFFFFF8
FFFFFFFFF8
FFFFFFFFF8
FFFFFFFFF8
01FF000000
01FF000000
01FF000000
01FF000000
01FF000000
01FF000000
01FF000000
01FF000000
01FF000000
01FF000000
01FF000000
01FF000000
01FF000000
01FF000000
01FF000000
01FF000000
01FF000000
01FF000000
01FF000000
01FF000000
01FF000000
01FF000000
01FF000000
01FF000000
01FF000000
01FF000000
ENDCHAR
STARTCHAR 0067
ENCODING 103
SWIDTH 832 0
DWIDTH 74 0
BBX 70 65 3 -1
BITMAP
00000000C000000000
000000FFFFC0000000
000007FFFFF8000000
00001FFFFFFE000000
00007FFFFFFF800000
0001FFFFFFFFE00000
0007FFFFFFFFF00000
000FFFFFFFFFF80000
001FFFFE0FFFFC0000
003FFF80007FFE0000
007FFE00001FFF0000
00FFF8000007FF8000
01FFE0000003FF0000
03FFC0000000FE0000
07FF000000007C0000
07FE00000000380000
0FFC00000000100000
0FFC00000000000000
1FF800000000000000
1FF000000000000000
3FF000000000000000
3FE000000000000000
3FE000000000000000
7FC000000000000000
7FC000000000000000
7F8000000000000000
7F8000000000000000
FF8000000000000000
FF8000000000000000
FF800001FFFFFFFFFC
FF000001FFFFFFFFFC
FF000001FFFFFFFFFC
FF000001FFFFFFFFFC
FF000001FFFFFFFFFC
FF000001FFFFFFFFFC
FF000001FFFFFFFFFC
FF800000000000FF80
FF800000000000FF80
FF800000000000FF80
7F800000000000FF00
7F800000000001FF00
7FC00000000001FF00
7FC00000000001FF00
3FE00000000003FE00
3FE00000000003FE00
3FF00000000007FE00
1FF00000000007FC00
1FF8000000000FFC00
0FFC000000000FF800
0FFE000000001FF800
07FF000000003FF000
03FF800000007FF000
03FFC0000000FFE000
01FFE0000003FFC000
00FFF8000007FF8000
007FFE00001FFF0000
003FFFC000FFFF0000
001FFFFFFFFFFC0000
000FFFFFFFFFF80000
0003FFFFFFFFF00000
0001FFFFFFFFC00000
00007FFFFFFF800000
00001FFFFFFE000000
000003FFFFF0000000
0000003FFF80000000
ENDCHAR
STARTCHAR 0068
ENCODING 104
SWIDTH 551 0
DWIDTH 49 0
BBX 43 62 2 0
BITMAP
03FE00001FE0
03FE00001FE0
03FE00001FE0
03FE00001FE0
03FE00001FE0
03FE00001FE0
03FE00001FE0
03FE00001FE0
03FE00001FE0
03FE00001FE0
03FE00001FE0
03FE00001FE0
03FE00001FE0
03FE00001FE0
03FE00001FE0
03FE00001FE0
03FE00001FE0
03FE00001FE0
03FE00001FE0
03FE00001FE0
03FE00001FE0
03FE00001FE0
03FE00001FE0
03FE00001FE0
03FE00001FE0
FFFFFFFFFFE0
FFFFFFFFFFE0
FFFFFFFFFFE0
FFFFFFFFFFE0
FFFFFFFFFFE0
FFFFFFFFFFE0
FFFFFFFFFFE0
FFFFFFFFFFE0
03FE00001FE0
03FE00001FE0
03FE00001FE0
03FE00001FE0
03FE00001FE0
03FE00001FE0
03FE00001FE0
03FE00001FE0
03FE00001FE0
03FE00001FE0
03FE00001FE0
03FE00001FE0
03FE00001FE0
03FE00001FE0
03FE00001FE0
03FE00001FE0
03FE00001FE0
03FE00001FE0
03FE00001FE0
03FE00001FE0
03FE00001FE0
03FE00001FE0
03FE00001FE0
03FE00001FE0
03FE00001FE0
03FE00001FE0
03FE00001FE0
03FE00001FE0
03FE00001FE0
ENDCHAR
STARTCHAR 0069
ENCODING 105
SWIDTH 180 0
DWIDTH 16 0
BBX 23 71 -3 0
BITMAP
001000
001000
001000
003800
003800
003800
007C00
007C00
007C00
FFFFFE
3FFFF8
1FFFF0
07FFC0
03FF80
01FF00
03FF80
03FF80
03FF80
07C780
0783C0
0600C0
040040
000000
000000
000000
000000
000000
000000
000000
000000
000000
000000
000000
01FF00
01FF00
01FF00
01FF00
01FF00
01FF00
01FF00
01FF00
01FF00
01FF00
01FF00
01FF00
01FF00
01FF00
01FF00
01FF00
01FF00
01FF00
01FF00
01FF00
01FF00
01FF00
01FF00
01FF00
01FF00
01FF00
01FF00
01FF00
01FF00
01FF00
01FF00
01FF00
01FF00
01FF00
01FF00
01FF00
01FF00
01FF00
ENDCHAR
STARTCHAR 006A
ENCODING 106
SWIDTH 461 0
DWIDTH 41 0
BBX 36 63 1 -1
BITMAP
000007FFF0
000007FFF0
000007FFF0
000007FFF0
000007FFF0
000007FFF0
000007FFF0
000007FFF0
0000001FF0
0000001FF0
0000001FF0
0000001FF0
0000001FF0
0000001FF0
0000001FF0
0000001FF0
0000001FF0
0000001FF0
0000001FF0
0000001FF0
0000001FF0
0000001FF0
0000001FF0
0000001FF0
0000001FF0
0000001FF0
0000001FF0
0000001FF0
0000001FF0
0000001FF0
0000001FF0
0000001FF0
0000001FF0
0000001FF0
0000001FF0
0000001FF0
0000001FF0
0000001FF0
0000001FF0
0000001FF0
0000001FF0
0000001FF0
0000001FF0
0000001FF0
0000001FF0
0000001FF0
0000001FE0
0100001FE0
0300003FE0
0F00003FE0
3F80007FE0
FF80007FC0
FFC000FFC0
7FE001FF80
7FF803FF80
3FFFFFFF00
1FFFFFFF00
1FFFFFFE00
0FFFFFFC00
03FFFFF800
01FFFFF000
007FFFC000
001FFE0000
ENDCHAR
STARTCHAR 006B
ENCODING 107
SWIDTH 528 0
DWIDTH 47 0
BBX 42 62 2 0
BITMAP
03FE0003FC00
03FE0003FC00
03FE0003FC00
03FE0003FC00
03FE0003FC00
03FE0003FC00
03FE0003FC00
03FE0003FC00
03FE0003FC00
03FE0003FC00
03FE0003FC00
03FE0003FC00
03FE0003FC00
03FE0003FC00
03FE0007FC00
03FE0007FC00
03FE0007FC00
03FE0007FC00
03FE0007F800
03FE000FF800
03FE000FF800
03FE000FF800
03FE001FF000
03FE003FF000
03FE007FE000
03FE01FFE000
FFFFFFFFC000
FFFFFFFFC000
FFFFFFFF8000
FFFFFFFFC000
FFFFFFFFE000
FFFFFFFFF000
FFFFFFFFF800
FFFFFFFFFC00
03FE003FFE00
03FE000FFE00
03FE0003FF00
03FE0001FF00
03FE0001FF00
03FE0000FF80
03FE0000FF80
03FE0000FF80
03FE00007F80
03FE00007F80
03FE00007FC0
03FE00007FC0
03FE00007FC0
03FE00007FC0
03FE00007FC0
03FE00007FC0
03FE00007FC0
03FE00007FC0
03FE00007FC0
03FE00007FC0
03FE00007FC0
03FE00007FC0
03FE00007FC0
03FE00007FC0
03FE00007FC0
03FE00007FC0
03FE00007FC0
03FE00007FC0
ENDCHAR
STARTCHAR 006C
ENCODING 108
SWIDTH 427 0
DWIDTH 38 0
BBX 32 62 5 0
BITMAP
FF000000
FF000000
FF000000
FF000000
FF000000
FF000000
FF000000
FF000000
FF000000
FF000000
FF000000
FF000000
FF000000
FF000000
FF000000
FF000000
FF000000
FF000000
FF000000
FF000000
FF000000
FF000000
FF000000
FF000000
FF000000
FF000000
FF000000
FF000000
FF000000
FF000000
FF000000
FF000000
FF000000
FF000000
FF000000
FF000000
FF000000
FF000000
FF000000
FF000000
FF000000
FF000000
FF000000
FF000000
FF000000
FF000000
FF000000
FF000000
FF000000
FF000000
FF000000
FF000000
FF000000
FF000000
FFFFFFFF
FFFFFFFF
FFFFFFFF
FFFFFFFF
FFFFFFFF
FFFFFFFF
FFFFFFFF
FFFFFFFF
ENDCHAR
STARTCHAR 006D
ENCODING 109
SWIDTH 866 0
DWIDTH 77 0
BBX 71 64 1 0
BITMAP
040000000000000000
0E0000003800000000
1F0000003C000001FE
1FC000003E000001FE
3FE000003F800001FE
7FF000003FC00001FE
FFFC00003FE00001FE
7FFE00003FF00001FE
1FFF00003FFC0001FE
0FFF80003FFE0001FE
07FFE0003FFF0001FE
03FFF0003FFFC001FE
03FFF8003FFFE001FE
03FFFC003FFFF001FE
03FFFF003FFFF801FE
03FFFF803FFFFE01FE
03FFFFC03FFFFF01FE
03FDFFF03FE7FF81FE
03FCFFF83FE3FFE1FE
03FC3FFC3FE1FFF1FE
03FC1FFE3FE07FF9FE
03FC0FFFBFE03FFDFE
03FC07FFFFE01FFFFE
03FC01FFFFE00FFFFE
03FC00FFFFE003FFFE
03FC007FFFE001FFFE
03FC001FFFE000FFFE
03FC000FFFE0007FFE
03FC0007FFE0001FFE
03FC0003FFE0000FFE
03FC0000FFE00007FE
03FC00007FE00003FE
03FC00003FE00001FE
03FC00003FE00001FE
03FC00003FE00001FE
03FC00003FE00001FE
03FC00003FE00001FE
03FC00003FE00001FE
03FC00003FE00001FE
03FC00003FE00001FE
03FC00003FE00001FE
03FC00003FE00001FE
03FC00003FE00001FE
03FC00003FE00001FE
03FC00003FE00001FE
03FC00003FE00001FE
03FC00003FE00001FE
03FC00003FE00001FE
03FC00003FE00001FE
03FC00003FE00001FE
03FC00003FE00001FE
03FC00003FE00001FE
03FC00003FE00001FE
03FC00003FE00001FE
03FC00003FE00001FE
03FC00003FE00001FE
03FC00003FE00001FE
03FC00003FE00001FE
03FC00003FE00001FE
03FC00003FE00001FE
03FC00003FE00001FE
03FC00003FE00001FE
03FC00003FE00001FE
03FC00003FE00001FE
ENDCHAR
STARTCHAR 006E
ENCODING 110
SWIDTH 517 0
DWIDTH 46 0
BBX 41 64 1 0
BITMAP
040000000000
0E0000000000
1F0000007F80
1FC000007F80
3FE000007F80
7FF000007F80
FFFC00007F80
7FFE00007F80
1FFF00007F80
0FFF80007F80
0FFFE0007F80
0FFFF0007F80
0FFFF8007F80
0FFFFE007F80
0FFFFF007F80
0FFFFF807F80
0FF7FFC07F80
0FF3FFF07F80
0FF0FFF87F80
0FF07FFC7F80
0FF03FFF7F80
0FF00FFFFF80
0FF007FFFF80
0FF003FFFF80
0FF001FFFF80
0FF0007FFF80
0FF0003FFF80
0FF0001FFF80
0FF0000FFF80
0FF00003FF80
0FF00001FF80
0FF00000FF80
0FF000007F80
0FF000007F80
0FF000007F80
0FF000007F80
0FF000007F80
0FF000007F80
0FF000007F80
0FF000007F80
0FF000007F80
0FF000007F80
0FF000007F80
0FF000007F80
0FF000007F80
0FF000007F80
0FF000007F80
0FF000007F80
0FF000007F80
0FF000007F80
0FF000007F80
0FF000007F80
0FF000007F80
0FF000007F80
0FF000007F80
0FF000007F80
0FF000007F80
0FF000007F80
0FF000007F80
0FF000007F80
0FF000007F80
0FF000007F80
0FF000007F80
0FF000007F80
ENDCHAR
STARTCHAR 006F
ENCODING 111
SWIDTH 810 0
DWIDTH 72 0
BBX 67 65 3 -1
BITMAP
00000000E000000000
000000FFFFC0000000
000007FFFFF8000000
00001FFFFFFF000000
00007FFFFFFFC00000
0001FFFFFFFFE00000
0007FFFFFFFFF80000
000FFFFFFFFFFC0000
001FFFFE0FFFFF0000
003FFF80007FFF8000
007FFE00000FFFC000
00FFF8000003FFE000
01FFE0000000FFF000
03FFC00000007FF000
07FF000000003FF800
07FE000000001FFC00
0FFC000000000FFC00
0FFC0000000007FE00
1FF80000000003FE00
1FF00000000003FF00
3FF00000000001FF00
3FE00000000000FF80
3FE00000000000FF80
7FC00000000000FF80
7FC000000000007FC0
7F8000000000007FC0
7F8000000000007FC0
FF8000000000003FC0
FF8000000000003FC0
FF8000000000003FC0
FF0000000000003FE0
FF0000000000003FE0
FF0000000000003FE0
FF0000000000003FE0
FF0000000000003FE0
FF0000000000003FC0
FF8000000000003FC0
FF8000000000003FC0
FF8000000000003FC0
7F8000000000007FC0
7F8000000000007FC0
7FC000000000007F80
7FC00000000000FF80
3FE00000000000FF80
3FE00000000001FF80
3FF00000000001FF00
1FF00000000003FF00
1FF80000000003FE00
0FFC0000000007FE00
0FFE000000000FFC00
07FF000000001FF800
03FF800000003FF800
03FFC00000007FF000
01FFE0000001FFE000
00FFF8000007FFC000
007FFE00001FFFC000
003FFFC0007FFF8000
001FFFFFFFFFFE0000
000FFFFFFFFFFC0000
0003FFFFFFFFF80000
0001FFFFFFFFE00000
00007FFFFFFF800000
00001FFFFFFE000000
000003FFFFF8000000
0000003FFF80000000
ENDCHAR
STARTCHAR 0070
ENCODING 112
SWIDTH 551 0
DWIDTH 49 0
BBX 46 62 2 0
BITMAP
07FFFFFC0000
07FFFFFFC000
07FFFFFFF000
07FFFFFFFC00
07FFFFFFFF00
07FFFFFFFF80
07FFFFFFFFC0
07FFFFFFFFE0
07F80003FFE0
07F800007FF0
07F800003FF0
07F800001FF8
07F800000FF8
07F8000007FC
07F8000007FC
07F8000007FC
07F8000003FC
07F8000003FC
07F8000003FC
07F8000003FC
07F8000003FC
07F8000003FC
07F8000007FC
07F8000007FC
07F800000FF8
07F800000FF8
07F800001FF8
07F800003FF0
07F80000FFF0
07F80003FFE0
07F801FFFFC0
FFFFFFFFFF80
FFFFFFFFFF00
FFFFFFFFFE00
FFFFFFFFFC00
FFFFFFFFF000
FFFFFFFF8000
FFFFFFFC0000
07F800000000
07F800000000
07F800000000
07F800000000
07F800000000
07F800000000
07F800000000
07F800000000
07F800000000
07F800000000
07F800000000
07F800000000
07F800000000
07F800000000
07F800000000
07F800000000
07F800000000
07F800000000
07F800000000
07F800000000
07F800000000
07F800000000
07F800000000
07F800000000
ENDCHAR
STARTCHAR 0071
ENCODING 113
SWIDTH 810 0
DWIDTH 72 0
BBX 67 66 3 -2
BITMAP
00000000E000000000
000000FFFFC0000000
000007FFFFF8000000
00001FFFFFFF000000
00007FFFFFFFC00000
0001FFFFFFFFE00000
0007FFFFFFFFF80000
000FFFFFFFFFFC0000
001FFFFE0FFFFF0000
003FFF80007FFF8000
007FFE00000FFFC000
00FFF8000003FFE000
01FFE0000000FFF000
03FFC00000007FF000
07FF000000003FF800
07FE000000001FFC00
0FFC000000000FFC00
0FFC0000000007FE00
1FF80000000003FE00
1FF00000000003FF00
3FF00000000001FF00
3FE00000000000FF80
3FE00000000000FF80
7FC00000000000FF80
7FC000000000007FC0
7F8000000000007FC0
7F8000000000007FC0
FF8000000000003FC0
FF8000000000003FC0
FF8000000000003FC0
FF0000000000003FE0
FF0000000000003FE0
FF0000000000003FE0
FF0000000000003FE0
FF0000000000003FE0
FF0000000000003FC0
FF8000000000003FC0
FF8000000000003FC0
FF8000000000003FC0
7F8000000000007FC0
7F8000000000007FC0
7FC000000000007F80
7FC00000000000FF80
3FE00000000600FF80
3FE00000000F01FF80
3FF00000001F81FF00
1FF00000003FC3FF00
1FF80000007FC3FE00
0FFC000000FFE7FE00
0FFE0000007FFFFC00
07FF0000003FFFFC00
03FF8000001FFFF800
03FFC000000FFFF000
01FFE0000007FFE000
00FFF8000003FFC000
007FFE00001FFFC000
003FFFC0007FFFE000
001FFFFFBFFFFFF000
000FFFFFFFFFFFF800
0003FFFFFFFFFFFC00
0001FFFFFFFFEFFE00
00007FFFFFFF87FC00
00001FFFFFFE03F800
000003FFFFF801F000
0000003FFF8000E000
000000000000004000
ENDCHAR
STARTCHAR 0072
ENCODING 114
SWIDTH 585 0
DWIDTH 52 0
BBX 47 62 2 0
BITMAP
03FFFFFF0000
03FFFFFFE000
03FFFFFFFC00
03FFFFFFFF00
03FFFFFFFF80
03FFFFFFFFC0
03FFFFFFFFE0
03FFFFFFFFF0
03FE0001FFF8
03FE00003FF8
03FE00001FFC
03FE00000FFC
03FE000007FC
03FE000003FE
03FE000003FE
03FE000003FE
03FE000001FE
03FE000001FE
03FE000001FE
03FE000001FE
03FE000001FE
03FE000003FE
03FE000003FE
03FE000003FC
03FE000007FC
03FE00000FFC
03FE00001FF8
03FE00003FF8
03FE0000FFF0
03FE003FFFF0
FFFFFFFFFFE0
FFFFFFFFFFC0
FFFFFFFFFF80
FFFFFFFFFE00
FFFFFFFFFC00
FFFFFFFFFC00
FFFFFFFFFE00
03FE007FFF00
03FE0007FF80
03FE0001FF80
03FE0000FFC0
03FE00007FC0
03FE00007FE0
03FE00003FE0
03FE00003FE0
03FE00001FF0
03FE00001FF0
03FE00001FF0
03FE00000FF0
03FE00000FF0
03FE00000FF0
03FE00000FF0
03FE00000FF8
03FE00000FF8
03FE00000FF8
03FE00000FF8
03FE00000FF8
03FE00000FF8
03FE00000FF8
03FE00000FF8
03FE00000FF8
03FE00000FF8
ENDCHAR
STARTCHAR 0073
ENCODING 115
SWIDTH 483 0
DWIDTH 43 0
BBX 38 65 3 -1
BITMAP
0000780000
000FFFC000
003FFFF000
00FFFFFC00
01FFFFFE00
03FFFFFF00
07FFFFFF80
0FFFFFFFC0
0FFF87FFC0
0FFC00FFE0
1FF8007FE0
1FF0003FF0
1FF0001FF0
3FE0000FF0
3FE0000FF8
3FE0000FF8
3FE00007E0
3FE0000600
1FE0000000
1FF0000000
1FF0000000
1FF8000000
0FFC000000
0FFE000000
07FF800000
03FFC00000
01FFF00000
00FFFC0000
007FFE0000
003FFF8000
000FFFE000
0007FFF000
0001FFFC00
0000FFFE00
00003FFF00
00000FFF80
000007FFC0
000001FFE0
000000FFF0
0000007FF0
0000003FF8
0000001FF8
0000000FFC
00000007FC
00000007FC
00000003FC
01000003FC
1F000003FC
FF000003FC
FF000003FC
FF800007FC
FF800007FC
7FC00007FC
7FE0000FF8
7FF0001FF8
3FF8003FF8
1FFE00FFF0
1FFFFFFFF0
0FFFFFFFE0
07FFFFFFC0
03FFFFFF80
01FFFFFF00
007FFFFE00
001FFFF800
0003FFC000
ENDCHAR
STARTCHAR 0074
ENCODING 116
SWIDTH 495 0
DWIDTH 44 0
BBX 41 62 2 0
BITMAP
FFFFFFFFFF80
FFFFFFFFFF80
FFFFFFFFFF80
FFFFFFFFFF80
FFFFFFFFFF80
FFFFFFFFFF80
FFFFFFFFFF80
FFFFFFFFFF80
0000FF800000
0000FF800000
0000FF800000
0000FF800000
0000FF800000
0000FF800000
0000FF800000
0000FF800000
0000FF800000
0000FF800000
0000FF800000
0000FF800000
0000FF800000
0000FF800000
0000FF800000
0000FF800000
0000FF800000
0000FF800000
0000FF800000
0000FF800000
0000FF800000
0000FF800000
0000FF800000
0000FF800000
0000FF800000
0000FF800000
0000FF800000
0000FF800000
0000FF800000
0000FF800000
0000FF800000
0000FF800000
0000FF800000
0000FF800000
0000FF800000
0000FF800000
0000FF800000
0000FF800000
0000FF800000
0000FF800000
0000FF800000
0000FF800000
0000FF800000
0000FF800000
0000FF800000
0000FF800000
0000FF800000
0000FF800000
0000FF800000
0000FF800000
0000FF800000
0000FF800000
0000FF800000
0000FF800000
ENDCHAR
STARTCHAR 0075
ENCODING 117
SWIDTH 506 0
DWIDTH 45 0
BBX 37 63 4 -1
BITMAP
FF000007F8
FF000007F8
FF000007F8
FF000007F8
FF000007F8
FF000007F8
FF000007F8
FF000007F8
FF000007F8
FF000007F8
FF000007F8
FF000007F8
FF000007F8
FF000007F8
FF000007F8
FF000007F8
FF000007F8
FF000007F8
FF000007F8
FF000007F8
FF000007F8
FF000007F8
FF000007F8
FF000007F8
FF000007F8
FF000007F8
FF000007F8
FF000007F8
FF000007F8
FF000007F8
FF000007F8
FF000007F8
FF000007F8
FF000007F8
FF000007F8
FF000007F8
FF000007F8
FF000007F8
FF000007F8
FF000007F8
FF000007F8
FF000007F8
FF000007F8
FF000007F8
FF000007F8
FF800007F8
FF800007F8
FF80000FF8
7F80000FF8
7FC0000FF0
7FC0001FF0
7FE0001FF0
3FE0003FE0
3FF0007FE0
1FFC01FFC0
1FFFDFFFC0
0FFFFFFF80
07FFFFFF00
03FFFFFE00
01FFFFFC00
00FFFFF800
003FFFE000
0007FF8000
ENDCHAR
STARTCHAR 0076
ENCODING 118
SWIDTH 461 0
DWIDTH 41 0
BBX 36 62 1 0
BITMAP
FF00000FF0
FF00000FF0
FF00000FF0
FF00000FF0
FF00000FF0
FF00000FF0
FF00000FF0
FF00000FF0
FF00000FF0
FF00000FF0
FF00000FF0
FF00000FF0
FF00000FF0
FF00000FF0
FF00000FF0
FF00000FF0
FF00000FF0
FF00000FF0
FF00000FF0
FF00000FF0
FF00000FF0
FF00000FF0
FF00000FF0
FF00000FF0
FF00000FF0
FF00000FF0
FF00000FF0
FF00000FF0
FF00000FF0
FF00000FF0
FF00000FF0
FF80000FF0
FF80001FF0
FF80001FF0
FF80001FF0
FF80001FF0
7F80001FF0
7F80001FE0
7F80001FE0
7FC0001FE0
7FC0003FE0
7FC0003FE0
3FC0003FE0
3FE0003FC0
3FE0007FC0
3FE0007FC0
1FF0007F80
1FF000FF80
1FF000FF80
0FF801FF00
0FFC01FF00
07FC03FE00
07FE07FE00
03FE07FC00
01FF0FF800
01FF9FF800
00FFFFF000
007FFFE000
003FFFC000
001FFF8000
000FFF0000
0007FE0000
ENDCHAR
STARTCHAR 0077
ENCODING 119
SWIDTH 776 0
DWIDTH 69 0
BBX 64 62 1 0
BITMAP
FF00000FF00000FF
FF00000FF00000FF
FF00000FF00000FF
FF00000FF00000FF
FF00000FF00000FF
FF00000FF00000FF
FF00000FF00000FF
FF00000FF00000FF
FF00000FF00000FF
FF00000FF00000FF
FF00000FF00000FF
FF00000FF00000FF
FF00000FF00000FF
FF00000FF00000FF
FF00000FF00000FF
FF00000FF00000FF
FF00000FF00000FF
FF00000FF00000FF
FF00000FF00000FF
FF00000FF00000FF
FF00000FF00000FF
FF00000FF00000FF
FF00000FF00000FF
FF00000FF00000FF
FF00000FF00000FF
FF00000FF00000FF
FF00000FF00000FF
FF00000FF00000FF
FF00000FF00000FF
FF00000FF00000FF
FF00000FF00000FF
FF80000FF00001FF
FF80001FF80001FF
FF80001FF80001FF
FF80001FF80001FF
FF80001FF80001FF
7F80001FF80001FE
7F80001FF80001FE
7F80001FF80001FE
7FC0001FF80003FE
7FC0003FFC0003FE
7FC0003FFC0003FE
3FC0003FFC0003FC
3FE0003FFC0007FC
3FE0007FFE0007FC
3FE0007FFE0007FC
1FF0007FFF000FF8
1FF000FFFF000FF8
1FF000FFFF000FF8
0FF801FFFF801FF0
0FFC01FFFF803FF0
07FC03FE7FC03FE0
07FE07FE7FE07FE0
03FE07FC3FE07FC0
01FF0FF81FF0FF80
01FF9FF81FF9FF80
00FFFFF00FFBFF00
007FFFE007FFFE00
003FFFC003FFFC00
001FFF8001FFF800
000FFF0000FFF000
0007FE00007FE000
ENDCHAR
STARTCHAR 0078
ENCODING 120
SWIDTH 517 0
DWIDTH 46 0
BBX 38 62 4 0
BITMAP
FF800007FC
FF800007FC
FF800007FC
FF800007FC
FF800007FC
FF800007FC
FF800007FC
FF800007FC
FF800007FC
FF800007FC
FF800007FC
FF800007FC
FF800007FC
FF800007FC
7F800007F8
7F800007F8
7FC0000FF8
7FC0000FF8
3FE0001FF8
3FE0001FF0
3FF0003FF0
1FF8007FE0
1FFF01FFE0
0FFFFFFFC0
07FFFFFF80
03FFFFFF00
01FFFFFE00
01FFFFFE00
03FFFFFF00
07FFFFFF80
0FFFFFFFC0
1FFE01FFE0
1FF8007FE0
3FF0003FF0
3FE0001FF0
3FE0001FF8
7FC0000FF8
7FC0000FF8
7F800007F8
7F800007F8
FF800007FC
FF800007FC
FF800007FC
FF800007FC
FF800007FC
FF800007FC
FF800007FC
FF800007FC
FF800007FC
FF800007FC
FF800007FC
FF800007FC
FF800007FC
FF800007FC
FF800007FC
FF800007FC
FF800007FC
FF800007FC
FF800007FC
FF800007FC
FF800007FC
FF800007FC
ENDCHAR
STARTCHAR 0079
ENCODING 121
SWIDTH 495 0
DWIDTH 44 0
BBX 38 62 3 0
BITMAP
FF800003FC
FF800003FC
FF800003FC
FF800003FC
FF800003FC
FF800003FC
FF800003FC
FF800003FC
FF800003FC
FF800003FC
FF800003FC
FF800003FC
FF800003FC
FF800003FC
FF800003FC
FF800003FC
FF800003FC
FF800003FC
FF800003FC
FF800003FC
FF800003FC
FF800003FC
FF800003FC
FF800003FC
FF800003FC
FF800003FC
FF800003FC
FF800007FC
FF800007FC
7F800007FC
7F800007FC
7F800007FC
7FC00007F8
7FC0000FF8
3FE0000FF8
3FE0001FF0
3FF0003FF0
1FF8007FF0
1FFC00FFE0
0FFFCFFFC0
07FFFFFFC0
07FFFFFF80
03FFFFFF00
01FFFFFE00
007FFFFC00
001FFFF000
0007FF8000
0001FE0000
0001FE0000
0001FE0000
0001FE0000
0001FE0000
0001FE0000
0001FE0000
0001FE0000
0001FE0000
0001FE0000
0001FE0000
0001FE0000
0001FE0000
0001FE0000
0001FE0000
ENDCHAR
STARTCHAR 007A
ENCODING 122
SWIDTH 506 0
DWIDTH 45 0
BBX 41 62 2 0
BITMAP
FFFFFFFFFF80
FFFFFFFFFF80
FFFFFFFFFF80
FFFFFFFFFF80
FFFFFFFFFF80
FFFFFFFFFF00
FFFFFFFFFE00
FFFFFFFFFE00
00000007FC00
0000000FFC00
0000000FF800
0000001FF000
0000001FF000
0000003FE000
0000007FE000
0000007FC000
000000FF8000
000000FF8000
000001FF0000
000003FF0000
000003FE0000
000007FC0000
000007FC0000
00000FF80000
00001FF80000
00001FF00000
00003FF00000
00003FE00000
00007FC00000
0000FFC00000
0000FF800000
0001FF800000
0001FF000000
0003FE000000
0007FE000000
0007FC000000
000FFC000000
000FF8000000
001FF0000000
003FF0000000
003FE0000000
007FE0000000
007FC0000000
00FF80000000
01FF80000000
01FF00000000
03FF00000000
03FE00000000
07FC00000000
0FFC00000000
0FF800000000
1FF800000000
1FF000000000
3FE000000000
7FFFFFFFFE00
7FFFFFFFFE00
FFFFFFFFFE00
FFFFFFFFFE00
FFFFFFFFFE00
FFFFFFFFFE00
FFFFFFFFFE00
FFFFFFFFFE00
ENDCHAR
STARTCHAR 007B
ENCODING 123
SWIDTH 337 0
DWIDTH 30 0
BBX 21 85 5 -13
BITMAP
000FF8
003FF8
007FF8
00FFF8
00FFF8
01FFF8
01FC00
01FC00
01F800
01F800
01F800
01F800
01F800
01F800
01F800
01F800
01F800
01F800
01F800
01F800
01F800
01F800
01F800
01F800
01F800
01F800
01F800
01F800
01F800
01F800
01F800
03F800
03F800
03F800
03F000
07F000
0FF000
1FE000
FFE000
FFC000
FF8000
FF0000
FF0000
FF8000
FFC000
FFE000
1FE000
0FF000
07F000
03F000
03F800
03F800
03F800
03F800
01F800
01F800
01F800
01F800
01F800
01F800
01F800
01F800
01F800
01F800
01F800
01F800
01F800
01F800
01F800
01F800
01F800
01F800
01F800
01F800
01F800
01F800
01F800
01FC00
01FFF8
00FFF8
00FFF8
007FF8
003FF8
001FF8
0003F8
ENDCHAR
STARTCHAR 007C
ENCODING 124
SWIDTH 157 0
DWIDTH 14 0
BBX 5 72 5 -9
BITMAP
F8
F8
F8
F8
F8
F8
F8
F8
F8
F8
F8
F8
F8
F8
F8
F8
F8
F8
F8
F8
F8
F8
F8
F8
F8
F8
F8
F8
F8
F8
F8
F8
F8
F8
F8
F8
F8
F8
F8
F8
F8
F8
F8
F8
F8
F8
F8
F8
F8
F8
F8
F8
F8
F8
F8
F8
F8
F8
F8
F8
F8
F8
F8
F8
F8
F8
F8
F8
F8
F8
F8
F8
ENDCHAR
STARTCHAR 007D
ENCODING 125
SWIDTH 337 0
DWIDTH 30 0
BBX 21 85 5 -13
BITMAP
FF8000
FFC000
FFE000
FFF000
FFF800
FFF800
03F800
01F800
01FC00
01FC00
01FC00
01FC00
01FC00
01FC00
01FC00
01FC00
01FC00
01FC00
01FC00
01FC00
01FC00
01FC00
01FC00
01FC00
01FC00
01FC00
01FC00
01FC00
01FC00
01FC00
01FC00
01FC00
00FC00
00FC00
00FE00
00FE00
007F00
007F80
003FF8
003FF8
001FF8
000FF8
000FF8
001FF8
003FF8
003FF0
007F80
007F00
00FE00
00FE00
00FC00
00FC00
01FC00
01FC00
01FC00
01FC00
01FC00
01FC00
01FC00
01FC00
01FC00
01FC00
01FC00
01FC00
01FC00
01FC00
01FC00
01FC00
01FC00
01FC00
01FC00
01FC00
01FC00
01FC00
01FC00
01FC00
01FC00
03F800
FFF800
FFF800
FFF000
FFE000
FFC000
FF8000
F80000
ENDCHAR
STARTCHAR 007E
ENCODING 126
SWIDTH 540 0
DWIDTH 48 0
BBX 39 10 5 24
BITMAP
07E0000000
7FFF800000
FFFFFC0006
FFFFFFF1FE
FFFFFFFFFE
FFFFFFFFFE
FFFFFFFFFE
F00FFFFFFE
00007FFFFE
000003FFF0
ENDCHAR
STARTCHAR 00A1
ENCODING 161
SWIDTH 247 0
DWIDTH 22 0
BBX 13 64 5 -10
BITMAP
0200
1FC0
7FE0
7FF0
FFF0
FFF8
FFF8
FFF8
FFF8
FFF0
7FF0
3FE0
1FC0
0000
0000
0000
0000
0000
0000
0000
0000
0000
0000
3FC0
3FC0
3FC0
3FC0
3FC0
3FC0
3FC0
3FC0
3FC0
3FC0
3FC0
3FC0
3FC0
3FC0
3FC0
3FC0
3FC0
3FC0
3FC0
3FC0
3FC0
3FC0
3FC0
3FC0
3FC0
3FC0
3FC0
3FC0
3FC0
3FC0
3FC0
3FC0
3FC0
3FC0
3FC0
3FC0
3FC0
3FC0
3FC0
3FC0
3FC0
ENDCHAR
STARTCHAR 00A2
ENCODING 162
SWIDTH 517 0
DWIDTH 46 0
BBX 36 54 5 4
BITMAP
00007E0000
00007E0000
00007E0000
00007E0000
00007E0000
00007E0000
0003FFE000
000FFFFC00
003FFFFF00
00FFFFFF80
01FFFFFFC0
03FFFFFFE0
07FFFEFFF0
0FFE7E3FF0
1FF87E0FE0
1FF07E03C0
3FE07E0180
3FC07E0000
7F807E0000
7F007E0000
7F007E0000
FF007E0000
FE007E0000
FE007E0000
FE007E0000
FE007E0000
FE007E0000
FE007E0000
FE007E0000
FE007E0000
FE007E0000
FE007E0000
FF007E0000
7F007E0000
7F807E0000
7F807E0000
3FC07E0000
3FE07E0180
1FF07E07C0
0FF87E0FE0
0FFE7E3FF0
07FFFFFFF0
03FFFFFFE0
01FFFFFFC0
007FFFFF80
003FFFFE00
000FFFF800
0001FFC000
00007E0000
00007E0000
00007E0000
00007E0000
00007E0000
00007E0000
ENDCHAR
STARTCHAR 00A3
ENCODING 163
SWIDTH 540 0
DWIDTH 48 0
BBX 38 63 5 0
BITMAP
000007FFC0
00007FFFF8
0001FFFFFC
0007FFFFFC
000FFFFFFC
001FFFFFFC
007FFFFFFC
007FFFFFFC
00FFFE007C
01FFF0000C
01FFC00000
03FF800000
03FF000000
03FE000000
07FE000000
07FC000000
07FC000000
07FC000000
07FC000000
07FC000000
07FC000000
07FC000000
07FC000000
07FC000000
03FC000000
03FE000000
03FE000000
03FE000000
01FF000000
FFFFFFFFC0
FFFFFFFFC0
FFFFFFFFC0
FFFFFFFFC0
FFFFFFFFC0
FFFFFFFFC0
003FC00000
003FE00000
003FE00000
001FE00000
001FF00000
001FF00000
001FF00000
000FF00000
000FF00000
000FF00000
000FF00000
000FF00000
000FF00000
001FF00000
001FF00000
003FF00000
007FE00000
00FFE00000
03FFC00000
1FFF800000
FFFF000000
FFFFFFFFFC
FFFFFFFFFC
FFFFFFFFFC
FFFFFFFFFC
FFFFFFFFFC
FFFFFFFFFC
FFFFFFFFFC
ENDCHAR
STARTCHAR 00A4
ENCODING 164
SWIDTH 573 0
DWIDTH 51 0
BBX 41 41 5 8
BITMAP
180000000C00
3C0000001E00
7E0000003F00
FF01FFC07F80
FF8FFFF8FF80
7FDFFFFDFF00
3FFFFFFFFE00
1FFFFFFFFC00
0FFFE3FFF800
07FE003FF000
07F8000FF000
07F00007F000
0FE00003F800
0FC00001F800
1FC00001FC00
1F800000FC00
1F800000FC00
1F800000FC00
3F0000007E00
3F0000007E00
3F0000007E00
3F0000007E00
3F0000007E00
1F800000FC00
1F800000FC00
1F800000FC00
1FC00001FC00
0FC00001F800
0FE00003F800
07F00007F000
07F8000FF000
07FE003FF000
0FFFE3FFF800
1FFFFFFFFC00
3FFFFFFFFE00
7FDFFFFFFF00
FF8FFFF8FF80
7F01FFC07F80
3E0000003F00
1C0000001E00
080000000C00
ENDCHAR
STARTCHAR 00A5
ENCODING 165
SWIDTH 630 0
DWIDTH 56 0
BBX 47 62 5 0
BITMAP
FFC0000007FE
7FC0000007FC
7FE000000FFC
3FE000000FF8
3FF000001FF8
1FF000001FF0
1FF800003FF0
0FF800003FE0
0FFC00007FE0
07FC00007FC0
07FE00007FC0
03FE0000FF80
03FF0000FF80
01FF0001FF00
01FF8001FF00
00FF8003FE00
00FFC003FE00
007FC007FC00
007FE007FC00
003FF00FF800
003FF00FF000
001FF81FF000
001FF81FE000
000FFC3FE000
000FFC3FC000
0007FE7FC000
0003FE7F8000
0003FFFF8000
0001FFFF0000
0001FFFF0000
0000FFFE0000
0000FFFE0000
03FFFFFFFF80
03FFFFFFFF80
03FFFFFFFF80
03FFFFFFFF80
03FFFFFFFF80
03FFFFFFFF80
00001FF00000
00001FF00000
00001FF00000
00001FF00000
00001FF00000
03FFFFFFFF80
03FFFFFFFF80
03FFFFFFFF80
03FFFFFFFF80
03FFFFFFFF80
03FFFFFFFF80
00001FF00000
00001FF00000
00001FF00000
00001FF00000
00001FF00000
00001FF00000
00001FF00000
00001FF00000
00001FF00000
00001FF00000
00001FF00000
00001FF00000
00001FF00000
ENDCHAR
STARTCHAR 00A6
ENCODING 166
SWIDTH 157 0
DWIDTH 14 0
BBX 5 72 5 -9
BITMAP
F8
F8
F8
F8
F8
F8
F8
F8
F8
F8
F8
F8
F8
F8
F8
F8
F8
F8
F8
F8
F8
F8
F8
F8
F8
F8
F8
F8
00
00
00
00
00
00
00
00
00
00
00
00
00
00
00
00
00
F8
F8
F8
F8
F8
F8
F8
F8
F8
F8
F8
F8
F8
F8
F8
F8
F8
F8
F8
F8
F8
F8
F8
F8
F8
F8
F8
ENDCHAR
STARTCHAR 00A7
ENCODING 167
SWIDTH 472 0
DWIDTH 42 0
BBX 32 73 5 -10
BITMAP
001FF800
007FFF00
01FFFFC0
03FFFFE0
07FFFFF0
0FFFFFF8
0FFFFFF8
1FFF7FFC
1FF807FC
1FF003FE
3FE001FE
3FE001FF
3FC001FF
3FE000FC
1FE000E0
1FE00000
1FF00000
0FF80000
0FFE0000
07FF0000
03FFC000
01FFF000
00FFF800
003FFE00
001FFF80
00FFFFC0
03FFFFE0
07FFFFF0
1FFFFFF8
3FFFFFFC
3FE00FFE
7FC003FE
7F8001FF
FF0000FF
FF0000FF
FF00007F
FF00007F
FF00007F
FF00007F
FF8000FF
7FC001FF
7FE003FE
3FF807FE
1FFFFFFC
0FFFFFF8
07FFFFF0
03FFFFC0
01FFFF00
007FF800
001FFE00
000FFF00
0003FF80
0000FFC0
00007FE0
00001FF0
00000FF8
000007F8
000007FC
070003FC
3F8003FC
7F8003FC
7F8003FC
7FC007FC
3FE007FC
3FF00FFC
1FFFFFF8
1FFFFFF8
0FFFFFF0
07FFFFE0
03FFFFC0
01FFFF80
007FFE00
000FF800
ENDCHAR
STARTCHAR 00A8
ENCODING 168
SWIDTH 360 0
DWIDTH 32 0
BBX 33 13 0 66
BITMAP
0FC001FC00
3FF003FE00
7FF807FF00
7FF807FF80
7FF80FFF80
FFFC0FFF80
FFFC0FFF80
7FF80FFF80
7FF807FF80
7FF807FF00
3FF003FF00
1FE001FC00
0200000000
ENDCHAR
STARTCHAR 00A9
ENCODING 169
SWIDTH 843 0
DWIDTH 75 0
BBX 66 65 5 -1
BITMAP
00000003F000000000
000000FFFFC0000000
00000FFFFFF8000000
00003FFFFFFE000000
0000FFFFFFFF800000
0003FFE001FFE00000
0007FE00001FF80000
000FF0000007FC0000
003FC0000001FE0000
007F800000007F0000
00FE000000003F8000
01FC000000001FC000
01F8000000000FE000
03F00000000007E000
07E00000000003F000
07C00000000001F800
0FC0001FFE0000F800
1F80007FFF8000FC00
1F0001FFFFC0007C00
3F0003FFFFF0007E00
3E0007FFFFF8003E00
3E000FFE3FFC003F00
7E001FF003F8001F00
7C003FC001F0001F00
7C003F8000C0001F80
FC007F000000000F80
F8007E000000000F80
F800FE000000000F80
F800FC000000000F80
F800FC000000000FC0
F800FC000000000FC0
F800FC0000000007C0
F800FC0000000007C0
F800FC0000000007C0
F800FC0000000007C0
F800FC000000000FC0
F800FC000000000F80
F800FC000000000F80
F8007E000000000F80
F8007E000000000F80
7C007F000040000F80
7C003F8000E0001F80
7C003FC001F0001F00
7E001FF007F8001F00
3E000FFFFFF8003F00
3F0007FFFFF8003E00
1F0003FFFFE0007E00
1F8000FFFFC0007C00
1F80007FFF0000FC00
0FC0000FFC0001F800
07E00000000001F800
07F00000000003F000
03F00000000007E000
01F8000000000FE000
00FE000000001FC000
007F000000003F8000
003F80000000FF0000
001FE0000003FE0000
000FF800000FFC0000
0007FF00003FF00000
0001FFF807FFE00000
0000FFFFFFFF800000
00001FFFFFFE000000
000007FFFFF8000000
0000007FFF80000000
ENDCHAR
STARTCHAR 00AB
ENCODING 171
SWIDTH 540 0
DWIDTH 48 0
BBX 39 39 5 8
BITMAP
0001FE01FE
0003FC03FE
0007F803FC
000FF807F8
000FF00FF0
001FE01FF0
003FC01FE0
007F803FC0
007F807F80
00FF00FF00
01FE00FF00
03FC01FE00
03FC03FC00
07F807F800
0FF007F800
1FE00FF000
1FE01FE000
3FC03FC000
7F803FC000
FF007F8000
FF807F8000
7FC03FC000
3FC01FE000
1FE01FF000
0FF00FF000
0FF807F800
07F803FC00
03FC03FE00
01FE01FE00
01FF00FF00
00FF007F80
007F807FC0
003FC03FC0
003FE01FE0
001FE00FF0
000FF007F8
0007F807F8
0003FC03FC
0003FC01FE
ENDCHAR
STARTCHAR 00AC
ENCODING 172
SWIDTH 551 0
DWIDTH 49 0
BBX 40 23 5 10
BITMAP
FFFFFFFFFF
FFFFFFFFFF
FFFFFFFFFF
FFFFFFFFFF
FFFFFFFFFF
FFFFFFFFFF
FFFFFFFFFF
000000007F
000000007F
000000007F
000000007F
000000007F
000000007F
000000007F
000000007F
000000007F
000000007F
000000007F
000000007F
000000007F
000000007F
000000007F
000000007F
ENDCHAR
STARTCHAR 00AE
ENCODING 174
SWIDTH 495 0
DWIDTH 44 0
BBX 35 34 5 30
BITMAP
0007FC0000
003FFF8000
00FFFFE000
03FC0FF000
07E001F800
0F80007C00
1F00001E00
1E00000F00
3C0FFC0F00
780FFE0780
780FFF03C0
700E0F03C0
F00E0781C0
F00E0781C0
E00E0781E0
E00E0F01E0
E07FFF01E0
E07FFC01E0
E07FFC01E0
E00E3E01E0
F00E0F01E0
F00E0F01C0
F00E0F03C0
780E0F03C0
780E0F0780
3C0E0F0780
3E00000F00
1F00001F00
0F80003E00
07C000FC00
03F803F800
01FFFFE000
007FFFC000
000FFE0000
ENDCHAR
STARTCHAR 00AF
ENCODING 175
SWIDTH 270 0
DWIDTH 24 0
BBX 25 7 0 70
BITMAP
FFFFFF80
FFFFFF80
FFFFFF80
FFFFFF80
FFFFFF80
FFFFFF80
FFFFFF80
ENDCHAR
STARTCHAR 00B0
ENCODING 176
SWIDTH 326 0
DWIDTH 29 0
BBX 20 20 5 43
BITMAP
03FC00
0FFF00
1FFF80
3FFFC0
7E0FE0
7C03E0
F801F0
F001F0
F000F0
F000F0
F000F0
F000F0
F801F0
F801F0
7C03E0
7F1FC0
3FFFC0
1FFF80
07FE00
01F800
ENDCHAR
STARTCHAR 00B1
ENCODING 177
SWIDTH 551 0
DWIDTH 49 0
BBX 40 37 5 9
BITMAP
0000FE0000
0000FE0000
0000FE0000
0000FE0000
0000FE0000
0000FE0000
0000FE0000
0000FE0000
0000FE0000
0000FE0000
FFFFFFFFFF
FFFFFFFFFF
FFFFFFFFFF
FFFFFFFFFF
FFFFFFFFFF
FFFFFFFFFF
0000FE0000
0000FE0000
0000FE0000
0000FE0000
0000FE0000
0000FE0000
0000FE0000
0000FE0000
0000FE0000
0000FE0000
0000000000
0000000000
0000000000
0000000000
0000000000
FFFFFFFFFF
FFFFFFFFFF
FFFFFFFFFF
FFFFFFFFFF
FFFFFFFFFF
FFFFFFFFFF
ENDCHAR
STARTCHAR 00B4
ENCODING 180
SWIDTH 146 0
DWIDTH 13 0
BBX 13 12 0 67
BITMAP
03F8
03F8
07F0
07E0
0FC0
0FC0
1F80
3F00
3E00
7E00
7C00
F800
ENDCHAR
STARTCHAR 00B6
ENCODING 182
SWIDTH 472 0
DWIDTH 42 0
BBX 33 72 5 -9
BITMAP
0001FC0F80
001FFC0F80
007FFC0F80
01FFFC0F80
03FFFC0F80
07FFFC0F80
0FFFFC0F80
1FFFFC0F80
3FFFFC0F80
3FFFFC0F80
7FFFFC0F80
7FFFFC0F80
FFFFFC0F80
FFFFFC0F80
FFFFFC0F80
FFFFFC0F80
FFFFFC0F80
FFFFFC0F80
FFFFFC0F80
FFFFFC0F80
FFFFFC0F80
FFFFFC0F80
FFFFFC0F80
7FFFFC0F80
7FFFFC0F80
3FFFFC0F80
3FFFFC0F80
1FFFFC0F80
0FFFFC0F80
0FFFFC0F80
07FFFC0F80
01FFFC0F80
00FFFC0F80
003FFC0F80
0007FC0F80
00007C0F80
00007C0F80
00007C0F80
00007C0F80
00007C0F80
00007C0F80
00007C0F80
00007C0F80
00007C0F80
00007C0F80
00007C0F80
00007C0F80
00007C0F80
00007C0F80
00007C0F80
00007C0F80
00007C0F80
00007C0F80
00007C0F80
00007C0F80
00007C0F80
00007C0F80
00007C0F80
00007C0F80
00007C0F80
00007C0F80
00007C0F80
00007C0F80
00007C0F80
00007C0F80
00007C0F80
00007C0F80
00007C0F80
00007C0F80
00007C0F80
00007C0F80
00007C0F80
ENDCHAR
STARTCHAR 00B7
ENCODING 183
SWIDTH 247 0
DWIDTH 22 0
BBX 13 13 5 17
BITMAP
0200
1FC0
7FE0
7FF0
FFF0
FFF8
FFF8
FFF8
FFF8
FFF0
7FF0
3FE0
1FC0
ENDCHAR
STARTCHAR 00B8
ENCODING 184
SWIDTH 213 0
DWIDTH 19 0
BBX 19 19 0 -19
BITMAP
003C00
007C00
00F800
00FC00
00FF00
00FF80
000FC0
0003C0
0003E0
0001E0
1001E0
3801E0
7803E0
FE07E0
7FFFC0
3FFFC0
1FFF80
0FFF00
01FC00
ENDCHAR
STARTCHAR 00BB
ENCODING 187
SWIDTH 540 0
DWIDTH 48 0
BBX 39 39 5 8
BITMAP
FF00FF8000
7F807F8000
7FC03FC000
3FC01FE000
1FE01FF000
0FF00FF000
0FF807F800
07F803FC00
03FC03FE00
01FE01FE00
01FF00FF00
00FF007F80
007F807FC0
003FC03FC0
003FE01FE0
001FE00FF0
000FF007F8
0007F807F8
0007FC03FC
0003FC01FE
0003FC01FE
0007FC03FC
0007F807F8
000FF00FF8
001FE00FF0
003FC01FE0
003FC03FC0
007F807F80
00FF007F80
01FE00FF00
01FE01FE00
03FC03FC00
07F803FC00
0FF007F800
1FE00FF000
1FE01FE000
3FC03FC000
7F803FC000
FF007F8000
ENDCHAR
STARTCHAR 00BF
ENCODING 191
SWIDTH 427 0
DWIDTH 38 0
BBX 28 64 5 -10
BITMAP
000FE000
001FF000
003FF800
003FFC00
007FFC00
007FFC00
007FFC00
007FFC00
003FFC00
003FF800
001FF800
000FF000
00038000
00000000
00000000
00000000
00000000
00000000
00000000
00000000
00000000
000FE000
000FE000
000FE000
000FE000
000FE000
000FE000
001FE000
001FE000
001FE000
003FC000
003FC000
007F8000
007F8000
00FF8000
00FF0000
01FE0000
03FE0000
07FC0000
07F80000
0FF80000
1FF00000
1FE00000
3FC00000
7FC00000
7F800000
7F800000
FF000000
FF000000
FF000000
FF000780
FF0007E0
FF0007F0
FF000FF0
FF801FF0
FFC03FE0
7FF0FFE0
7FFFFFC0
3FFFFF80
1FFFFF00
0FFFFE00
07FFFC00
01FFF000
003FC000
ENDCHAR
STARTCHAR 00C0
ENCODING 192
SWIDTH 551 0
DWIDTH 49 0
BBX 44 79 4 0
BITMAP
003F80000000
001FC0000000
000FC0000000
000FE0000000
0007E0000000
0003F0000000
0003F8000000
0001F8000000
0000FC000000
00007C000000
00007E000000
00003E000000
000000000000
000000000000
000000000000
000018000000
0007FFC00000
003FFFF00000
007FFFFC0000
01FFFFFE0000
03FFFFFF0000
07FFFFFF8000
07FFFFFFC000
0FFF83FFE000
1FFC00FFE000
1FF8003FF000
3FF0001FF000
3FE0001FF800
3FE0000FF800
7FC0000FF800
7FC00007F800
7F800007FC00
7F800007FC00
7F800007FC00
7F800007FC00
FF800003FC00
FF800003FC00
FF800003FC00
FF800003FC00
FF800003FC00
FF800003FC00
FF800003FC00
FF800003FC00
FF800003FC00
FF800003FC00
FF800003FC00
FF800003FC00
FF800003FC00
FF800003FC00
FF800003FC00
FF800003FC00
FF800003FC00
FF800003FC00
FF800003FC00
FF800003FC00
FF800003FC00
FF800003FC00
FF800003FC00
FF800003FC00
FF800003FC00
FF800003FC00
FF800003FC00
FF800003FC00
FF800003FC00
FF800003FC00
FF800003FC00
FF800003FC00
FF800003FC00
FF800003FC00
FF800003FC00
FF800003FC00
FFFFFFFFFFF0
FFFFFFFFFFF0
FFFFFFFFFFF0
FFFFFFFFFFF0
FFFFFFFFFFF0
FFFFFFFFFFF0
FFFFFFFFFFF0
FFFFFFFFFFF0
ENDCHAR
STARTCHAR 00C1
ENCODING 193
SWIDTH 551 0
DWIDTH 49 0
BBX 44 79 4 0
BITMAP
000007F00000
000007F00000
00000FE00000
00000FC00000
00001F800000
00003F800000
00003F000000
00007E000000
00007C000000
0000FC000000
0000F8000000
0001F0000000
000000000000
000000000000
000000000000
000018000000
0007FFC00000
003FFFF00000
007FFFFC0000
01FFFFFE0000
03FFFFFF0000
07FFFFFF8000
07FFFFFFC000
0FFF83FFE000
1FFC00FFE000
1FF8003FF000
3FF0001FF000
3FE0001FF800
3FE0000FF800
7FC0000FF800
7FC00007F800
7F800007FC00
7F800007FC00
7F800007FC00
7F800007FC00
FF800003FC00
FF800003FC00
FF800003FC00
FF800003FC00
FF800003FC00
FF800003FC00
FF800003FC00
FF800003FC00
FF800003FC00
FF800003FC00
FF800003FC00
FF800003FC00
FF800003FC00
FF800003FC00
FF800003FC00
FF800003FC00
FF800003FC00
FF800003FC00
FF800003FC00
FF800003FC00
FF800003FC00
FF800003FC00
FF800003FC00
FF800003FC00
FF800003FC00
FF800003FC00
FF800003FC00
FF800003FC00
FF800003FC00
FF800003FC00
FF800003FC00
FF800003FC00
FF800003FC00
FF800003FC00
FF800003FC00
FF800003FC00
FFFFFFFFFFF0
FFFFFFFFFFF0
FFFFFFFFFFF0
FFFFFFFFFFF0
FFFFFFFFFFF0
FFFFFFFFFFF0
FFFFFFFFFFF0
FFFFFFFFFFF0
ENDCHAR
STARTCHAR 00C2
ENCODING 194
SWIDTH 551 0
DWIDTH 49 0
BBX 44 79 4 0
BITMAP
0003FF000000
0007FF800000
0007FFC00000
000FFFE00000
001FCFE00000
003FC7F00000
003F83F80000
007F03FC0000
00FE01FC0000
01FC00FE0000
03FC007F0000
03F8003F8000
000000000000
000000000000
000000000000
000018000000
0007FFC00000
003FFFF00000
007FFFFC0000
01FFFFFE0000
03FFFFFF0000
07FFFFFF8000
07FFFFFFC000
0FFF83FFE000
1FFC00FFE000
1FF8003FF000
3FF0001FF000
3FE0001FF800
3FE0000FF800
7FC0000FF800
7FC00007F800
7F800007FC00
7F800007FC00
7F800007FC00
7F800007FC00
FF800003FC00
FF800003FC00
FF800003FC00
FF800003FC00
FF800003FC00
FF800003FC00
FF800003FC00
FF800003FC00
FF800003FC00
FF800003FC00
FF800003FC00
FF800003FC00
FF800003FC00
FF800003FC00
FF800003FC00
FF800003FC00
FF800003FC00
FF800003FC00
FF800003FC00
FF800003FC00
FF800003FC00
FF800003FC00
FF800003FC00
FF800003FC00
FF800003FC00
FF800003FC00
FF800003FC00
FF800003FC00
FF800003FC00
FF800003FC00
FF800003FC00
FF800003FC00
FF800003FC00
FF800003FC00
FF800003FC00
FF800003FC00
FFFFFFFFFFF0
FFFFFFFFFFF0
FFFFFFFFFFF0
FFFFFFFFFFF0
FFFFFFFFFFF0
FFFFFFFFFFF0
FFFFFFFFFFF0
FFFFFFFFFFF0
ENDCHAR
STARTCHAR 00C3
ENCODING 195
SWIDTH 551 0
DWIDTH 49 0
BBX 44 79 4 0
BITMAP
000C00000000
00FFC0080000
01FFFFF80000
01FFFFF80000
01FFFFF80000
01FFFFF80000
01807FF80000
00000FC00000
000000000000
000000000000
000000000000
000000000000
000000000000
000000000000
000000000000
000018000000
0007FFC00000
003FFFF00000
007FFFFC0000
01FFFFFE0000
03FFFFFF0000
07FFFFFF8000
07FFFFFFC000
0FFF83FFE000
1FFC00FFE000
1FF8003FF000
3FF0001FF000
3FE0001FF800
3FE0000FF800
7FC0000FF800
7FC00007F800
7F800007FC00
7F800007FC00
7F800007FC00
7F800007FC00
FF800003FC00
FF800003FC00
FF800003FC00
FF800003FC00
FF800003FC00
FF800003FC00
FF800003FC00
FF800003FC00
FF800003FC00
FF800003FC00
FF800003FC00
FF800003FC00
FF800003FC00
FF800003FC00
FF800003FC00
FF800003FC00
FF800003FC00
FF800003FC00
FF800003FC00
FF800003FC00
FF800003FC00
FF800003FC00
FF800003FC00
FF800003FC00
FF800003FC00
FF800003FC00
FF800003FC00
FF800003FC00
FF800003FC00
FF800003FC00
FF800003FC00
FF800003FC00
FF800003FC00
FF800003FC00
FF800003FC00
FF800003FC00
FFFFFFFFFFF0
FFFFFFFFFFF0
FFFFFFFFFFF0
FFFFFFFFFFF0
FFFFFFFFFFF0
FFFFFFFFFFF0
FFFFFFFFFFF0
FFFFFFFFFFF0
ENDCHAR
STARTCHAR 00C4
ENCODING 196
SWIDTH 551 0
DWIDTH 49 0
BBX 44 79 4 0
BITMAP
01F8003F8000
07FE007FC000
0FFE00FFE000
0FFF01FFF000
1FFF01FFF000
1FFF01FFF000
1FFF01FFF000
1FFF01FFF000
0FFF01FFF000
0FFE00FFE000
07FE007FC000
03F8003F8000
000000040000
000000000000
000000000000
000018000000
0007FFC00000
003FFFF00000
007FFFFC0000
01FFFFFE0000
03FFFFFF0000
07FFFFFF8000
07FFFFFFC000
0FFF83FFE000
1FFC00FFE000
1FF8003FF000
3FF0001FF000
3FE0001FF800
3FE0000FF800
7FC0000FF800
7FC00007F800
7F800007FC00
7F800007FC00
7F800007FC00
7F800007FC00
FF800003FC00
FF800003FC00
FF800003FC00
FF800003FC00
FF800003FC00
FF800003FC00
FF800003FC00
FF800003FC00
FF800003FC00
FF800003FC00
FF800003FC00
FF800003FC00
FF800003FC00
FF800003FC00
FF800003FC00
FF800003FC00
FF800003FC00
FF800003FC00
FF800003FC00
FF800003FC00
FF800003FC00
FF800003FC00
FF800003FC00
FF800003FC00
FF800003FC00
FF800003FC00
FF800003FC00
FF800003FC00
FF800003FC00
FF800003FC00
FF800003FC00
FF800003FC00
FF800003FC00
FF800003FC00
FF800003FC00
FF800003FC00
FFFFFFFFFFF0
FFFFFFFFFFF0
FFFFFFFFFFF0
FFFFFFFFFFF0
FFFFFFFFFFF0
FFFFFFFFFFF0
FFFFFFFFFFF0
FFFFFFFFFFF0
ENDCHAR
STARTCHAR 00C5
ENCODING 197
SWIDTH 551 0
DWIDTH 49 0
BBX 44 85 4 0
BITMAP
0001FE000000
0003FF800000
0007FFC00000
000FFFE00000
001F87E00000
001F01F00000
003E01F00000
003E00F00000
003E00F00000
003E00F00000
003E01F00000
001F01F00000
001F83E00000
000FFFE00000
000FFFC00000
0007FF800000
0001FF000000
000030000000
000000000000
000000000000
000000000000
000018000000
0007FFC00000
003FFFF00000
007FFFFC0000
01FFFFFE0000
03FFFFFF0000
07FFFFFF8000
07FFFFFFC000
0FFF83FFE000
1FFC00FFE000
1FF8003FF000
3FF0001FF000
3FE0001FF800
3FE0000FF800
7FC0000FF800
7FC00007F800
7F800007FC00
7F800007FC00
7F800007FC00
7F800007FC00
FF800003FC00
FF800003FC00
FF800003FC00
FF800003FC00
FF800003FC00
FF800003FC00
FF800003FC00
FF800003FC00
FF800003FC00
FF800003FC00
FF800003FC00
FF800003FC00
FF800003FC00
FF800003FC00
FF800003FC00
FF800003FC00
FF800003FC00
FF800003FC00
FF800003FC00
FF800003FC00
FF800003FC00
FF800003FC00
FF800003FC00
FF800003FC00
FF800003FC00
FF800003FC00
FF800003FC00
FF800003FC00
FF800003FC00
FF800003FC00
FF800003FC00
FF800003FC00
FF800003FC00
FF800003FC00
FF800003FC00
FF800003FC00
FFFFFFFFFFF0
FFFFFFFFFFF0
FFFFFFFFFFF0
FFFFFFFFFFF0
FFFFFFFFFFF0
FFFFFFFFFFF0
FFFFFFFFFFF0
FFFFFFFFFFF0
ENDCHAR
STARTCHAR 00C7
ENCODING 199
SWIDTH 675 0
DWIDTH 60 0
BBX 57 83 3 -19
BITMAP
00000000E0000000
000000FFFF800000
000007FFFFF00000
00003FFFFFFE0000
0000FFFFFFFF8000
0001FFFFFFFFC000
0007FFFFFFFFF000
000FFFFFFFFFF800
001FFFFC0FFFFC00
003FFF8000FFFE00
007FFC00001FFF00
00FFF000000FFF80
01FFE0000003FF00
03FF80000001FE00
07FF00000000F800
07FE000000007000
0FFC000000002000
0FF8000000000000
1FF8000000000000
1FF0000000000000
3FF0000000000000
3FE0000000000000
3FC0000000000000
7FC0000000000000
7FC0000000000000
7F80000000000000
7F80000000000000
FF80000000000000
FF80000000000000
FF80000000000000
FF00000000000000
FF00000000000000
FF00000000000000
FF00000000000000
FF00000000000000
FF00000000000000
FF80000000000000
FF80000000000000
FF80000000000000
7F80000000000000
7FC0000000000000
7FC0000000000000
7FC0000000000000
3FE0000000000000
3FE0000000000000
3FF0000000000000
1FF0000000000000
1FF8000000000000
0FFC000000000000
0FFC000000002000
07FE000000007800
03FF80000000FC00
03FFC0000001FE00
01FFE0000003FF00
00FFF800000FFF80
007FFE00003FFF00
003FFFC001FFFE00
001FFFFFFFFFFC00
000FFFFFFFFFF800
0003FFFFFFFFE000
0001FFFFFFFFC000
00007FFFFFFF0000
00001FFFFFFC0000
000003FFFFF00000
0000007FFF000000
0000000F80000000
0000000F80000000
0000000F80000000
0000000FE0000000
0000000FF0000000
00000001F8000000
000000007C000000
000000003C000000
000000003C000000
000002003E000000
000007003C000000
00000F807C000000
00001FC07C000000
00000FFFFC000000
000007FFF8000000
000003FFF0000000
000000FFE0000000
0000003F80000000
ENDCHAR
STARTCHAR 00C8
ENCODING 200
SWIDTH 495 0
DWIDTH 44 0
BBX 42 79 2 0
BITMAP
003F80000000
003F80000000
001FC0000000
000FC0000000
0007E0000000
0007E0000000
0003F0000000
0001F8000000
0001F8000000
0000FC000000
00007C000000
00003E000000
000000000000
000000000000
000000000000
000000000000
000000000000
03FFFFFE0000
03FFFFFE0000
03FFFFFE0000
03FFFFFE0000
03FFFFFE0000
03FFFFFE0000
03FFFFFE0000
03FFFFFE0000
03FE00000000
03FE00000000
03FE00000000
03FE00000000
03FE00000000
03FE00000000
03FE00000000
03FE00000000
03FE00000000
03FE00000000
03FE00000000
03FE00000000
03FE00000000
03FE00000000
03FE00000000
03FE00000000
03FE00000000
03FE00000000
03FE00000000
FFFFFFFFE000
FFFFFFFFE000
FFFFFFFFE000
FFFFFFFFE000
FFFFFFFFE000
FFFFFFFFE000
FFFFFFFFE000
03FE00000000
03FE00000000
03FE00000000
03FE00000000
03FE00000000
03FE00000000
03FE00000000
03FE00000000
03FE00000000
03FE00000000
03FE00000000
03FE00000000
03FE00000000
03FE00000000
03FE00000000
03FE00000000
03FE00000000
03FE00000000
03FE00000000
03FE00000000
03FFFFFFFFC0
03FFFFFFFFC0
03FFFFFFFFC0
03FFFFFFFFC0
03FFFFFFFFC0
03FFFFFFFFC0
03FFFFFFFFC0
03FFFFFFFFC0
ENDCHAR
STARTCHAR 00C9
ENCODING 201
SWIDTH 495 0
DWIDTH 44 0
BBX 42 79 2 0
BITMAP
000007F00000
00000FE00000
00000FC00000
00001FC00000
00001F800000
00003F000000
00007E000000
00007E000000
0000FC000000
0000F8000000
0001F0000000
0001F0000000
000000000000
000000000000
000000000000
000000000000
000000000000
03FFFFFE0000
03FFFFFE0000
03FFFFFE0000
03FFFFFE0000
03FFFFFE0000
03FFFFFE0000
03FFFFFE0000
03FFFFFE0000
03FE00000000
03FE00000000
03FE00000000
03FE00000000
03FE00000000
03FE00000000
03FE00000000
03FE00000000
03FE00000000
03FE00000000
03FE00000000
03FE00000000
03FE00000000
03FE00000000
03FE00000000
03FE00000000
03FE00000000
03FE00000000
03FE00000000
FFFFFFFFE000
FFFFFFFFE000
FFFFFFFFE000
FFFFFFFFE000
FFFFFFFFE000
FFFFFFFFE000
FFFFFFFFE000
03FE00000000
03FE00000000
03FE00000000
03FE00000000
03FE00000000
03FE00000000
03FE00000000
03FE00000000
03FE00000000
03FE00000000
03FE00000000
03FE00000000
03FE00000000
03FE00000000
03FE00000000
03FE00000000
03FE00000000
03FE00000000
03FE00000000
03FE00000000
03FFFFFFFFC0
03FFFFFFFFC0
03FFFFFFFFC0
03FFFFFFFFC0
03FFFFFFFFC0
03FFFFFFFFC0
03FFFFFFFFC0
03FFFFFFFFC0
ENDCHAR
STARTCHAR 00CA
ENCODING 202
SWIDTH 495 0
DWIDTH 44 0
BBX 42 79 2 0
BITMAP
0003FF000000
0007FF800000
000FFF800000
001FFFC00000
001FDFE00000
003F8FF00000
007F07F00000
00FF03F80000
00FE01FC0000
01FC00FE0000
03F800FF0000
07F0007F0000
000000000000
000000000000
000000000000
000000000000
000000000000
03FFFFFE0000
03FFFFFE0000
03FFFFFE0000
03FFFFFE0000
03FFFFFE0000
03FFFFFE0000
03FFFFFE0000
03FFFFFE0000
03FE00000000
03FE00000000
03FE00000000
03FE00000000
03FE00000000
03FE00000000
03FE00000000
03FE00000000
03FE00000000
03FE00000000
03FE00000000
03FE00000000
03FE00000000
03FE00000000
03FE00000000
03FE00000000
03FE00000000
03FE00000000
03FE00000000
FFFFFFFFE000
FFFFFFFFE000
FFFFFFFFE000
FFFFFFFFE000
FFFFFFFFE000
FFFFFFFFE000
FFFFFFFFE000
03FE00000000
03FE00000000
03FE00000000
03FE00000000
03FE00000000
03FE00000000
03FE00000000
03FE00000000
03FE00000000
03FE00000000
03FE00000000
03FE00000000
03FE00000000
03FE00000000
03FE00000000
03FE00000000
03FE00000000
03FE00000000
03FE00000000
03FE00000000
03FFFFFFFFC0
03FFFFFFFFC0
03FFFFFFFFC0
03FFFFFFFFC0
03FFFFFFFFC0
03FFFFFFFFC0
03FFFFFFFFC0
03FFFFFFFFC0
ENDCHAR
STARTCHAR 00CB
ENCODING 203
SWIDTH 495 0
DWIDTH 44 0
BBX 42 79 2 0
BITMAP
03F8003F0000
07FC00FFC000
0FFE01FFE000
1FFE01FFE000
1FFF01FFE000
1FFF03FFF000
1FFF03FFF000
1FFF01FFE000
1FFE01FFE000
0FFE01FFE000
07FC00FFC000
03F8007F8000
000000080000
000000000000
000000000000
000000000000
000000000000
03FFFFFE0000
03FFFFFE0000
03FFFFFE0000
03FFFFFE0000
03FFFFFE0000
03FFFFFE0000
03FFFFFE0000
03FFFFFE0000
03FE00000000
03FE00000000
03FE00000000
03FE00000000
03FE00000000
03FE00000000
03FE00000000
03FE00000000
03FE00000000
03FE00000000
03FE00000000
03FE00000000
03FE00000000
03FE00000000
03FE00000000
03FE00000000
03FE00000000
03FE00000000
03FE00000000
FFFFFFFFE000
FFFFFFFFE000
FFFFFFFFE000
FFFFFFFFE000
FFFFFFFFE000
FFFFFFFFE000
FFFFFFFFE000
03FE00000000
03FE00000000
03FE00000000
03FE00000000
03FE00000000
03FE00000000
03FE00000000
03FE00000000
03FE00000000
03FE00000000
03FE00000000
03FE00000000
03FE00000000
03FE00000000
03FE00000000
03FE00000000
03FE00000000
03FE00000000
03FE00000000
03FE00000000
03FFFFFFFFC0
03FFFFFFFFC0
03FFFFFFFFC0
03FFFFFFFFC0
03FFFFFFFFC0
03FFFFFFFFC0
03FFFFFFFFC0
03FFFFFFFFC0
ENDCHAR
STARTCHAR 00CC
ENCODING 204
SWIDTH 191 0
DWIDTH 17 0
BBX 13 55 0 0
BITMAP
FE00
FE00
7F00
3F00
1F80
1FC0
0FC0
07E0
03E0
03F0
01F8
00F8
0000
0000
0000
0000
0000
07F8
07F8
07F8
07F8
07F8
07F8
07F8
07F8
07F8
07F8
07F8
07F8
07F8
07F8
07F8
07F8
07F8
07F8
07F8
07F8
07F8
07F8
07F8
07F8
07F8
07F8
07F8
07F8
07F8
07F8
07F8
07F8
07F8
07F8
07F8
07F8
07F8
07F8
ENDCHAR
STARTCHAR 00CD
ENCODING 205
SWIDTH 191 0
DWIDTH 17 0
BBX 13 55 5 0
BITMAP
03F8
07F0
07F0
0FE0
0FC0
1F80
1F80
3F00
7E00
7C00
FC00
F800
0000
0000
0000
0000
0000
FF00
FF00
FF00
FF00
FF00
FF00
FF00
FF00
FF00
FF00
FF00
FF00
FF00
FF00
FF00
FF00
FF00
FF00
FF00
FF00
FF00
FF00
FF00
FF00
FF00
FF00
FF00
FF00
FF00
FF00
FF00
FF00
FF00
FF00
FF00
FF00
FF00
FF00
ENDCHAR
STARTCHAR 00CE
ENCODING 206
SWIDTH 191 0
DWIDTH 17 0
BBX 27 55 -5 0
BITMAP
007FE000
00FFF000
01FFF800
01FFF800
03F9FC00
07F1FE00
0FF0FF00
1FE07F00
1FC03F80
3F801FC0
7F000FE0
FE0007E0
00000000
00000000
00000000
00000000
00000000
003FC000
003FC000
003FC000
003FC000
003FC000
003FC000
003FC000
003FC000
003FC000
003FC000
003FC000
003FC000
003FC000
003FC000
003FC000
003FC000
003FC000
003FC000
003FC000
003FC000
003FC000
003FC000
003FC000
003FC000
003FC000
003FC000
003FC000
003FC000
003FC000
003FC000
003FC000
003FC000
003FC000
003FC000
003FC000
003FC000
003FC000
003FC000
ENDCHAR
STARTCHAR 00CF
ENCODING 207
SWIDTH 191 0
DWIDTH 17 0
BBX 33 55 -7 0
BITMAP
1FC001FC00
3FE003FE00
7FF007FF00
FFF80FFF00
FFF80FFF80
FFF80FFF80
FFF80FFF80
FFF80FFF80
FFF80FFF00
7FF007FF00
3FE007FE00
1FC001FC00
0200000000
0000000000
0000000000
0000000000
0000000000
000FF00000
000FF00000
000FF00000
000FF00000
000FF00000
000FF00000
000FF00000
000FF00000
000FF00000
000FF00000
000FF00000
000FF00000
000FF00000
000FF00000
000FF00000
000FF00000
000FF00000
000FF00000
000FF00000
000FF00000
000FF00000
000FF00000
000FF00000
000FF00000
000FF00000
000FF00000
000FF00000
000FF00000
000FF00000
000FF00000
000FF00000
000FF00000
000FF00000
000FF00000
000FF00000
000FF00000
000FF00000
000FF00000
ENDCHAR
STARTCHAR 00D1
ENCODING 209
SWIDTH 517 0
DWIDTH 46 0
BBX 41 79 1 0
BITMAP
000180000000
001FF8010000
003FFFFF0000
003FFFFF0000
003FFFFF0000
003FFFFF0000
00300FFF0000
000001F80000
000000000000
000000000000
000000000000
000000000000
000000000000
000000000000
000000000000
040000000000
0E0000000000
1F0000007F80
1FC000007F80
3FE000007F80
7FF000007F80
FFFC00007F80
7FFE00007F80
1FFF00007F80
0FFF80007F80
0FFFE0007F80
0FFFF0007F80
0FFFF8007F80
0FFFFE007F80
0FFFFF007F80
0FFFFF807F80
0FF7FFC07F80
0FF3FFF07F80
0FF0FFF87F80
0FF07FFC7F80
0FF03FFF7F80
0FF00FFFFF80
0FF007FFFF80
0FF003FFFF80
0FF001FFFF80
0FF0007FFF80
0FF0003FFF80
0FF0001FFF80
0FF0000FFF80
0FF00003FF80
0FF00001FF80
0FF00000FF80
0FF000007F80
0FF000007F80
0FF000007F80
0FF000007F80
0FF000007F80
0FF000007F80
0FF000007F80
0FF000007F80
0FF000007F80
0FF000007F80
0FF000007F80
0FF000007F80
0FF000007F80
0FF000007F80
0FF000007F80
0FF000007F80
0FF000007F80
0FF000007F80
0FF000007F80
0FF000007F80
0FF000007F80
0FF000007F80
0FF000007F80
0FF000007F80
0FF000007F80
0FF000007F80
0FF000007F80
0FF000007F80
0FF000007F80
0FF000007F80
0FF000007F80
0FF000007F80
ENDCHAR
STARTCHAR 00D2
ENCODING 210
SWIDTH 810 0
DWIDTH 72 0
BBX 67 80 3 -1
BITMAP
000000FE0000000000
0000007F0000000000
0000003F0000000000
0000003F8000000000
0000001F8000000000
0000000FC000000000
00000007E000000000
00000007E000000000
00000003F000000000
00000001F000000000
00000000F800000000
00000000F800000000
000000000000000000
000000000000000000
000000000000000000
00000000E000000000
000000FFFFC0000000
000007FFFFF8000000
00001FFFFFFF000000
00007FFFFFFFC00000
0001FFFFFFFFE00000
0007FFFFFFFFF80000
000FFFFFFFFFFC0000
001FFFFE0FFFFF0000
003FFF80007FFF8000
007FFE00000FFFC000
00FFF8000003FFE000
01FFE0000000FFF000
03FFC00000007FF000
07FF000000003FF800
07FE000000001FFC00
0FFC000000000FFC00
0FFC0000000007FE00
1FF80000000003FE00
1FF00000000003FF00
3FF00000000001FF00
3FE00000000000FF80
3FE00000000000FF80
7FC00000000000FF80
7FC000000000007FC0
7F8000000000007FC0
7F8000000000007FC0
FF8000000000003FC0
FF8000000000003FC0
FF8000000000003FC0
FF0000000000003FE0
FF0000000000003FE0
FF0000000000003FE0
FF0000000000003FE0
FF0000000000003FE0
FF0000000000003FC0
FF8000000000003FC0
FF8000000000003FC0
FF8000000000003FC0
7F8000000000007FC0
7F8000000000007FC0
7FC000000000007F80
7FC00000000000FF80
3FE00000000000FF80
3FE00000000001FF80
3FF00000000001FF00
1FF00000000003FF00
1FF80000000003FE00
0FFC0000000007FE00
0FFE000000000FFC00
07FF000000001FF800
03FF800000003FF800
03FFC00000007FF000
01FFE0000001FFE000
00FFF8000007FFC000
007FFE00001FFFC000
003FFFC0007FFF8000
001FFFFFFFFFFE0000
000FFFFFFFFFFC0000
0003FFFFFFFFF80000
0001FFFFFFFFE00000
00007FFFFFFF800000
00001FFFFFFE000000
000003FFFFF8000000
0000003FFF80000000
ENDCHAR
STARTCHAR 00D3
ENCODING 211
SWIDTH 810 0
DWIDTH 72 0
BBX 67 80 3 -1
BITMAP
000000001FC0000000
000000001FC0000000
000000003F80000000
000000003F00000000
000000007E00000000
00000000FE00000000
00000000FC00000000
00000001F800000000
00000001F000000000
00000003F000000000
00000003E000000000
00000007C000000000
000000000000000000
000000000000000000
000000000000000000
00000000E000000000
000000FFFFC0000000
000007FFFFF8000000
00001FFFFFFF000000
00007FFFFFFFC00000
0001FFFFFFFFE00000
0007FFFFFFFFF80000
000FFFFFFFFFFC0000
001FFFFE0FFFFF0000
003FFF80007FFF8000
007FFE00000FFFC000
00FFF8000003FFE000
01FFE0000000FFF000
03FFC00000007FF000
07FF000000003FF800
07FE000000001FFC00
0FFC000000000FFC00
0FFC0000000007FE00
1FF80000000003FE00
1FF00000000003FF00
3FF00000000001FF00
3FE00000000000FF80
3FE00000000000FF80
7FC00000000000FF80
7FC000000000007FC0
7F8000000000007FC0
7F8000000000007FC0
FF8000000000003FC0
FF8000000000003FC0
FF8000000000003FC0
FF0000000000003FE0
FF0000000000003FE0
FF0000000000003FE0
FF0000000000003FE0
FF0000000000003FE0
FF0000000000003FC0
FF8000000000003FC0
FF8000000000003FC0
FF8000000000003FC0
7F8000000000007FC0
7F8000000000007FC0
7FC000000000007F80
7FC00000000000FF80
3FE00000000000FF80
3FE00000000001FF80
3FF00000000001FF00
1FF00000000003FF00
1FF80000000003FE00
0FFC0000000007FE00
0FFE000000000FFC00
07FF000000001FF800
03FF800000003FF800
03FFC00000007FF000
01FFE0000001FFE000
00FFF8000007FFC000
007FFE00001FFFC000
003FFFC0007FFF8000
001FFFFFFFFFFE0000
000FFFFFFFFFFC0000
0003FFFFFFFFF80000
0001FFFFFFFFE00000
00007FFFFFFF800000
00001FFFFFFE000000
000003FFFFF8000000
0000003FFF80000000
ENDCHAR
STARTCHAR 00D4
ENCODING 212
SWIDTH 810 0
DWIDTH 72 0
BBX 67 80 3 -1
BITMAP
0000000FFC00000000
0000001FFE00000000
0000001FFF00000000
0000003FFF80000000
0000007FBF80000000
000000FF1FC0000000
000000FE0FE0000000
000001FC07F0000000
000003F807F8000000
000007F003F8000000
000007F001FC000000
00000FE000FE000000
000000000000000000
000000000000000000
000000000000000000
00000000E000000000
000000FFFFC0000000
000007FFFFF8000000
00001FFFFFFF000000
00007FFFFFFFC00000
0001FFFFFFFFE00000
0007FFFFFFFFF80000
000FFFFFFFFFFC0000
001FFFFE0FFFFF0000
003FFF80007FFF8000
007FFE00000FFFC000
00FFF8000003FFE000
01FFE0000000FFF000
03FFC00000007FF000
07FF000000003FF800
07FE000000001FFC00
0FFC000000000FFC00
0FFC0000000007FE00
1FF80000000003FE00
1FF00000000003FF00
3FF00000000001FF00
3FE00000000000FF80
3FE00000000000FF80
7FC00000000000FF80
7FC000000000007FC0
7F8000000000007FC0
7F8000000000007FC0
FF8000000000003FC0
FF8000000000003FC0
FF8000000000003FC0
FF0000000000003FE0
FF0000000000003FE0
FF0000000000003FE0
FF0000000000003FE0
FF0000000000003FE0
FF0000000000003FC0
FF8000000000003FC0
FF8000000000003FC0
FF8000000000003FC0
7F8000000000007FC0
7F8000000000007FC0
7FC000000000007F80
7FC00000000000FF80
3FE00000000000FF80
3FE00000000001FF80
3FF00000000001FF00
1FF00000000003FF00
1FF80000000003FE00
0FFC0000000007FE00
0FFE000000000FFC00
07FF000000001FF800
03FF800000003FF800
03FFC00000007FF000
01FFE0000001FFE000
00FFF8000007FFC000
007FFE00001FFFC000
003FFFC0007FFF8000
001FFFFFFFFFFE0000
000FFFFFFFFFFC0000
0003FFFFFFFFF80000
0001FFFFFFFFE00000
00007FFFFFFF800000
00001FFFFFFE000000
000003FFFFF8000000
0000003FFF80000000
ENDCHAR
STARTCHAR 00D5
ENCODING 213
SWIDTH 810 0
DWIDTH 72 0
BBX 67 80 3 -1
BITMAP
000000300000000000
000003FF0020000000
000007FFFFE0000000
000007FFFFE0000000
000007FFFFE0000000
000007FFFFE0000000
00000601FFE0000000
000000003F00000000
000000000000000000
000000000000000000
000000000000000000
000000000000000000
000000000000000000
000000000000000000
000000000000000000
00000000E000000000
000000FFFFC0000000
000007FFFFF8000000
00001FFFFFFF000000
00007FFFFFFFC00000
0001FFFFFFFFE00000
0007FFFFFFFFF80000
000FFFFFFFFFFC0000
001FFFFE0FFFFF0000
003FFF80007FFF8000
007FFE00000FFFC000
00FFF8000003FFE000
01FFE0000000FFF000
03FFC00000007FF000
07FF000000003FF800
07FE000000001FFC00
0FFC000000000FFC00
0FFC0000000007FE00
1FF80000000003FE00
1FF00000000003FF00
3FF00000000001FF00
3FE00000000000FF80
3FE00000000000FF80
7FC00000000000FF80
7FC000000000007FC0
7F8000000000007FC0
7F8000000000007FC0
FF8000000000003FC0
FF8000000000003FC0
FF8000000000003FC0
FF0000000000003FE0
FF0000000000003FE0
FF0000000000003FE0
FF0000000000003FE0
FF0000000000003FE0
FF0000000000003FC0
FF8000000000003FC0
FF8000000000003FC0
FF8000000000003FC0
7F8000000000007FC0
7F8000000000007FC0
7FC000000000007F80
7FC00000000000FF80
3FE00000000000FF80
3FE00000000001FF80
3FF00000000001FF00
1FF00000000003FF00
1FF80000000003FE00
0FFC0000000007FE00
0FFE000000000FFC00
07FF000000001FF800
03FF800000003FF800
03FFC00000007FF000
01FFE0000001FFE000
00FFF8000007FFC000
007FFE00001FFFC000
003FFFC0007FFF8000
001FFFFFFFFFFE0000
000FFFFFFFFFFC0000
0003FFFFFFFFF80000
0001FFFFFFFFE00000
00007FFFFFFF800000
00001FFFFFFE000000
000003FFFFF8000000
0000003FFF80000000
ENDCHAR
STARTCHAR 00D6
ENCODING 214
SWIDTH 810 0
DWIDTH 72 0
BBX 67 80 3 -1
BITMAP
000007E000FE000000
00001FF801FF000000
00003FF803FF800000
00003FFC03FFC00000
00003FFC07FFC00000
00007FFC07FFC00000
00007FFC07FFC00000
00007FFC07FFC00000
00003FFC07FFC00000
00003FFC03FF800000
00001FF801FF000000
00000FF000FE000000
000001000010000000
000000000000000000
000000000000000000
00000000E000000000
000000FFFFC0000000
000007FFFFF8000000
00001FFFFFFF000000
00007FFFFFFFC00000
0001FFFFFFFFE00000
0007FFFFFFFFF80000
000FFFFFFFFFFC0000
001FFFFE0FFFFF0000
003FFF80007FFF8000
007FFE00000FFFC000
00FFF8000003FFE000
01FFE0000000FFF000
03FFC00000007FF000
07FF000000003FF800
07FE000000001FFC00
0FFC000000000FFC00
0FFC0000000007FE00
1FF80000000003FE00
1FF00000000003FF00
3FF00000000001FF00
3FE00000000000FF80
3FE00000000000FF80
7FC00000000000FF80
7FC000000000007FC0
7F8000000000007FC0
7F8000000000007FC0
FF8000000000003FC0
FF8000000000003FC0
FF8000000000003FC0
FF0000000000003FE0
FF0000000000003FE0
FF0000000000003FE0
FF0000000000003FE0
FF0000000000003FE0
FF0000000000003FC0
FF8000000000003FC0
FF8000000000003FC0
FF8000000000003FC0
7F8000000000007FC0
7F8000000000007FC0
7FC000000000007F80
7FC00000000000FF80
3FE00000000000FF80
3FE00000000001FF80
3FF00000000001FF00
1FF00000000003FF00
1FF80000000003FE00
0FFC0000000007FE00
0FFE000000000FFC00
07FF000000001FF800
03FF800000003FF800
03FFC00000007FF000
01FFE0000001FFE000
00FFF8000007FFC000
007FFE00001FFFC000
003FFFC0007FFF8000
001FFFFFFFFFFE0000
000FFFFFFFFFFC0000
0003FFFFFFFFF80000
0001FFFFFFFFE00000
00007FFFFFFF800000
00001FFFFFFE000000
000003FFFFF8000000
0000003FFF80000000
ENDCHAR
STARTCHAR 00D7
ENCODING 215
SWIDTH 517 0
DWIDTH 46 0
BBX 36 37 5 11
BITMAP
0800000100
1C00000380
3E000007C0
7F00000FE0
FF80001FF0
FFC0003FF0
7FE0007FE0
3FF000FFC0
1FF801FF80
0FFC03FF00
07FE07FE00
03FF0FFC00
01FF9FF800
00FFFFF000
007FFFE000
003FFFC000
001FFF8000
000FFF0000
0007FE0000
000FFF0000
001FFF8000
003FFFC000
007FFFE000
00FFFFF000
01FF9FF800
03FF0FFC00
07FE07FE00
0FFC03FF00
1FF801FF80
3FF000FFC0
7FE0007FE0
FFC0003FF0
7F80001FF0
3F00000FE0
1E000007C0
0C00000380
0000000100
ENDCHAR
STARTCHAR 00D8
ENCODING 216
SWIDTH 787 0
DWIDTH 70 0
BBX 67 68 2 -3
BITMAP
000000000000003000
00000001F000007800
0000007FFFC000FC00
000007FFFFFC01FE00
00001FFFFFFF03FE00
00007FFFFFFFC7FC00
0001FFFFFFFFF7F800
0003FFFFFFFFFFF000
000FFFFFFFFFFFE000
001FFFFC07FFFFC000
003FFF80007FFF8000
007FFE00000FFFC000
00FFF8000003FFE000
01FFE0000001FFF000
03FFC0000003FFF000
03FF80000007FFF800
07FE0000000FFFFC00
0FFC0000001FEFFC00
0FFC0000003FC7FE00
1FF80000007FC3FE00
1FF0000000FF81FF00
3FF0000000FF01FF00
3FE0000001FE00FF80
3FE0000003FC00FF80
7FC0000007F800FF80
7FC000000FF0007FC0
7FC000001FE0007FC0
7F8000003FE0007FC0
FF8000007FC0003FC0
FF8000007F80003FC0
FF800000FF00003FC0
FF800001FE00003FE0
FF000003FC00003FE0
FF000007F800003FE0
FF00000FF800003FE0
FF80001FF000003FE0
FF80001FE000003FE0
FF80003FC000003FC0
FF80007F8000003FC0
FF8000FF0000003FC0
7F8001FE0000007FC0
7FC003FC0000007FC0
7FC007FC0000007FC0
7FC00FF8000000FF80
3FE00FF0000000FF80
3FE01FE0000001FF80
1FF03FC0000001FF00
1FF07F80000003FF00
1FF8FF00000003FE00
0FFDFE00000007FE00
07FFFE0000000FFC00
07FFFC0000001FFC00
03FFF80000003FF800
01FFF00000007FF000
01FFE0000001FFE000
00FFF8000007FFC000
007FFE00001FFFC000
00FFFFC000FFFF0000
01FFFFFFFFFFFE0000
01FFFFFFFFFFFC0000
03FFFFFFFFFFF80000
07F9FFFFFFFFE00000
0FF07FFFFFFF800000
1FE01FFFFFFE000000
1FC003FFFFF8000000
07C0003FFF80000000
038000000000000000
010000000000000000
ENDCHAR
STARTCHAR 00D9
ENCODING 217
SWIDTH 506 0
DWIDTH 45 0
BBX 37 80 4 -1
BITMAP
007F000000
003F800000
001FC00000
000FC00000
000FE00000
0007E00000
0003F00000
0001F00000
0001F80000
0000FC0000
00007C0000
00003E0000
0000000000
0000000000
0000000000
0000000000
0000000000
FF000007F8
FF000007F8
FF000007F8
FF000007F8
FF000007F8
FF000007F8
FF000007F8
FF000007F8
FF000007F8
FF000007F8
FF000007F8
FF000007F8
FF000007F8
FF000007F8
FF000007F8
FF000007F8
FF000007F8
FF000007F8
FF000007F8
FF000007F8
FF000007F8
FF000007F8
FF000007F8
FF000007F8
FF000007F8
FF000007F8
FF000007F8
FF000007F8
FF000007F8
FF000007F8
FF000007F8
FF000007F8
FF000007F8
FF000007F8
FF000007F8
FF000007F8
FF000007F8
FF000007F8
FF000007F8
FF000007F8
FF000007F8
FF000007F8
FF000007F8
FF000007F8
FF000007F8
FF800007F8
FF800007F8
FF80000FF8
7F80000FF8
7FC0000FF0
7FC0001FF0
7FE0001FF0
3FE0003FE0
3FF0007FE0
1FFC01FFC0
1FFFDFFFC0
0FFFFFFF80
07FFFFFF00
03FFFFFE00
01FFFFFC00
00FFFFF800
003FFFE000
0007FF8000
ENDCHAR
STARTCHAR 00DA
ENCODING 218
SWIDTH 506 0
DWIDTH 45 0
BBX 37 80 4 -1
BITMAP
000007F000
00000FE000
00000FC000
00001FC000
00003F8000
00003F0000
00007E0000
00007E0000
0000FC0000
0000F80000
0001F00000
0003F00000
0000000000
0000000000
0000000000
0000000000
0000000000
FF000007F8
FF000007F8
FF000007F8
FF000007F8
FF000007F8
FF000007F8
FF000007F8
FF000007F8
FF000007F8
FF000007F8
FF000007F8
FF000007F8
FF000007F8
FF000007F8
FF000007F8
FF000007F8
FF000007F8
FF000007F8
FF000007F8
FF000007F8
FF000007F8
FF000007F8
FF000007F8
FF000007F8
FF000007F8
FF000007F8
FF000007F8
FF000007F8
FF000007F8
FF000007F8
FF000007F8
FF000007F8
FF000007F8
FF000007F8
FF000007F8
FF000007F8
FF000007F8
FF000007F8
FF000007F8
FF000007F8
FF000007F8
FF000007F8
FF000007F8
FF000007F8
FF000007F8
FF800007F8
FF800007F8
FF80000FF8
7F80000FF8
7FC0000FF0
7FC0001FF0
7FE0001FF0
3FE0003FE0
3FF0007FE0
1FFC01FFC0
1FFFDFFFC0
0FFFFFFF80
07FFFFFF00
03FFFFFE00
01FFFFFC00
00FFFFF800
003FFFE000
0007FF8000
ENDCHAR
STARTCHAR 00DB
ENCODING 219
SWIDTH 506 0
DWIDTH 45 0
BBX 37 80 4 -1
BITMAP
0003FF0000
0007FF8000
000FFF8000
001FFFC000
003FDFE000
003F8FF000
007F07F000
00FE03F800
01FE01FC00
01FC00FE00
03F800FE00
07F0007F00
0000000000
0000000000
0000000000
0000000000
0000000000
FF000007F8
FF000007F8
FF000007F8
FF000007F8
FF000007F8
FF000007F8
FF000007F8
FF000007F8
FF000007F8
FF000007F8
FF000007F8
FF000007F8
FF000007F8
FF000007F8
FF000007F8
FF000007F8
FF000007F8
FF000007F8
FF000007F8
FF000007F8
FF000007F8
FF000007F8
FF000007F8
FF000007F8
FF000007F8
FF000007F8
FF000007F8
FF000007F8
FF000007F8
FF000007F8
FF000007F8
FF000007F8
FF000007F8
FF000007F8
FF000007F8
FF000007F8
FF000007F8
FF000007F8
FF000007F8
FF000007F8
FF000007F8
FF000007F8
FF000007F8
FF000007F8
FF000007F8
FF800007F8
FF800007F8
FF80000FF8
7F80000FF8
7FC0000FF0
7FC0001FF0
7FE0001FF0
3FE0003FE0
3FF0007FE0
1FFC01FFC0
1FFFDFFFC0
0FFFFFFF80
07FFFFFF00
03FFFFFE00
01FFFFFC00
00FFFFF800
003FFFE000
0007FF8000
ENDCHAR
STARTCHAR 00DC
ENCODING 220
SWIDTH 506 0
DWIDTH 45 0
BBX 37 80 4 -1
BITMAP
03F8003F00
07FC00FFC0
0FFE01FFC0
1FFE01FFE0
1FFF03FFE0
1FFF03FFE0
1FFF03FFE0
1FFF03FFE0
1FFE01FFE0
0FFE01FFE0
0FFC00FFC0
03F8007F80
0000000800
0000000000
0000000000
0000000000
0000000000
FF000007F8
FF000007F8
FF000007F8
FF000007F8
FF000007F8
FF000007F8
FF000007F8
FF000007F8
FF000007F8
FF000007F8
FF000007F8
FF000007F8
FF000007F8
FF000007F8
FF000007F8
FF000007F8
FF000007F8
FF000007F8
FF000007F8
FF000007F8
FF000007F8
FF000007F8
FF000007F8
FF000007F8
FF000007F8
FF000007F8
FF000007F8
FF000007F8
FF000007F8
FF000007F8
FF000007F8
FF000007F8
FF000007F8
FF000007F8
FF000007F8
FF000007F8
FF000007F8
FF000007F8
FF000007F8
FF000007F8
FF000007F8
FF000007F8
FF000007F8
FF000007F8
FF000007F8
FF800007F8
FF800007F8
FF80000FF8
7F80000FF8
7FC0000FF0
7FC0001FF0
7FE0001FF0
3FE0003FE0
3FF0007FE0
1FFC01FFC0
1FFFDFFFC0
0FFFFFFF80
07FFFFFF00
03FFFFFE00
01FFFFFC00
00FFFFF800
003FFFE000
0007FF8000
ENDCHAR
STARTCHAR 00DD
ENCODING 221
SWIDTH 495 0
DWIDTH 44 0
BBX 38 79 3 0
BITMAP
000007F000
000007F000
00000FE000
00000FC000
00001F8000
00003F8000
00003F0000
00007E0000
00007C0000
0000FC0000
0000F80000
0001F00000
0000000000
0000000000
0000000000
0000000000
0000000000
FF800003FC
FF800003FC
FF800003FC
FF800003FC
FF800003FC
FF800003FC
FF800003FC
FF800003FC
FF800003FC
FF800003FC
FF800003FC
FF800003FC
FF800003FC
FF800003FC
FF800003FC
FF800003FC
FF800003FC
FF800003FC
FF800003FC
FF800003FC
FF800003FC
FF800003FC
FF800003FC
FF800003FC
FF800003FC
FF800003FC
FF800003FC
FF800007FC
FF800007FC
7F800007FC
7F800007FC
7F800007FC
7FC00007F8
7FC0000FF8
3FE0000FF8
3FE0001FF0
3FF0003FF0
1FF8007FF0
1FFC00FFE0
0FFFCFFFC0
07FFFFFFC0
07FFFFFF80
03FFFFFF00
01FFFFFE00
007FFFFC00
001FFFF000
0007FF8000
0001FE0000
0001FE0000
0001FE0000
0001FE0000
0001FE0000
0001FE0000
0001FE0000
0001FE0000
0001FE0000
0001FE0000
0001FE0000
0001FE0000
0001FE0000
0001FE0000
0001FE0000
ENDCHAR
STARTCHAR 00E0
ENCODING 224
SWIDTH 551 0
DWIDTH 49 0
BBX 44 79 4 0
BITMAP
003F80000000
001FC0000000
000FC0000000
000FE0000000
0007E0000000
0003F0000000
0003F8000000
0001F8000000
0000FC000000
00007C000000
00007E000000
00003E000000
000000000000
000000000000
000000000000
000018000000
0007FFC00000
003FFFF00000
007FFFFC0000
01FFFFFE0000
03FFFFFF0000
07FFFFFF8000
07FFFFFFC000
0FFF83FFE000
1FFC00FFE000
1FF8003FF000
3FF0001FF000
3FE0001FF800
3FE0000FF800
7FC0000FF800
7FC00007F800
7F800007FC00
7F800007FC00
7F800007FC00
7F800007FC00
FF800003FC00
FF800003FC00
FF800003FC00
FF800003FC00
FF800003FC00
FF800003FC00
FF800003FC00
FF800003FC00
FF800003FC00
FF800003FC00
FF800003FC00
FF800003FC00
FF800003FC00
FF800003FC00
FF800003FC00
FF800003FC00
FF800003FC00
FF800003FC00
FF800003FC00
FF800003FC00
FF800003FC00
FF800003FC00
FF800003FC00
FF800003FC00
FF800003FC00
FF800003FC00
FF800003FC00
FF800003FC00
FF800003FC00
FF800003FC00
FF800003FC00
FF800003FC00
FF800003FC00
FF800003FC00
FF800003FC00
FF800003FC00
FFFFFFFFFFF0
FFFFFFFFFFF0
FFFFFFFFFFF0
FFFFFFFFFFF0
FFFFFFFFFFF0
FFFFFFFFFFF0
FFFFFFFFFFF0
FFFFFFFFFFF0
ENDCHAR
STARTCHAR 00E1
ENCODING 225
SWIDTH 551 0
DWIDTH 49 0
BBX 44 79 4 0
BITMAP
000007F00000
000007F00000
00000FE00000
00000FC00000
00001F800000
00003F800000
00003F000000
00007E000000
00007C000000
0000FC000000
0000F8000000
0001F0000000
000000000000
000000000000
000000000000
000018000000
0007FFC00000
003FFFF00000
007FFFFC0000
01FFFFFE0000
03FFFFFF0000
07FFFFFF8000
07FFFFFFC000
0FFF83FFE000
1FFC00FFE000
1FF8003FF000
3FF0001FF000
3FE0001FF800
3FE0000FF800
7FC0000FF800
7FC00007F800
7F800007FC00
7F800007FC00
7F800007FC00
7F800007FC00
FF800003FC00
FF800003FC00
FF800003FC00
FF800003FC00
FF800003FC00
FF800003FC00
FF800003FC00
FF800003FC00
FF800003FC00
FF800003FC00
FF800003FC00
FF800003FC00
FF800003FC00
FF800003FC00
FF800003FC00
FF800003FC00
FF800003FC00
FF800003FC00
FF800003FC00
FF800003FC00
FF800003FC00
FF800003FC00
FF800003FC00
FF800003FC00
FF800003FC00
FF800003FC00
FF800003FC00
FF800003FC00
FF800003FC00
FF800003FC00
FF800003FC00
FF800003FC00
FF800003FC00
FF800003FC00
FF800003FC00
FF800003FC00
FFFFFFFFFFF0
FFFFFFFFFFF0
FFFFFFFFFFF0
FFFFFFFFFFF0
FFFFFFFFFFF0
FFFFFFFFFFF0
FFFFFFFFFFF0
FFFFFFFFFFF0
ENDCHAR
STARTCHAR 00E2
ENCODING 226
SWIDTH 551 0
DWIDTH 49 0
BBX 44 79 4 0
BITMAP
0003FF000000
0007FF800000
0007FFC00000
000FFFE00000
001FCFE00000
003FC7F00000
003F83F80000
007F03FC0000
00FE01FC0000
01FC00FE0000
03FC007F0000
03F8003F8000
000000000000
000000000000
000000000000
000018000000
0007FFC00000
003FFFF00000
007FFFFC0000
01FFFFFE0000
03FFFFFF0000
07FFFFFF8000
07FFFFFFC000
0FFF83FFE000
1FFC00FFE000
1FF8003FF000
3FF0001FF000
3FE0001FF800
3FE0000FF800
7FC0000FF800
7FC00007F800
7F800007FC00
7F800007FC00
7F800007FC00
7F800007FC00
FF800003FC00
FF800003FC00
FF800003FC00
FF800003FC00
FF800003FC00
FF800003FC00
FF800003FC00
FF800003FC00
FF800003FC00
FF800003FC00
FF800003FC00
FF800003FC00
FF800003FC00
FF800003FC00
FF800003FC00
FF800003FC00
FF800003FC00
FF800003FC00
FF800003FC00
FF800003FC00
FF800003FC00
FF800003FC00
FF800003FC00
FF800003FC00
FF800003FC00
FF800003FC00
FF800003FC00
FF800003FC00
FF800003FC00
FF800003FC00
FF800003FC00
FF800003FC00
FF800003FC00
FF800003FC00
FF800003FC00
FF800003FC00
FFFFFFFFFFF0
FFFFFFFFFFF0
FFFFFFFFFFF0
FFFFFFFFFFF0
FFFFFFFFFFF0
FFFFFFFFFFF0
FFFFFFFFFFF0
FFFFFFFFFFF0
ENDCHAR
STARTCHAR 00E3
ENCODING 227
SWIDTH 551 0
DWIDTH 49 0
BBX 44 79 4 0
BITMAP
000C00000000
00FFC0080000
01FFFFF80000
01FFFFF80000
01FFFFF80000
01FFFFF80000
01807FF80000
00000FC00000
000000000000
000000000000
000000000000
000000000000
000000000000
000000000000
000000000000
000018000000
0007FFC00000
003FFFF00000
007FFFFC0000
01FFFFFE0000
03FFFFFF0000
07FFFFFF8000
07FFFFFFC000
0FFF83FFE000
1FFC00FFE000
1FF8003FF000
3FF0001FF000
3FE0001FF800
3FE0000FF800
7FC0000FF800
7FC00007F800
7F800007FC00
7F800007FC00
7F800007FC00
7F800007FC00
FF800003FC00
FF800003FC00
FF800003FC00
FF800003FC00
FF800003FC00
FF800003FC00
FF800003FC00
FF800003FC00
FF800003FC00
FF800003FC00
FF800003FC00
FF800003FC00
FF800003FC00
FF800003FC00
FF800003FC00
FF800003FC00
FF800003FC00
FF800003FC00
FF800003FC00
FF800003FC00
FF800003FC00
FF800003FC00
FF800003FC00
FF800003FC00
FF800003FC00
FF800003FC00
FF800003FC00
FF800003FC00
FF800003FC00
FF800003FC00
FF800003FC00
FF800003FC00
FF800003FC00
FF800003FC00
FF800003FC00
FF800003FC00
FFFFFFFFFFF0
FFFFFFFFFFF0
FFFFFFFFFFF0
FFFFFFFFFFF0
FFFFFFFFFFF0
FFFFFFFFFFF0
FFFFFFFFFFF0
FFFFFFFFFFF0
ENDCHAR
STARTCHAR 00E4
ENCODING 228
SWIDTH 551 0
DWIDTH 49 0
BBX 44 79 4 0
BITMAP
01F8003F8000
07FE007FC000
0FFE00FFE000
0FFF01FFF000
1FFF01FFF000
1FFF01FFF000
1FFF01FFF000
1FFF01FFF000
0FFF01FFF000
0FFE00FFE000
07FE007FC000
03F8003F8000
000000040000
000000000000
000000000000
000018000000
0007FFC00000
003FFFF00000
007FFFFC0000
01FFFFFE0000
03FFFFFF0000
07FFFFFF8000
07FFFFFFC000
0FFF83FFE000
1FFC00FFE000
1FF8003FF000
3FF0001FF000
3FE0001FF800
3FE0000FF800
7FC0000FF800
7FC00007F800
7F800007FC00
7F800007FC00
7F800007FC00
7F800007FC00
FF800003FC00
FF800003FC00
FF800003FC00
FF800003FC00
FF800003FC00
FF800003FC00
FF800003FC00
FF800003FC00
FF800003FC00
FF800003FC00
FF800003FC00
FF800003FC00
FF800003FC00
FF800003FC00
FF800003FC00
FF800003FC00
FF800003FC00
FF800003FC00
FF800003FC00
FF800003FC00
FF800003FC00
FF800003FC00
FF800003FC00
FF800003FC00
FF800003FC00
FF800003FC00
FF800003FC00
FF800003FC00
FF800003FC00
FF800003FC00
FF800003FC00
FF800003FC00
FF800003FC00
FF800003FC00
FF800003FC00
FF800003FC00
FFFFFFFFFFF0
FFFFFFFFFFF0
FFFFFFFFFFF0
FFFFFFFFFFF0
FFFFFFFFFFF0
FFFFFFFFFFF0
FFFFFFFFFFF0
FFFFFFFFFFF0
ENDCHAR
STARTCHAR 00E5
ENCODING 229
SWIDTH 551 0
DWIDTH 49 0
BBX 44 85 4 0
BITMAP
0001FE000000
0003FF800000
0007FFC00000
000FFFE00000
001F87E00000
001F01F00000
003E01F00000
003E00F00000
003E00F00000
003E00F00000
003E01F00000
001F01F00000
001F83E00000
000FFFE00000
000FFFC00000
0007FF800000
0001FF000000
000030000000
000000000000
000000000000
000000000000
000018000000
0007FFC00000
003FFFF00000
007FFFFC0000
01FFFFFE0000
03FFFFFF0000
07FFFFFF8000
07FFFFFFC000
0FFF83FFE000
1FFC00FFE000
1FF8003FF000
3FF0001FF000
3FE0001FF800
3FE0000FF800
7FC0000FF800
7FC00007F800
7F800007FC00
7F800007FC00
7F800007FC00
7F800007FC00
FF800003FC00
FF800003FC00
FF800003FC00
FF800003FC00
FF800003FC00
FF800003FC00
FF800003FC00
FF800003FC00
FF800003FC00
FF800003FC00
FF800003FC00
FF800003FC00
FF800003FC00
FF800003FC00
FF800003FC00
FF800003FC00
FF800003FC00
FF800003FC00
FF800003FC00
FF800003FC00
FF800003FC00
FF800003FC00
FF800003FC00
FF800003FC00
FF800003FC00
FF800003FC00
FF800003FC00
FF800003FC00
FF800003FC00
FF800003FC00
FF800003FC00
FF800003FC00
FF800003FC00
FF800003FC00
FF800003FC00
FF800003FC00
FFFFFFFFFFF0
FFFFFFFFFFF0
FFFFFFFFFFF0
FFFFFFFFFFF0
FFFFFFFFFFF0
FFFFFFFFFFF0
FFFFFFFFFFF0
FFFFFFFFFFF0
ENDCHAR
STARTCHAR 00E7
ENCODING 231
SWIDTH 675 0
DWIDTH 60 0
BBX 57 83 3 -19
BITMAP
00000000E0000000
000000FFFF800000
000007FFFFF00000
00003FFFFFFE0000
0000FFFFFFFF8000
0001FFFFFFFFC000
0007FFFFFFFFF000
000FFFFFFFFFF800
001FFFFC0FFFFC00
003FFF8000FFFE00
007FFC00001FFF00
00FFF000000FFF80
01FFE0000003FF00
03FF80000001FE00
07FF00000000F800
07FE000000007000
0FFC000000002000
0FF8000000000000
1FF8000000000000
1FF0000000000000
3FF0000000000000
3FE0000000000000
3FC0000000000000
7FC0000000000000
7FC0000000000000
7F80000000000000
7F80000000000000
FF80000000000000
FF80000000000000
FF80000000000000
FF00000000000000
FF00000000000000
FF00000000000000
FF00000000000000
FF00000000000000
FF00000000000000
FF80000000000000
FF80000000000000
FF80000000000000
7F80000000000000
7FC0000000000000
7FC0000000000000
7FC0000000000000
3FE0000000000000
3FE0000000000000
3FF0000000000000
1FF0000000000000
1FF8000000000000
0FFC000000000000
0FFC000000002000
07FE000000007800
03FF80000000FC00
03FFC0000001FE00
01FFE0000003FF00
00FFF800000FFF80
007FFE00003FFF00
003FFFC001FFFE00
001FFFFFFFFFFC00
000FFFFFFFFFF800
0003FFFFFFFFE000
0001FFFFFFFFC000
00007FFFFFFF0000
00001FFFFFFC0000
000003FFFFF00000
0000007FFF000000
0000000F80000000
0000000F80000000
0000000F80000000
0000000FE0000000
0000000FF0000000
00000001F8000000
000000007C000000
000000003C000000
000000003C000000
000002003E000000
000007003C000000
00000F807C000000
00001FC07C000000
00000FFFFC000000
000007FFF8000000
000003FFF0000000
000000FFE0000000
0000003F80000000
ENDCHAR
STARTCHAR 00E8
ENCODING 232
SWIDTH 495 0
DWIDTH 44 0
BBX 42 79 2 0
BITMAP
003F80000000
003F80000000
001FC0000000
000FC0000000
0007E0000000
0007E0000000
0003F0000000
0001F8000000
0001F8000000
0000FC000000
00007C000000
00003E000000
000000000000
000000000000
000000000000
000000000000
000000000000
03FFFFFE0000
03FFFFFE0000
03FFFFFE0000
03FFFFFE0000
03FFFFFE0000
03FFFFFE0000
03FFFFFE0000
03FFFFFE0000
03FE00000000
03FE00000000
03FE00000000
03FE00000000
03FE00000000
03FE00000000
03FE00000000
03FE00000000
03FE00000000
03FE00000000
03FE00000000
03FE00000000
03FE00000000
03FE00000000
03FE00000000
03FE00000000
03FE00000000
03FE00000000
03FE00000000
FFFFFFFFE000
FFFFFFFFE000
FFFFFFFFE000
FFFFFFFFE000
FFFFFFFFE000
FFFFFFFFE000
FFFFFFFFE000
03FE00000000
03FE00000000
03FE00000000
03FE00000000
03FE00000000
03FE00000000
03FE00000000
03FE00000000
03FE00000000
03FE00000000
03FE00000000
03FE00000000
03FE00000000
03FE00000000
03FE00000000
03FE00000000
03FE00000000
03FE00000000
03FE00000000
03FE00000000
03FFFFFFFFC0
03FFFFFFFFC0
03FFFFFFFFC0
03FFFFFFFFC0
03FFFFFFFFC0
03FFFFFFFFC0
03FFFFFFFFC0
03FFFFFFFFC0
ENDCHAR
STARTCHAR 00E9
ENCODING 233
SWIDTH 495 0
DWIDTH 44 0
BBX 42 79 2 0
BITMAP
000007F00000
00000FE00000
00000FC00000
00001FC00000
00001F800000
00003F000000
00007E000000
00007E000000
0000FC000000
0000F8000000
0001F0000000
0001F0000000
000000000000
000000000000
000000000000
000000000000
000000000000
03FFFFFE0000
03FFFFFE0000
03FFFFFE0000
03FFFFFE0000
03FFFFFE0000
03FFFFFE0000
03FFFFFE0000
03FFFFFE0000
03FE00000000
03FE00000000
03FE00000000
03FE00000000
03FE00000000
03FE00000000
03FE00000000
03FE00000000
03FE00000000
03FE00000000
03FE00000000
03FE00000000
03FE00000000
03FE00000000
03FE00000000
03FE00000000
03FE00000000
03FE00000000
03FE00000000
FFFFFFFFE000
FFFFFFFFE000
FFFFFFFFE000
FFFFFFFFE000
FFFFFFFFE000
FFFFFFFFE000
FFFFFFFFE000
03FE00000000
03FE00000000
03FE00000000
03FE00000000
03FE00000000
03FE00000000
03FE00000000
03FE00000000
03FE00000000
03FE00000000
03FE00000000
03FE00000000
03FE00000000
03FE00000000
03FE00000000
03FE00000000
03FE00000000
03FE00000000
03FE00000000
03FE00000000
03FFFFFFFFC0
03FFFFFFFFC0
03FFFFFFFFC0
03FFFFFFFFC0
03FFFFFFFFC0
03FFFFFFFFC0
03FFFFFFFFC0
03FFFFFFFFC0
ENDCHAR
STARTCHAR 00EA
ENCODING 234
SWIDTH 495 0
DWIDTH 44 0
BBX 42 79 2 0
BITMAP
0003FF000000
0007FF800000
000FFF800000
001FFFC00000
001FDFE00000
003F8FF00000
007F07F00000
00FF03F80000
00FE01FC0000
01FC00FE0000
03F800FF0000
07F0007F0000
000000000000
000000000000
000000000000
000000000000
000000000000
03FFFFFE0000
03FFFFFE0000
03FFFFFE0000
03FFFFFE0000
03FFFFFE0000
03FFFFFE0000
03FFFFFE0000
03FFFFFE0000
03FE00000000
03FE00000000
03FE00000000
03FE00000000
03FE00000000
03FE00000000
03FE00000000
03FE00000000
03FE00000000
03FE00000000
03FE00000000
03FE00000000
03FE00000000
03FE00000000
03FE00000000
03FE00000000
03FE00000000
03FE00000000
03FE00000000
FFFFFFFFE000
FFFFFFFFE000
FFFFFFFFE000
FFFFFFFFE000
FFFFFFFFE000
FFFFFFFFE000
FFFFFFFFE000
03FE00000000
03FE00000000
03FE00000000
03FE00000000
03FE00000000
03FE00000000
03FE00000000
03FE00000000
03FE00000000
03FE00000000
03FE00000000
03FE00000000
03FE00000000
03FE00000000
03FE00000000
03FE00000000
03FE00000000
03FE00000000
03FE00000000
03FE00000000
03FFFFFFFFC0
03FFFFFFFFC0
03FFFFFFFFC0
03FFFFFFFFC0
03FFFFFFFFC0
03FFFFFFFFC0
03FFFFFFFFC0
03FFFFFFFFC0
ENDCHAR
STARTCHAR 00EB
ENCODING 235
SWIDTH 495 0
DWIDTH 44 0
BBX 42 79 2 0
BITMAP
03F8003F0000
07FC00FFC000
0FFE01FFE000
1FFE01FFE000
1FFF01FFE000
1FFF03FFF000
1FFF03FFF000
1FFF01FFE000
1FFE01FFE000
0FFE01FFE000
07FC00FFC000
03F8007F8000
000000080000
000000000000
000000000000
000000000000
000000000000
03FFFFFE0000
03FFFFFE0000
03FFFFFE0000
03FFFFFE0000
03FFFFFE0000
03FFFFFE0000
03FFFFFE0000
03FFFFFE0000
03FE00000000
03FE00000000
03FE00000000
03FE00000000
03FE00000000
03FE00000000
03FE00000000
03FE00000000
03FE00000000
03FE00000000
03FE00000000
03FE00000000
03FE00000000
03FE00000000
03FE00000000
03FE00000000
03FE00000000
03FE00000000
03FE00000000
FFFFFFFFE000
FFFFFFFFE000
FFFFFFFFE000
FFFFFFFFE000
FFFFFFFFE000
FFFFFFFFE000
FFFFFFFFE000
03FE00000000
03FE00000000
03FE00000000
03FE00000000
03FE00000000
03FE00000000
03FE00000000
03FE00000000
03FE00000000
03FE00000000
03FE00000000
03FE00000000
03FE00000000
03FE00000000
03FE00000000
03FE00000000
03FE00000000
03FE00000000
03FE00000000
03FE00000000
03FFFFFFFFC0
03FFFFFFFFC0
03FFFFFFFFC0
03FFFFFFFFC0
03FFFFFFFFC0
03FFFFFFFFC0
03FFFFFFFFC0
03FFFFFFFFC0
ENDCHAR
STARTCHAR 00EC
ENCODING 236
SWIDTH 191 0
DWIDTH 17 0
BBX 13 55 0 0
BITMAP
FE00
FE00
7F00
3F00
1F80
1FC0
0FC0
07E0
03E0
03F0
01F8
00F8
0000
0000
0000
0000
0000
07F8
07F8
07F8
07F8
07F8
07F8
07F8
07F8
07F8
07F8
07F8
07F8
07F8
07F8
07F8
07F8
07F8
07F8
07F8
07F8
07F8
07F8
07F8
07F8
07F8
07F8
07F8
07F8
07F8
07F8
07F8
07F8
07F8
07F8
07F8
07F8
07F8
07F8
ENDCHAR
STARTCHAR 00ED
ENCODING 237
SWIDTH 191 0
DWIDTH 17 0
BBX 13 55 5 0
BITMAP
03F8
07F0
07F0
0FE0
0FC0
1F80
1F80
3F00
7E00
7C00
FC00
F800
0000
0000
0000
0000
0000
FF00
FF00
FF00
FF00
FF00
FF00
FF00
FF00
FF00
FF00
FF00
FF00
FF00
FF00
FF00
FF00
FF00
FF00
FF00
FF00
FF00
FF00
FF00
FF00
FF00
FF00
FF00
FF00
FF00
FF00
FF00
FF00
FF00
FF00
FF00
FF00
FF00
FF00
ENDCHAR
STARTCHAR 00EE
ENCODING 238
SWIDTH 191 0
DWIDTH 17 0
BBX 27 55 -5 0
BITMAP
007FE000
00FFF000
01FFF800
01FFF800
03F9FC00
07F1FE00
0FF0FF00
1FE07F00
1FC03F80
3F801FC0
7F000FE0
FE0007E0
00000000
00000000
00000000
00000000
00000000
003FC000
003FC000
003FC000
003FC000
003FC000
003FC000
003FC000
003FC000
003FC000
003FC000
003FC000
003FC000
003FC000
003FC000
003FC000
003FC000
003FC000
003FC000
003FC000
003FC000
003FC000
003FC000
003FC000
003FC000
003FC000
003FC000
003FC000
003FC000
003FC000
003FC000
003FC000
003FC000
003FC000
003FC000
003FC000
003FC000
003FC000
003FC000
ENDCHAR
STARTCHAR 00EF
ENCODING 239
SWIDTH 191 0
DWIDTH 17 0
BBX 33 55 -7 0
BITMAP
1FC001FC00
3FE003FE00
7FF007FF00
FFF80FFF00
FFF80FFF80
FFF80FFF80
FFF80FFF80
FFF80FFF80
FFF80FFF00
7FF007FF00
3FE007FE00
1FC001FC00
0200000000
0000000000
0000000000
0000000000
0000000000
000FF00000
000FF00000
000FF00000
000FF00000
000FF00000
000FF00000
000FF00000
000FF00000
000FF00000
000FF00000
000FF00000
000FF00000
000FF00000
000FF00000
000FF00000
000FF00000
000FF00000
000FF00000
000FF00000
000FF00000
000FF00000
000FF00000
000FF00000
000FF00000
000FF00000
000FF00000
000FF00000
000FF00000
000FF00000
000FF00000
000FF00000
000FF00000
000FF00000
000FF00000
000FF00000
000FF00000
000FF00000
000FF00000
ENDCHAR
STARTCHAR 00F1
ENCODING 241
SWIDTH 517 0
DWIDTH 46 0
BBX 41 79 1 0
BITMAP
000180000000
001FF8010000
003FFFFF0000
003FFFFF0000
003FFFFF0000
003FFFFF0000
00300FFF0000
000001F80000
000000000000
000000000000
000000000000
000000000000
000000000000
000000000000
000000000000
040000000000
0E0000000000
1F0000007F80
1FC000007F80
3FE000007F80
7FF000007F80
FFFC00007F80
7FFE00007F80
1FFF00007F80
0FFF80007F80
0FFFE0007F80
0FFFF0007F80
0FFFF8007F80
0FFFFE007F80
0FFFFF007F80
0FFFFF807F80
0FF7FFC07F80
0FF3FFF07F80
0FF0FFF87F80
0FF07FFC7F80
0FF03FFF7F80
0FF00FFFFF80
0FF007FFFF80
0FF003FFFF80
0FF001FFFF80
0FF0007FFF80
0FF0003FFF80
0FF0001FFF80
0FF0000FFF80
0FF00003FF80
0FF00001FF80
0FF00000FF80
0FF000007F80
0FF000007F80
0FF000007F80
0FF000007F80
0FF000007F80
0FF000007F80
0FF000007F80
0FF000007F80
0FF000007F80
0FF000007F80
0FF000007F80
0FF000007F80
0FF000007F80
0FF000007F80
0FF000007F80
0FF000007F80
0FF000007F80
0FF000007F80
0FF000007F80
0FF000007F80
0FF000007F80
0FF000007F80
0FF000007F80
0FF000007F80
0FF000007F80
0FF000007F80
0FF000007F80
0FF000007F80
0FF000007F80
0FF000007F80
0FF000007F80
0FF000007F80
ENDCHAR
STARTCHAR 00F2
ENCODING 242
SWIDTH 810 0
DWIDTH 72 0
BBX 67 80 3 -1
BITMAP
000000FE0000000000
0000007F0000000000
0000003F0000000000
0000003F8000000000
0000001F8000000000
0000000FC000000000
00000007E000000000
00000007E000000000
00000003F000000000
00000001F000000000
00000000F800000000
00000000F800000000
000000000000000000
000000000000000000
000000000000000000
00000000E000000000
000000FFFFC0000000
000007FFFFF8000000
00001FFFFFFF000000
00007FFFFFFFC00000
0001FFFFFFFFE00000
0007FFFFFFFFF80000
000FFFFFFFFFFC0000
001FFFFE0FFFFF0000
003FFF80007FFF8000
007FFE00000FFFC000
00FFF8000003FFE000
01FFE0000000FFF000
03FFC00000007FF000
07FF000000003FF800
07FE000000001FFC00
0FFC000000000FFC00
0FFC0000000007FE00
1FF80000000003FE00
1FF00000000003FF00
3FF00000000001FF00
3FE00000000000FF80
3FE00000000000FF80
7FC00000000000FF80
7FC000000000007FC0
7F8000000000007FC0
7F8000000000007FC0
FF8000000000003FC0
FF8000000000003FC0
FF8000000000003FC0
FF0000000000003FE0
FF0000000000003FE0
FF0000000000003FE0
FF0000000000003FE0
FF0000000000003FE0
FF0000000000003FC0
FF8000000000003FC0
FF8000000000003FC0
FF8000000000003FC0
7F8000000000007FC0
7F8000000000007FC0
7FC000000000007F80
7FC00000000000FF80
3FE00000000000FF80
3FE00000000001FF80
3FF00000000001FF00
1FF00000000003FF00
1FF80000000003FE00
0FFC0000000007FE00
0FFE000000000FFC00
07FF000000001FF800
03FF800000003FF800
03FFC00000007FF000
01FFE0000001FFE000
00FFF8000007FFC000
007FFE00001FFFC000
003FFFC0007FFF8000
001FFFFFFFFFFE0000
000FFFFFFFFFFC0000
0003FFFFFFFFF80000
0001FFFFFFFFE00000
00007FFFFFFF800000
00001FFFFFFE000000
000003FFFFF8000000
0000003FFF80000000
ENDCHAR
STARTCHAR 00F3
ENCODING 243
SWIDTH 810 0
DWIDTH 72 0
BBX 67 80 3 -1
BITMAP
000000001FC0000000
000000001FC0000000
000000003F80000000
000000003F00000000
000000007E00000000
00000000FE00000000
00000000FC00000000
00000001F800000000
00000001F000000000
00000003F000000000
00000003E000000000
00000007C000000000
000000000000000000
000000000000000000
000000000000000000
00000000E000000000
000000FFFFC0000000
000007FFFFF8000000
00001FFFFFFF000000
00007FFFFFFFC00000
0001FFFFFFFFE00000
0007FFFFFFFFF80000
000FFFFFFFFFFC0000
001FFFFE0FFFFF0000
003FFF80007FFF8000
007FFE00000FFFC000
00FFF8000003FFE000
01FFE0000000FFF000
03FFC00000007FF000
07FF000000003FF800
07FE000000001FFC00
0FFC000000000FFC00
0FFC0000000007FE00
1FF80000000003FE00
1FF00000000003FF00
3FF00000000001FF00
3FE00000000000FF80
3FE00000000000FF80
7FC00000000000FF80
7FC000000000007FC0
7F8000000000007FC0
7F8000000000007FC0
FF8000000000003FC0
FF8000000000003FC0
FF8000000000003FC0
FF0000000000003FE0
FF0000000000003FE0
FF0000000000003FE0
FF0000000000003FE0
FF0000000000003FE0
FF0000000000003FC0
FF8000000000003FC0
FF8000000000003FC0
FF8000000000003FC0
7F8000000000007FC0
7F8000000000007FC0
7FC000000000007F80
7FC00000000000FF80
3FE00000000000FF80
3FE00000000001FF80
3FF00000000001FF00
1FF00000000003FF00
1FF80000000003FE00
0FFC0000000007FE00
0FFE000000000FFC00
07FF000000001FF800
03FF800000003FF800
03FFC00000007FF000
01FFE0000001FFE000
00FFF8000007FFC000
007FFE00001FFFC000
003FFFC0007FFF8000
001FFFFFFFFFFE0000
000FFFFFFFFFFC0000
0003FFFFFFFFF80000
0001FFFFFFFFE00000
00007FFFFFFF800000
00001FFFFFFE000000
000003FFFFF8000000
0000003FFF80000000
ENDCHAR
STARTCHAR 00F4
ENCODING 244
SWIDTH 810 0
DWIDTH 72 0
BBX 67 80 3 -1
BITMAP
0000000FFC00000000
0000001FFE00000000
0000001FFF00000000
0000003FFF80000000
0000007FBF80000000
000000FF1FC0000000
000000FE0FE0000000
000001FC07F0000000
000003F807F8000000
000007F003F8000000
000007F001FC000000
00000FE000FE000000
000000000000000000
000000000000000000
000000000000000000
00000000E000000000
000000FFFFC0000000
000007FFFFF8000000
00001FFFFFFF000000
00007FFFFFFFC00000
0001FFFFFFFFE00000
0007FFFFFFFFF80000
000FFFFFFFFFFC0000
001FFFFE0FFFFF0000
003FFF80007FFF8000
007FFE00000FFFC000
00FFF8000003FFE000
01FFE0000000FFF000
03FFC00000007FF000
07FF000000003FF800
07FE000000001FFC00
0FFC000000000FFC00
0FFC0000000007FE00
1FF80000000003FE00
1FF00000000003FF00
3FF00000000001FF00
3FE00000000000FF80
3FE00000000000FF80
7FC00000000000FF80
7FC000000000007FC0
7F8000000000007FC0
7F8000000000007FC0
FF8000000000003FC0
FF8000000000003FC0
FF8000000000003FC0
FF0000000000003FE0
FF0000000000003FE0
FF0000000000003FE0
FF0000000000003FE0
FF0000000000003FE0
FF0000000000003FC0
FF8000000000003FC0
FF8000000000003FC0
FF8000000000003FC0
7F8000000000007FC0
7F8000000000007FC0
7FC000000000007F80
7FC00000000000FF80
3FE00000000000FF80
3FE00000000001FF80
3FF00000000001FF00
1FF00000000003FF00
1FF80000000003FE00
0FFC0000000007FE00
0FFE000000000FFC00
07FF000000001FF800
03FF800000003FF800
03FFC00000007FF000
01FFE0000001FFE000
00FFF8000007FFC000
007FFE00001FFFC000
003FFFC0007FFF8000
001FFFFFFFFFFE0000
000FFFFFFFFFFC0000
0003FFFFFFFFF80000
0001FFFFFFFFE00000
00007FFFFFFF800000
00001FFFFFFE000000
000003FFFFF8000000
0000003FFF80000000
ENDCHAR
STARTCHAR 00F5
ENCODING 245
SWIDTH 810 0
DWIDTH 72 0
BBX 67 80 3 -1
BITMAP
000000300000000000
000003FF0020000000
000007FFFFE0000000
000007FFFFE0000000
000007FFFFE0000000
000007FFFFE0000000
00000601FFE0000000
000000003F00000000
000000000000000000
000000000000000000
000000000000000000
000000000000000000
000000000000000000
000000000000000000
000000000000000000
00000000E000000000
000000FFFFC0000000
000007FFFFF8000000
00001FFFFFFF000000
00007FFFFFFFC00000
0001FFFFFFFFE00000
0007FFFFFFFFF80000
000FFFFFFFFFFC0000
001FFFFE0FFFFF0000
003FFF80007FFF8000
007FFE00000FFFC000
00FFF8000003FFE000
01FFE0000000FFF000
03FFC00000007FF000
07FF000000003FF800
07FE000000001FFC00
0FFC000000000FFC00
0FFC0000000007FE00
1FF80000000003FE00
1FF00000000003FF00
3FF00000000001FF00
3FE00000000000FF80
3FE00000000000FF80
7FC00000000000FF80
7FC000000000007FC0
7F8000000000007FC0
7F8000000000007FC0
FF8000000000003FC0
FF8000000000003FC0
FF8000000000003FC0
FF0000000000003FE0
FF0000000000003FE0
FF0000000000003FE0
FF0000000000003FE0
FF0000000000003FE0
FF0000000000003FC0
FF8000000000003FC0
FF8000000000003FC0
FF8000000000003FC0
7F8000000000007FC0
7F8000000000007FC0
7FC000000000007F80
7FC00000000000FF80
3FE00000000000FF80
3FE00000000001FF80
3FF00000000001FF00
1FF00000000003FF00
1FF80000000003FE00
0FFC0000000007FE00
0FFE000000000FFC00
07FF000000001FF800
03FF800000003FF800
03FFC00000007FF000
01FFE0000001FFE000
00FFF8000007FFC000
007FFE00001FFFC000
003FFFC0007FFF8000
001FFFFFFFFFFE0000
000FFFFFFFFFFC0000
0003FFFFFFFFF80000
0001FFFFFFFFE00000
00007FFFFFFF800000
00001FFFFFFE000000
000003FFFFF8000000
0000003FFF80000000
ENDCHAR
STARTCHAR 00F6
ENCODING 246
SWIDTH 810 0
DWIDTH 72 0
BBX 67 80 3 -1
BITMAP
000007E000FE000000
00001FF801FF000000
00003FF803FF800000
00003FFC03FFC00000
00003FFC07FFC00000
00007FFC07FFC00000
00007FFC07FFC00000
00007FFC07FFC00000
00003FFC07FFC00000
00003FFC03FF800000
00001FF801FF000000
00000FF000FE000000
000001000010000000
000000000000000000
000000000000000000
00000000E000000000
000000FFFFC0000000
000007FFFFF8000000
00001FFFFFFF000000
00007FFFFFFFC00000
0001FFFFFFFFE00000
0007FFFFFFFFF80000
000FFFFFFFFFFC0000
001FFFFE0FFFFF0000
003FFF80007FFF8000
007FFE00000FFFC000
00FFF8000003FFE000
01FFE0000000FFF000
03FFC00000007FF000
07FF000000003FF800
07FE000000001FFC00
0FFC000000000FFC00
0FFC0000000007FE00
1FF80000000003FE00
1FF00000000003FF00
3FF00000000001FF00
3FE00000000000FF80
3FE00000000000FF80
7FC00000000000FF80
7FC000000000007FC0
7F8000000000007FC0
7F8000000000007FC0
FF8000000000003FC0
FF8000000000003FC0
FF8000000000003FC0
FF0000000000003FE0
FF0000000000003FE0
FF0000000000003FE0
FF0000000000003FE0
FF0000000000003FE0
FF0000000000003FC0
FF8000000000003FC0
FF8000000000003FC0
FF8000000000003FC0
7F8000000000007FC0
7F8000000000007FC0
7FC000000000007F80
7FC00000000000FF80
3FE00000000000FF80
3FE00000000001FF80
3FF00000000001FF00
1FF00000000003FF00
1FF80000000003FE00
0FFC0000000007FE00
0FFE000000000FFC00
07FF000000001FF800
03FF800000003FF800
03FFC00000007FF000
01FFE0000001FFE000
00FFF8000007FFC000
007FFE00001FFFC000
003FFFC0007FFF8000
001FFFFFFFFFFE0000
000FFFFFFFFFFC0000
0003FFFFFFFFF80000
0001FFFFFFFFE00000
00007FFFFFFF800000
00001FFFFFFE000000
000003FFFFF8000000
0000003FFF80000000
ENDCHAR
STARTCHAR 00F7
ENCODING 247
SWIDTH 551 0
DWIDTH 49 0
BBX 40 39 5 9
BITMAP
00007E0000
0000FF0000
0001FF8000
0003FF8000
0003FF8000
0003FFC000
0003FF8000
0003FF8000
0001FF8000
0000FF0000
00007C0000
0000000000
0000000000
0000000000
0000000000
0000000000
FFFFFFFFFF
FFFFFFFFFF
FFFFFFFFFF
FFFFFFFFFF
FFFFFFFFFF
FFFFFFFFFF
FFFFFFFFFF
0000000000
0000000000
0000000000
0000000000
0000000000
00007E0000
0000FF0000
0001FF8000
0003FF8000
0003FF8000
0003FFC000
0003FF8000
0003FF8000
0001FF8000
0000FF0000
00007E0000
ENDCHAR
STARTCHAR 00F8
ENCODING 248
SWIDTH 787 0
DWIDTH 70 0
BBX 67 68 2 -3
BITMAP
000000000000003000
00000001F000007800
0000007FFFC000FC00
000007FFFFFC01FE00
00001FFFFFFF03FE00
00007FFFFFFFC7FC00
0001FFFFFFFFF7F800
0003FFFFFFFFFFF000
000FFFFFFFFFFFE000
001FFFFC07FFFFC000
003FFF80007FFF8000
007FFE00000FFFC000
00FFF8000003FFE000
01FFE0000001FFF000
03FFC0000003FFF000
03FF80000007FFF800
07FE0000000FFFFC00
0FFC0000001FEFFC00
0FFC0000003FC7FE00
1FF80000007FC3FE00
1FF0000000FF81FF00
3FF0000000FF01FF00
3FE0000001FE00FF80
3FE0000003FC00FF80
7FC0000007F800FF80
7FC000000FF0007FC0
7FC000001FE0007FC0
7F8000003FE0007FC0
FF8000007FC0003FC0
FF8000007F80003FC0
FF800000FF00003FC0
FF800001FE00003FE0
FF000003FC00003FE0
FF000007F800003FE0
FF00000FF800003FE0
FF80001FF000003FE0
FF80001FE000003FE0
FF80003FC000003FC0
FF80007F8000003FC0
FF8000FF0000003FC0
7F8001FE0000007FC0
7FC003FC0000007FC0
7FC007FC0000007FC0
7FC00FF8000000FF80
3FE00FF0000000FF80
3FE01FE0000001FF80
1FF03FC0000001FF00
1FF07F80000003FF00
1FF8FF00000003FE00
0FFDFE00000007FE00
07FFFE0000000FFC00
07FFFC0000001FFC00
03FFF80000003FF800
01FFF00000007FF000
01FFE0000001FFE000
00FFF8000007FFC000
007FFE00001FFFC000
00FFFFC000FFFF0000
01FFFFFFFFFFFE0000
01FFFFFFFFFFFC0000
03FFFFFFFFFFF80000
07F9FFFFFFFFE00000
0FF07FFFFFFF800000
1FE01FFFFFFE000000
1FC003FFFFF8000000
07C0003FFF80000000
038000000000000000
010000000000000000
ENDCHAR
STARTCHAR 00F9
ENCODING 249
SWIDTH 506 0
DWIDTH 45 0
BBX 37 80 4 -1
BITMAP
007F000000
003F800000
001FC00000
000FC00000
000FE00000
0007E00000
0003F00000
0001F00000
0001F80000
0000FC0000
00007C0000
00003E0000
0000000000
0000000000
0000000000
0000000000
0000000000
FF000007F8
FF000007F8
FF000007F8
FF000007F8
FF000007F8
FF000007F8
FF000007F8
FF000007F8
FF000007F8
FF000007F8
FF000007F8
FF000007F8
FF000007F8
FF000007F8
FF000007F8
FF000007F8
FF000007F8
FF000007F8
FF000007F8
FF000007F8
FF000007F8
FF000007F8
FF000007F8
FF000007F8
FF000007F8
FF000007F8
FF000007F8
FF000007F8
FF000007F8
FF000007F8
FF000007F8
FF000007F8
FF000007F8
FF000007F8
FF000007F8
FF000007F8
FF000007F8
FF000007F8
FF000007F8
FF000007F8
FF000007F8
FF000007F8
FF000007F8
FF000007F8
FF000007F8
FF800007F8
FF800007F8
FF80000FF8
7F80000FF8
7FC0000FF0
7FC0001FF0
7FE0001FF0
3FE0003FE0
3FF0007FE0
1FFC01FFC0
1FFFDFFFC0
0FFFFFFF80
07FFFFFF00
03FFFFFE00
01FFFFFC00
00FFFFF800
003FFFE000
0007FF8000
ENDCHAR
STARTCHAR 00FA
ENCODING 250
SWIDTH 506 0
DWIDTH 45 0
BBX 37 80 4 -1
BITMAP
000007F000
00000FE000
00000FC000
00001FC000
00003F8000
00003F0000
00007E0000
00007E0000
0000FC0000
0000F80000
0001F00000
0003F00000
0000000000
0000000000
0000000000
0000000000
0000000000
FF000007F8
FF000007F8
FF000007F8
FF000007F8
FF000007F8
FF000007F8
FF000007F8
FF000007F8
FF000007F8
FF000007F8
FF000007F8
FF000007F8
FF000007F8
FF000007F8
FF000007F8
FF000007F8
FF000007F8
FF000007F8
FF000007F8
FF000007F8
FF000007F8
FF000007F8
FF000007F8
FF000007F8
FF000007F8
FF000007F8
FF000007F8
FF000007F8
FF000007F8
FF000007F8
FF000007F8
FF000007F8
FF000007F8
FF000007F8
FF000007F8
FF000007F8
FF000007F8
FF000007F8
FF000007F8
FF000007F8
FF000007F8
FF000007F8
FF000007F8
FF000007F8
FF000007F8
FF800007F8
FF800007F8
FF80000FF8
7F80000FF8
7FC0000FF0
7FC0001FF0
7FE0001FF0
3FE0003FE0
3FF0007FE0
1FFC01FFC0
1FFFDFFFC0
0FFFFFFF80
07FFFFFF00
03FFFFFE00
01FFFFFC00
00FFFFF800
003FFFE000
0007FF8000
ENDCHAR
STARTCHAR 00FB
ENCODING 251
SWIDTH 506 0
DWIDTH 45 0
BBX 37 80 4 -1
BITMAP
0003FF0000
0007FF8000
000FFF8000
001FFFC000
003FDFE000
003F8FF000
007F07F000
00FE03F800
01FE01FC00
01FC00FE00
03F800FE00
07F0007F00
0000000000
0000000000
0000000000
0000000000
0000000000
FF000007F8
FF000007F8
FF000007F8
FF000007F8
FF000007F8
FF000007F8
FF000007F8
FF000007F8
FF000007F8
FF000007F8
FF000007F8
FF000007F8
FF000007F8
FF000007F8
FF000007F8
FF000007F8
FF000007F8
FF000007F8
FF000007F8
FF000007F8
FF000007F8
FF000007F8
FF000007F8
FF000007F8
FF000007F8
FF000007F8
FF000007F8
FF000007F8
FF000007F8
FF000007F8
FF000007F8
FF000007F8
FF000007F8
FF000007F8
FF000007F8
FF000007F8
FF000007F8
FF000007F8
FF000007F8
FF000007F8
FF000007F8
FF000007F8
FF000007F8
FF000007F8
FF000007F8
FF800007F8
FF800007F8
FF80000FF8
7F80000FF8
7FC0000FF0
7FC0001FF0
7FE0001FF0
3FE0003FE0
3FF0007FE0
1FFC01FFC0
1FFFDFFFC0
0FFFFFFF80
07FFFFFF00
03FFFFFE00
01FFFFFC00
00FFFFF800
003FFFE000
0007FF8000
ENDCHAR
STARTCHAR 00FC
ENCODING 252
SWIDTH 506 0
DWIDTH 45 0
BBX 37 80 4 -1
BITMAP
03F8003F00
07FC00FFC0
0FFE01FFC0
1FFE01FFE0
1FFF03FFE0
1FFF03FFE0
1FFF03FFE0
1FFF03FFE0
1FFE01FFE0
0FFE01FFE0
0FFC00FFC0
03F8007F80
0000000800
0000000000
0000000000
0000000000
0000000000
FF000007F8
FF000007F8
FF000007F8
FF000007F8
FF000007F8
FF000007F8
FF000007F8
FF000007F8
FF000007F8
FF000007F8
FF000007F8
FF000007F8
FF000007F8
FF000007F8
FF000007F8
FF000007F8
FF000007F8
FF000007F8
FF000007F8
FF000007F8
FF000007F8
FF000007F8
FF000007F8
FF000007F8
FF000007F8
FF000007F8
FF000007F8
FF000007F8
FF000007F8
FF000007F8
FF000007F8
FF000007F8
FF000007F8
FF000007F8
FF000007F8
FF000007F8
FF000007F8
FF000007F8
FF000007F8
FF000007F8
FF000007F8
FF000007F8
FF000007F8
FF000007F8
FF000007F8
FF800007F8
FF800007F8
FF80000FF8
7F80000FF8
7FC0000FF0
7FC0001FF0
7FE0001FF0
3FE0003FE0
3FF0007FE0
1FFC01FFC0
1FFFDFFFC0
0FFFFFFF80
07FFFFFF00
03FFFFFE00
01FFFFFC00
00FFFFF800
003FFFE000
0007FF8000
ENDCHAR
STARTCHAR 00FD
ENCODING 253
SWIDTH 495 0
DWIDTH 44 0
BBX 38 79 3 0
BITMAP
000007F000
000007F000
00000FE000
00000FC000
00001F8000
00003F8000
00003F0000
00007E0000
00007C0000
0000FC0000
0000F80000
0001F00000
0000000000
0000000000
0000000000
0000000000
0000000000
FF800003FC
FF800003FC
FF800003FC
FF800003FC
FF800003FC
FF800003FC
FF800003FC
FF800003FC
FF800003FC
FF800003FC
FF800003FC
FF800003FC
FF800003FC
FF800003FC
FF800003FC
FF800003FC
FF800003FC
FF800003FC
FF800003FC
FF800003FC
FF800003FC
FF800003FC
FF800003FC
FF800003FC
FF800003FC
FF800003FC
FF800003FC
FF800007FC
FF800007FC
7F800007FC
7F800007FC
7F800007FC
7FC00007F8
7FC0000FF8
3FE0000FF8
3FE0001FF0
3FF0003FF0
1FF8007FF0
1FFC00FFE0
0FFFCFFFC0
07FFFFFFC0
07FFFFFF80
03FFFFFF00
01FFFFFE00
007FFFFC00
001FFFF000
0007FF8000
0001FE0000
0001FE0000
0001FE0000
0001FE0000
0001FE0000
0001FE0000
0001FE0000
0001FE0000
0001FE0000
0001FE0000
0001FE0000
0001FE0000
0001FE0000
0001FE0000
0001FE0000
ENDCHAR
STARTCHAR 00FF
ENCODING 255
SWIDTH 495 0
DWIDTH 44 0
BBX 38 79 3 0
BITMAP
03F8003F80
07FC007FC0
0FFE00FFE0
0FFF01FFE0
1FFF01FFF0
1FFF01FFF0
1FFF01FFF0
1FFF01FFF0
0FFF01FFF0
0FFE00FFE0
07FE007FC0
03F8003F80
0020000400
0000000000
0000000000
0000000000
0000000000
FF800003FC
FF800003FC
FF800003FC
FF800003FC
FF800003FC
FF800003FC
FF800003FC
FF800003FC
FF800003FC
FF800003FC
FF800003FC
FF800003FC
FF800003FC
FF800003FC
FF800003FC
FF800003FC
FF800003FC
FF800003FC
FF800003FC
FF800003FC
FF800003FC
FF800003FC
FF800003FC
FF800003FC
FF800003FC
FF800003FC
FF800003FC
FF800007FC
FF800007FC
7F800007FC
7F800007FC
7F800007FC
7FC00007F8
7FC0000FF8
3FE0000FF8
3FE0001FF0
3FF0003FF0
1FF8007FF0
1FFC00FFE0
0FFFCFFFC0
07FFFFFFC0
07FFFFFF80
03FFFFFF00
01FFFFFE00
007FFFFC00
001FFFF000
0007FF8000
0001FE0000
0001FE0000
0001FE0000
0001FE0000
0001FE0000
0001FE0000
0001FE0000
0001FE0000
0001FE0000
0001FE0000
0001FE0000
0001FE0000
0001FE0000
0001FE0000
0001FE0000
ENDCHAR
STARTCHAR 0100
ENCODING 256
SWIDTH 551 0
DWIDTH 49 0
BBX 44 77 4 0
BITMAP
01FFFFFF0000
01FFFFFF0000
01FFFFFF0000
01FFFFFF0000
01FFFFFF0000
01FFFFFF0000
01FFFFFF0000
000000000000
000000000000
000000000000
000000000000
000000000000
000000000000
000018000000
0007FFC00000
003FFFF00000
007FFFFC0000
01FFFFFE0000
03FFFFFF0000
07FFFFFF8000
07FFFFFFC000
0FFF83FFE000
1FFC00FFE000
1FF8003FF000
3FF0001FF000
3FE0001FF800
3FE0000FF800
7FC0000FF800
7FC00007F800
7F800007FC00
7F800007FC00
7F800007FC00
7F800007FC00
FF800003FC00
FF800003FC00
FF800003FC00
FF800003FC00
FF800003FC00
FF800003FC00
FF800003FC00
FF800003FC00
FF800003FC00
FF800003FC00
FF800003FC00
FF800003FC00
FF800003FC00
FF800003FC00
FF800003FC00
FF800003FC00
FF800003FC00
FF800003FC00
FF800003FC00
FF800003FC00
FF800003FC00
FF800003FC00
FF800003FC00
FF800003FC00
FF800003FC00
FF800003FC00
FF800003FC00
FF800003FC00
FF800003FC00
FF800003FC00
FF800003FC00
FF800003FC00
FF800003FC00
FF800003FC00
FF800003FC00
FF800003FC00
FFFFFFFFFFF0
FFFFFFFFFFF0
FFFFFFFFFFF0
FFFFFFFFFFF0
FFFFFFFFFFF0
FFFFFFFFFFF0
FFFFFFFFFFF0
FFFFFFFFFFF0
ENDCHAR
STARTCHAR 0101
ENCODING 257
SWIDTH 551 0
DWIDTH 49 0
BBX 44 77 4 0
BITMAP
01FFFFFF0000
01FFFFFF0000
01FFFFFF0000
01FFFFFF0000
01FFFFFF0000
01FFFFFF0000
01FFFFFF0000
000000000000
000000000000
000000000000
000000000000
000000000000
000000000000
000018000000
0007FFC00000
003FFFF00000
007FFFFC0000
01FFFFFE0000
03FFFFFF0000
07FFFFFF8000
07FFFFFFC000
0FFF83FFE000
1FFC00FFE000
1FF8003FF000
3FF0001FF000
3FE0001FF800
3FE0000FF800
7FC0000FF800
7FC00007F800
7F800007FC00
7F800007FC00
7F800007FC00
7F800007FC00
FF800003FC00
FF800003FC00
FF800003FC00
FF800003FC00
FF800003FC00
FF800003FC00
FF800003FC00
FF800003FC00
FF800003FC00
FF800003FC00
FF800003FC00
FF800003FC00
FF800003FC00
FF800003FC00
FF800003FC00
FF800003FC00
FF800003FC00
FF800003FC00
FF800003FC00
FF800003FC00
FF800003FC00
FF800003FC00
FF800003FC00
FF800003FC00
FF800003FC00
FF800003FC00
FF800003FC00
FF800003FC00
FF800003FC00
FF800003FC00
FF800003FC00
FF800003FC00
FF800003FC00
FF800003FC00
FF800003FC00
FF800003FC00
FFFFFFFFFFF0
FFFFFFFFFFF0
FFFFFFFFFFF0
FFFFFFFFFFF0
FFFFFFFFFFF0
FFFFFFFFFFF0
FFFFFFFFFFF0
FFFFFFFFFFF0
ENDCHAR
STARTCHAR 0102
ENCODING 258
SWIDTH 551 0
DWIDTH 49 0
BBX 44 79 4 0
BITMAP
01F8003E0000
01F8003E0000
01F8007E0000
00FC007E0000
00FC00FC0000
007F01FC0000
007FFFF80000
003FFFF00000
001FFFE00000
0007FFC00000
0003FF000000
000000000000
000000000000
000000000000
000000000000
000018000000
0007FFC00000
003FFFF00000
007FFFFC0000
01FFFFFE0000
03FFFFFF0000
07FFFFFF8000
07FFFFFFC000
0FFF83FFE000
1FFC00FFE000
1FF8003FF000
3FF0001FF000
3FE0001FF800
3FE0000FF800
7FC0000FF800
7FC00007F800
7F800007FC00
7F800007FC00
7F800007FC00
7F800007FC00
FF800003FC00
FF800003FC00
FF800003FC00
FF800003FC00
FF800003FC00
FF800003FC00
FF800003FC00
FF800003FC00
FF800003FC00
FF800003FC00
FF800003FC00
FF800003FC00
FF800003FC00
FF800003FC00
FF800003FC00
FF800003FC00
FF800003FC00
FF800003FC00
FF800003FC00
FF800003FC00
FF800003FC00
FF800003FC00
FF800003FC00
FF800003FC00
FF800003FC00
FF800003FC00
FF800003FC00
FF800003FC00
FF800003FC00
FF800003FC00
FF800003FC00
FF800003FC00
FF800003FC00
FF800003FC00
FF800003FC00
FF800003FC00
FFFFFFFFFFF0
FFFFFFFFFFF0
FFFFFFFFFFF0
FFFFFFFFFFF0
FFFFFFFFFFF0
FFFFFFFFFFF0
FFFFFFFFFFF0
FFFFFFFFFFF0
ENDCHAR
STARTCHAR 0103
ENCODING 259
SWIDTH 551 0
DWIDTH 49 0
BBX 44 79 4 0
BITMAP
01F8003E0000
01F8003E0000
01F8007E0000
00FC007E0000
00FC00FC0000
007F01FC0000
007FFFF80000
003FFFF00000
001FFFE00000
0007FFC00000
0003FF000000
000000000000
000000000000
000000000000
000000000000
000018000000
0007FFC00000
003FFFF00000
007FFFFC0000
01FFFFFE0000
03FFFFFF0000
07FFFFFF8000
07FFFFFFC000
0FFF83FFE000
1FFC00FFE000
1FF8003FF000
3FF0001FF000
3FE0001FF800
3FE0000FF800
7FC0000FF800
7FC00007F800
7F800007FC00
7F800007FC00
7F800007FC00
7F800007FC00
FF800003FC00
FF800003FC00
FF800003FC00
FF800003FC00
FF800003FC00
FF800003FC00
FF800003FC00
FF800003FC00
FF800003FC00
FF800003FC00
FF800003FC00
FF800003FC00
FF800003FC00
FF800003FC00
FF800003FC00
FF800003FC00
FF800003FC00
FF800003FC00
FF800003FC00
FF800003FC00
FF800003FC00
FF800003FC00
FF800003FC00
FF800003FC00
FF800003FC00
FF800003FC00
FF800003FC00
FF800003FC00
FF800003FC00
FF800003FC00
FF800003FC00
FF800003FC00
FF800003FC00
FF800003FC00
FF800003FC00
FF800003FC00
FFFFFFFFFFF0
FFFFFFFFFFF0
FFFFFFFFFFF0
FFFFFFFFFFF0
FFFFFFFFFFF0
FFFFFFFFFFF0
FFFFFFFFFFF0
FFFFFFFFFFF0
ENDCHAR
STARTCHAR 0104
ENCODING 260
SWIDTH 551 0
DWIDTH 49 0
BBX 47 80 4 -16
BITMAP
000018000000
0007FFC00000
003FFFF00000
007FFFFC0000
01FFFFFE0000
03FFFFFF0000
07FFFFFF8000
07FFFFFFC000
0FFF83FFE000
1FFC00FFE000
1FF8003FF000
3FF0001FF000
3FE0001FF800
3FE0000FF800
7FC0000FF800
7FC00007F800
7F800007FC00
7F800007FC00
7F800007FC00
7F800007FC00
FF800003FC00
FF800003FC00
FF800003FC00
FF800003FC00
FF800003FC00
FF800003FC00
FF800003FC00
FF800003FC00
FF800003FC00
FF800003FC00
FF800003FC00
FF800003FC00
FF800003FC00
FF800003FC00
FF800003FC00
FF800003FC00
FF800003FC00
FF800003FC00
FF800003FC00
FF800003FC00
FF800003FC00
FF800003FC00
FF800003FC00
FF800003FC00
FF800003FC00
FF800003FC00
FF800003FC00
FF800003FC00
FF800003FC00
FF800003FC00
FF800003FC00
FF800003FC00
FF800003FC00
FF800003FC00
FF800003FC00
FF800003FC00
FFFFFFFFFFF0
FFFFFFFFFFF0
FFFFFFFFFFF0
FFFFFFFFFFF0
FFFFFFFFFFF0
FFFFFFFFFFF0
FFFFFFFFFFF0
FFFFFFFFFFF0
000000001FC0
000000003F00
000000007C00
00000000F800
00000001F000
00000001F000
00000001E000
00000003E000
00000003E000
00000003E008
00000001F01C
00000001F83E
00000001FFFE
00000000FFFE
000000007FF8
000000001FE0
ENDCHAR
STARTCHAR 0105
ENCODING 261
SWIDTH 551 0
DWIDTH 49 0
BBX 47 80 4 -16
BITMAP
000018000000
0007FFC00000
003FFFF00000
007FFFFC0000
01FFFFFE0000
03FFFFFF0000
07FFFFFF8000
07FFFFFFC000
0FFF83FFE000
1FFC00FFE000
1FF8003FF000
3FF0001FF000
3FE0001FF800
3FE0000FF800
7FC0000FF800
7FC00007F800
7F800007FC00
7F800007FC00
7F800007FC00
7F800007FC00
FF800003FC00
FF800003FC00
FF800003FC00
FF800003FC00
FF800003FC00
FF800003FC00
FF800003FC00
FF800003FC00
FF800003FC00
FF800003FC00
FF800003FC00
FF800003FC00
FF800003FC00
FF800003FC00
FF800003FC00
FF800003FC00
FF800003FC00
FF800003FC00
FF800003FC00
FF800003FC00
FF800003FC00
FF800003FC00
FF800003FC00
FF800003FC00
FF800003FC00
FF800003FC00
FF800003FC00
FF800003FC00
FF800003FC00
FF800003FC00
FF800003FC00
FF800003FC00
FF800003FC00
FF800003FC00
FF800003FC00
FF800003FC00
FFFFFFFFFFF0
FFFFFFFFFFF0
FFFFFFFFFFF0
FFFFFFFFFFF0
FFFFFFFFFFF0
FFFFFFFFFFF0
FFFFFFFFFFF0
FFFFFFFFFFF0
000000001FC0
000000003F00
000000007C00
00000000F800
00000001F000
00000001F000
00000001E000
00000003E000
00000003E000
00000003E008
00000001F01C
00000001F83E
00000001FFFE
00000000FFFE
000000007FF8
000000001FE0
ENDCHAR
STARTCHAR 0106
ENCODING 262
SWIDTH 675 0
DWIDTH 60 0
BBX 57 80 3 -1
BITMAP
000000001FC00000
000000003F800000
000000003F000000
000000007E000000
00000000FE000000
00000000FC000000
00000001F8000000
00000001F8000000
00000003F0000000
00000003E0000000
00000007C0000000
0000000FC0000000
0000000000000000
0000000000000000
0000000000000000
00000000E0000000
000000FFFF800000
000007FFFFF00000
00003FFFFFFE0000
0000FFFFFFFF8000
0001FFFFFFFFC000
0007FFFFFFFFF000
000FFFFFFFFFF800
001FFFFC0FFFFC00
003FFF8000FFFE00
007FFC00001FFF00
00FFF000000FFF80
01FFE0000003FF00
03FF80000001FE00
07FF00000000F800
07FE000000007000
0FFC000000002000
0FF8000000000000
1FF8000000000000
1FF0000000000000
3FF0000000000000
3FE0000000000000
3FC0000000000000
7FC0000000000000
7FC0000000000000
7F80000000000000
7F80000000000000
FF80000000000000
FF80000000000000
FF80000000000000
FF00000000000000
FF00000000000000
FF00000000000000
FF00000000000000
FF00000000000000
FF00000000000000
FF80000000000000
FF80000000000000
FF80000000000000
7F80000000000000
7FC0000000000000
7FC0000000000000
7FC0000000000000
3FE0000000000000
3FE0000000000000
3FF0000000000000
1FF0000000000000
1FF8000000000000
0FFC000000000000
0FFC000000002000
07FE000000007800
03FF80000000FC00
03FFC0000001FE00
01FFE0000003FF00
00FFF800000FFF80
007FFE00003FFF00
003FFFC001FFFE00
001FFFFFFFFFFC00
000FFFFFFFFFF800
0003FFFFFFFFE000
0001FFFFFFFFC000
00007FFFFFFF0000
00001FFFFFFC0000
000003FFFFF00000
0000007FFF000000
ENDCHAR
STARTCHAR 0107
ENCODING 263
SWIDTH 675 0
DWIDTH 60 0
BBX 57 80 3 -1
BITMAP
000000001FC00000
000000003F800000
000000003F000000
000000007E000000
00000000FE000000
00000000FC000000
00000001F8000000
00000001F8000000
00000003F0000000
00000003E0000000
00000007C0000000
0000000FC0000000
0000000000000000
0000000000000000
0000000000000000
00000000E0000000
000000FFFF800000
000007FFFFF00000
00003FFFFFFE0000
0000FFFFFFFF8000
0001FFFFFFFFC000
0007FFFFFFFFF000
000FFFFFFFFFF800
001FFFFC0FFFFC00
003FFF8000FFFE00
007FFC00001FFF00
00FFF000000FFF80
01FFE0000003FF00
03FF80000001FE00
07FF00000000F800
07FE000000007000
0FFC000000002000
0FF8000000000000
1FF8000000000000
1FF0000000000000
3FF0000000000000
3FE0000000000000
3FC0000000000000
7FC0000000000000
7FC0000000000000
7F80000000000000
7F80000000000000
FF80000000000000
FF80000000000000
FF80000000000000
FF00000000000000
FF00000000000000
FF00000000000000
FF00000000000000
FF00000000000000
FF00000000000000
FF80000000000000
FF80000000000000
FF80000000000000
7F80000000000000
7FC0000000000000
7FC0000000000000
7FC0000000000000
3FE0000000000000
3FE0000000000000
3FF0000000000000
1FF0000000000000
1FF8000000000000
0FFC000000000000
0FFC000000002000
07FE000000007800
03FF80000000FC00
03FFC0000001FE00
01FFE0000003FF00
00FFF800000FFF80
007FFE00003FFF00
003FFFC001FFFE00
001FFFFFFFFFFC00
000FFFFFFFFFF800
0003FFFFFFFFE000
0001FFFFFFFFC000
00007FFFFFFF0000
00001FFFFFFC0000
000003FFFFF00000
0000007FFF000000
ENDCHAR
STARTCHAR 010A
ENCODING 266
SWIDTH 675 0
DWIDTH 60 0
BBX 57 82 3 0
BITMAP
00000007F8000000
0000000FFC000000
0000001FFE000000
0000001FFE000000
0000001FFE000000
0000001FFF000000
0000001FFF000000
0000001FFE000000
0000001FFE000000
0000000FFE000000
0000000FFC000000
00000003F8000000
0000000000000000
0000000000000000
0000000000000000
0000000000000000
0000000000000000
00000000E0000000
000000FFFF800000
000007FFFFF00000
00003FFFFFFE0000
0000FFFFFFFF8000
0001FFFFFFFFC000
0007FFFFFFFFF000
000FFFFFFFFFF800
001FFFFC0FFFFC00
003FFF8000FFFE00
007FFC00001FFF00
00FFF000000FFF80
01FFE0000003FF00
03FF80000001FE00
07FF00000000F800
07FE000000007000
0FFC000000002000
0FF8000000000000
1FF8000000000000
1FF0000000000000
3FF0000000000000
3FE0000000000000
3FC0000000000000
7FC0000000000000
7FC0000000000000
7F80000000000000
7F80000000000000
FF80000000000000
FF80000000000000
FF80000000000000
FF00000000000000
FF00000000000000
FF00000000000000
FF00000000000000
FF00000000000000
FF00000000000000
FF80000000000000
FF80000000000000
FF80000000000000
7F80000000000000
7FC0000000000000
7FC0000000000000
7FC0000000000000
3FE0000000000000
3FE0000000000000
3FF0000000000000
1FF0000000000000
1FF8000000000000
0FFC000000000000
0FFC000000002000
07FE000000007800
03FF80000000FC00
03FFC0000001FE00
01FFE0000003FF00
00FFF800000FFF80
007FFE00003FFF00
003FFFC001FFFE00
001FFFFFFFFFFC00
000FFFFFFFFFF800
0003FFFFFFFFE000
0001FFFFFFFFC000
00007FFFFFFF0000
00001FFFFFFC0000
000003FFFFF00000
0000007FFF000000
ENDCHAR
STARTCHAR 010B
ENCODING 267
SWIDTH 675 0
DWIDTH 60 0
BBX 57 82 3 0
BITMAP
00000007F8000000
0000000FFC000000
0000001FFE000000
0000001FFE000000
0000001FFE000000
0000001FFF000000
0000001FFF000000
0000001FFE000000
0000001FFE000000
0000000FFE000000
0000000FFC000000
00000003F8000000
0000000000000000
0000000000000000
0000000000000000
0000000000000000
0000000000000000
00000000E0000000
000000FFFF800000
000007FFFFF00000
00003FFFFFFE0000
0000FFFFFFFF8000
0001FFFFFFFFC000
0007FFFFFFFFF000
000FFFFFFFFFF800
001FFFFC0FFFFC00
003FFF8000FFFE00
007FFC00001FFF00
00FFF000000FFF80
01FFE0000003FF00
03FF80000001FE00
07FF00000000F800
07FE000000007000
0FFC000000002000
0FF8000000000000
1FF8000000000000
1FF0000000000000
3FF0000000000000
3FE0000000000000
3FC0000000000000
7FC0000000000000
7FC0000000000000
7F80000000000000
7F80000000000000
FF80000000000000
FF80000000000000
FF80000000000000
FF00000000000000
FF00000000000000
FF00000000000000
FF00000000000000
FF00000000000000
FF00000000000000
FF80000000000000
FF80000000000000
FF80000000000000
7F80000000000000
7FC0000000000000
7FC0000000000000
7FC0000000000000
3FE0000000000000
3FE0000000000000
3FF0000000000000
1FF0000000000000
1FF8000000000000
0FFC000000000000
0FFC000000002000
07FE000000007800
03FF80000000FC00
03FFC0000001FE00
01FFE0000003FF00
00FFF800000FFF80
007FFE00003FFF00
003FFFC001FFFE00
001FFFFFFFFFFC00
000FFFFFFFFFF800
0003FFFFFFFFE000
0001FFFFFFFFC000
00007FFFFFFF0000
00001FFFFFFC0000
000003FFFFF00000
0000007FFF000000
ENDCHAR
STARTCHAR 010C
ENCODING 268
SWIDTH 675 0
DWIDTH 60 0
BBX 57 81 3 -1
BITMAP
00000FE001FC0000
00000FF003F80000
000007F007F00000
000003F80FE00000
000001FC1FC00000
000000FE3FC00000
000000FF3F800000
0000007FFF000000
0000003FFE000000
0000001FFE000000
0000001FFC000000
0000000000000000
0000000000000000
0000000000000000
0000000000000000
0000000000000000
00000000E0000000
000000FFFF800000
000007FFFFF00000
00003FFFFFFE0000
0000FFFFFFFF8000
0001FFFFFFFFC000
0007FFFFFFFFF000
000FFFFFFFFFF800
001FFFFC0FFFFC00
003FFF8000FFFE00
007FFC00001FFF00
00FFF000000FFF80
01FFE0000003FF00
03FF80000001FE00
07FF00000000F800
07FE000000007000
0FFC000000002000
0FF8000000000000
1FF8000000000000
1FF0000000000000
3FF0000000000000
3FE0000000000000
3FC0000000000000
7FC0000000000000
7FC0000000000000
7F80000000000000
7F80000000000000
FF80000000000000
FF80000000000000
FF80000000000000
FF00000000000000
FF00000000000000
FF00000000000000
FF00000000000000
FF00000000000000
FF00000000000000
FF80000000000000
FF80000000000000
FF80000000000000
7F80000000000000
7FC0000000000000
7FC0000000000000
7FC0000000000000
3FE0000000000000
3FE0000000000000
3FF0000000000000
1FF0000000000000
1FF8000000000000
0FFC000000000000
0FFC000000002000
07FE000000007800
03FF80000000FC00
03FFC0000001FE00
01FFE0000003FF00
00FFF800000FFF80
007FFE00003FFF00
003FFFC001FFFE00
001FFFFFFFFFFC00
000FFFFFFFFFF800
0003FFFFFFFFE000
0001FFFFFFFFC000
00007FFFFFFF0000
00001FFFFFFC0000
000003FFFFF00000
0000007FFF000000
ENDCHAR
STARTCHAR 010D
ENCODING 269
SWIDTH 675 0
DWIDTH 60 0
BBX 57 81 3 -1
BITMAP
00000FE001FC0000
00000FF003F80000
000007F007F00000
000003F80FE00000
000001FC1FC00000
000000FE3FC00000
000000FF3F800000
0000007FFF000000
0000003FFE000000
0000001FFE000000
0000001FFC000000
0000000000000000
0000000000000000
0000000000000000
0000000000000000
0000000000000000
00000000E0000000
000000FFFF800000
000007FFFFF00000
00003FFFFFFE0000
0000FFFFFFFF8000
0001FFFFFFFFC000
0007FFFFFFFFF000
000FFFFFFFFFF800
001FFFFC0FFFFC00
003FFF8000FFFE00
007FFC00001FFF00
00FFF000000FFF80
01FFE0000003FF00
03FF80000001FE00
07FF00000000F800
07FE000000007000
0FFC000000002000
0FF8000000000000
1FF8000000000000
1FF0000000000000
3FF0000000000000
3FE0000000000000
3FC0000000000000
7FC0000000000000
7FC0000000000000
7F80000000000000
7F80000000000000
FF80000000000000
FF80000000000000
FF80000000000000
FF00000000000000
FF00000000000000
FF00000000000000
FF00000000000000
FF00000000000000
FF00000000000000
FF80000000000000
FF80000000000000
FF80000000000000
7F80000000000000
7FC0000000000000
7FC0000000000000
7FC0000000000000
3FE0000000000000
3FE0000000000000
3FF0000000000000
1FF0000000000000
1FF8000000000000
0FFC000000000000
0FFC000000002000
07FE000000007800
03FF80000000FC00
03FFC0000001FE00
01FFE0000003FF00
00FFF800000FFF80
007FFE00003FFF00
003FFFC001FFFE00
001FFFFFFFFFFC00
000FFFFFFFFFF800
0003FFFFFFFFE000
0001FFFFFFFFC000
00007FFFFFFF0000
00001FFFFFFC0000
000003FFFFF00000
0000007FFF000000
ENDCHAR
STARTCHAR 010E
ENCODING 270
SWIDTH 641 0
DWIDTH 57 0
BBX 50 80 5 0
BITMAP
03F8007F000000
01FC00FE000000
00FE01FE000000
007F01FC000000
007F83F8000000
003FC7F0000000
001FCFF0000000
000FFFE0000000
000FFFC0000000
0007FF80000000
0003FF00000000
00000000000000
00000000000000
00000000000000
00000000000000
00000000000000
00000000000000
00000000000000
FFFFFF00000000
FFFFFFF8000000
FFFFFFFF000000
FFFFFFFFC00000
FFFFFFFFF00000
FFFFFFFFF80000
FFFFFFFFFE0000
FFFFFFFFFF0000
FF0000FFFF8000
FF00001FFFC000
FF000003FFE000
FF000000FFF000
FF0000007FF000
FF0000003FF800
FF0000001FFC00
FF0000000FFC00
FF00000007FE00
FF00000003FE00
FF00000003FF00
FF00000001FF00
FF00000001FF00
FF00000000FF80
FF00000000FF80
FF00000000FF80
FF000000007F80
FF000000007F80
FF000000007FC0
FF000000007FC0
FF000000007FC0
FF000000007FC0
FF000000007FC0
FF000000007FC0
FF000000007FC0
FF000000007FC0
FF000000007FC0
FF000000007FC0
FF000000007F80
FF000000007F80
FF00000000FF80
FF00000000FF80
FF00000000FF80
FF00000001FF00
FF00000001FF00
FF00000003FF00
FF00000003FE00
FF00000007FE00
FF0000000FFC00
FF0000001FFC00
FF0000003FF800
FF0000007FF000
FF000001FFF000
FF000007FFE000
FF00001FFFC000
FF0001FFFF8000
FFFFFFFFFF0000
FFFFFFFFFE0000
FFFFFFFFF80000
FFFFFFFFE00000
FFFFFFFFC00000
FFFFFFFE000000
FFFFFFF0000000
FFFFFF00000000
ENDCHAR
STARTCHAR 010F
ENCODING 271
SWIDTH 641 0
DWIDTH 57 0
BBX 50 80 5 0
BITMAP
03F8007F000000
01FC00FE000000
00FE01FE000000
007F01FC000000
007F83F8000000
003FC7F0000000
001FCFF0000000
000FFFE0000000
000FFFC0000000
0007FF80000000
0003FF00000000
00000000000000
00000000000000
00000000000000
00000000000000
00000000000000
00000000000000
00000000000000
FFFFFF00000000
FFFFFFF8000000
FFFFFFFF000000
FFFFFFFFC00000
FFFFFFFFF00000
FFFFFFFFF80000
FFFFFFFFFE0000
FFFFFFFFFF0000
FF0000FFFF8000
FF00001FFFC000
FF000003FFE000
FF000000FFF000
FF0000007FF000
FF0000003FF800
FF0000001FFC00
FF0000000FFC00
FF00000007FE00
FF00000003FE00
FF00000003FF00
FF00000001FF00
FF00000001FF00
FF00000000FF80
FF00000000FF80
FF00000000FF80
FF000000007F80
FF000000007F80
FF000000007FC0
FF000000007FC0
FF000000007FC0
FF000000007FC0
FF000000007FC0
FF000000007FC0
FF000000007FC0
FF000000007FC0
FF000000007FC0
FF000000007FC0
FF000000007F80
FF000000007F80
FF00000000FF80
FF00000000FF80
FF00000000FF80
FF00000001FF00
FF00000001FF00
FF00000003FF00
FF00000003FE00
FF00000007FE00
FF0000000FFC00
FF0000001FFC00
FF0000003FF800
FF0000007FF000
FF000001FFF000
FF000007FFE000
FF00001FFFC000
FF0001FFFF8000
FFFFFFFFFF0000
FFFFFFFFFE0000
FFFFFFFFF80000
FFFFFFFFE00000
FFFFFFFFC00000
FFFFFFFE000000
FFFFFFF0000000
FFFFFF00000000
ENDCHAR
STARTCHAR 0110
ENCODING 272
SWIDTH 675 0
DWIDTH 60 0
BBX 56 62 2 0
BITMAP
03FFFFFE000000
03FFFFFFE00000
03FFFFFFFC0000
03FFFFFFFF0000
03FFFFFFFFC000
03FFFFFFFFF000
03FFFFFFFFF800
03FFFFFFFFFC00
03FC0003FFFE00
03FC00003FFF00
03FC00000FFF80
03FC000003FFC0
03FC000001FFE0
03FC0000007FE0
03FC0000003FF0
03FC0000001FF0
03FC0000001FF8
03FC0000000FF8
03FC00000007FC
03FC00000007FC
03FC00000003FE
03FC00000003FE
03FC00000003FE
03FC00000001FE
03FC00000001FF
03FC00000001FF
FFFFFFFC0001FF
FFFFFFFC0001FF
FFFFFFFC0001FF
FFFFFFFC0000FF
FFFFFFFC0000FF
FFFFFFFC0000FF
FFFFFFFC0000FF
FFFFFFFC0001FF
03FC00000001FF
03FC00000001FF
03FC00000001FF
03FC00000001FE
03FC00000001FE
03FC00000003FE
03FC00000003FE
03FC00000007FE
03FC00000007FC
03FC0000000FFC
03FC0000000FF8
03FC0000001FF8
03FC0000003FF0
03FC0000007FF0
03FC000000FFE0
03FC000001FFE0
03FC000007FFC0
03FC00001FFF80
03FC00007FFF00
03FC0007FFFE00
03FFFFFFFFFC00
03FFFFFFFFF800
03FFFFFFFFE000
03FFFFFFFFC000
03FFFFFFFF0000
03FFFFFFF80000
03FFFFFFC00000
03FFFFF8000000
ENDCHAR
STARTCHAR 0111
ENCODING 273
SWIDTH 675 0
DWIDTH 60 0
BBX 56 62 2 0
BITMAP
03FFFFFE000000
03FFFFFFE00000
03FFFFFFFC0000
03FFFFFFFF0000
03FFFFFFFFC000
03FFFFFFFFF000
03FFFFFFFFF800
03FFFFFFFFFC00
03FC0003FFFE00
03FC00003FFF00
03FC00000FFF80
03FC000003FFC0
03FC000001FFE0
03FC0000007FE0
03FC0000003FF0
03FC0000001FF0
03FC0000001FF8
03FC0000000FF8
03FC00000007FC
03FC00000007FC
03FC00000003FE
03FC00000003FE
03FC00000003FE
03FC00000001FE
03FC00000001FF
03FC00000001FF
FFFFFFFC0001FF
FFFFFFFC0001FF
FFFFFFFC0001FF
FFFFFFFC0000FF
FFFFFFFC0000FF
FFFFFFFC0000FF
FFFFFFFC0000FF
FFFFFFFC0001FF
03FC00000001FF
03FC00000001FF
03FC00000001FF
03FC00000001FE
03FC00000001FE
03FC00000003FE
03FC00000003FE
03FC00000007FE
03FC00000007FC
03FC0000000FFC
03FC0000000FF8
03FC0000001FF8
03FC0000003FF0
03FC0000007FF0
03FC000000FFE0
03FC000001FFE0
03FC000007FFC0
03FC00001FFF80
03FC00007FFF00
03FC0007FFFE00
03FFFFFFFFFC00
03FFFFFFFFF800
03FFFFFFFFE000
03FFFFFFFFC000
03FFFFFFFF0000
03FFFFFFF80000
03FFFFFFC00000
03FFFFF8000000
ENDCHAR
STARTCHAR 0112
ENCODING 274
SWIDTH 495 0
DWIDTH 44 0
BBX 42 77 2 0
BITMAP
03FFFFFE0000
03FFFFFE0000
03FFFFFE0000
03FFFFFE0000
03FFFFFE0000
03FFFFFE0000
03FFFFFE0000
000000000000
000000000000
000000000000
000000000000
000000000000
000000000000
000000000000
000000000000
03FFFFFE0000
03FFFFFE0000
03FFFFFE0000
03FFFFFE0000
03FFFFFE0000
03FFFFFE0000
03FFFFFE0000
03FFFFFE0000
03FE00000000
03FE00000000
03FE00000000
03FE00000000
03FE00000000
03FE00000000
03FE00000000
03FE00000000
03FE00000000
03FE00000000
03FE00000000
03FE00000000
03FE00000000
03FE00000000
03FE00000000
03FE00000000
03FE00000000
03FE00000000
03FE00000000
FFFFFFFFE000
FFFFFFFFE000
FFFFFFFFE000
FFFFFFFFE000
FFFFFFFFE000
FFFFFFFFE000
FFFFFFFFE000
03FE00000000
03FE00000000
03FE00000000
03FE00000000
03FE00000000
03FE00000000
03FE00000000
03FE00000000
03FE00000000
03FE00000000
03FE00000000
03FE00000000
03FE00000000
03FE00000000
03FE00000000
03FE00000000
03FE00000000
03FE00000000
03FE00000000
03FE00000000
03FFFFFFFFC0
03FFFFFFFFC0
03FFFFFFFFC0
03FFFFFFFFC0
03FFFFFFFFC0
03FFFFFFFFC0
03FFFFFFFFC0
03FFFFFFFFC0
ENDCHAR
STARTCHAR 0113
ENCODING 275
SWIDTH 495 0
DWIDTH 44 0
BBX 42 77 2 0
BITMAP
03FFFFFE0000
03FFFFFE0000
03FFFFFE0000
03FFFFFE0000
03FFFFFE0000
03FFFFFE0000
03FFFFFE0000
000000000000
000000000000
000000000000
000000000000
000000000000
000000000000
000000000000
000000000000
03FFFFFE0000
03FFFFFE0000
03FFFFFE0000
03FFFFFE0000
03FFFFFE0000
03FFFFFE0000
03FFFFFE0000
03FFFFFE0000
03FE00000000
03FE00000000
03FE00000000
03FE00000000
03FE00000000
03FE00000000
03FE00000000
03FE00000000
03FE00000000
03FE00000000
03FE00000000
03FE00000000
03FE00000000
03FE00000000
03FE00000000
03FE00000000
03FE00000000
03FE00000000
03FE00000000
FFFFFFFFE000
FFFFFFFFE000
FFFFFFFFE000
FFFFFFFFE000
FFFFFFFFE000
FFFFFFFFE000
FFFFFFFFE000
03FE00000000
03FE00000000
03FE00000000
03FE00000000
03FE00000000
03FE00000000
03FE00000000
03FE00000000
03FE00000000
03FE00000000
03FE00000000
03FE00000000
03FE00000000
03FE00000000
03FE00000000
03FE00000000
03FE00000000
03FE00000000
03FE00000000
03FE00000000
03FFFFFFFFC0
03FFFFFFFFC0
03FFFFFFFFC0
03FFFFFFFFC0
03FFFFFFFFC0
03FFFFFFFFC0
03FFFFFFFFC0
03FFFFFFFFC0
ENDCHAR
STARTCHAR 0116
ENCODING 278
SWIDTH 495 0
DWIDTH 44 0
BBX 42 82 2 0
BITMAP
000010000000
0000FE000000
0003FF000000
0003FF800000
0007FF800000
0007FFC00000
0007FFC00000
0007FFC00000
0007FFC00000
0007FF800000
0003FF800000
0003FF000000
0000FE000000
000000000000
000000000000
000000000000
000000000000
000000000000
000000000000
000000000000
03FFFFFE0000
03FFFFFE0000
03FFFFFE0000
03FFFFFE0000
03FFFFFE0000
03FFFFFE0000
03FFFFFE0000
03FFFFFE0000
03FE00000000
03FE00000000
03FE00000000
03FE00000000
03FE00000000
03FE00000000
03FE00000000
03FE00000000
03FE00000000
03FE00000000
03FE00000000
03FE00000000
03FE00000000
03FE00000000
03FE00000000
03FE00000000
03FE00000000
03FE00000000
03FE00000000
FFFFFFFFE000
FFFFFFFFE000
FFFFFFFFE000
FFFFFFFFE000
FFFFFFFFE000
FFFFFFFFE000
FFFFFFFFE000
03FE00000000
03FE00000000
03FE00000000
03FE00000000
03FE00000000
03FE00000000
03FE00000000
03FE00000000
03FE00000000
03FE00000000
03FE00000000
03FE00000000
03FE00000000
03FE00000000
03FE00000000
03FE00000000
03FE00000000
03FE00000000
03FE00000000
03FE00000000
03FFFFFFFFC0
03FFFFFFFFC0
03FFFFFFFFC0
03FFFFFFFFC0
03FFFFFFFFC0
03FFFFFFFFC0
03FFFFFFFFC0
03FFFFFFFFC0
ENDCHAR
STARTCHAR 0117
ENCODING 279
SWIDTH 495 0
DWIDTH 44 0
BBX 42 82 2 0
BITMAP
000010000000
0000FE000000
0003FF000000
0003FF800000
0007FF800000
0007FFC00000
0007FFC00000
0007FFC00000
0007FFC00000
0007FF800000
0003FF800000
0003FF000000
0000FE000000
000000000000
000000000000
000000000000
000000000000
000000000000
000000000000
000000000000
03FFFFFE0000
03FFFFFE0000
03FFFFFE0000
03FFFFFE0000
03FFFFFE0000
03FFFFFE0000
03FFFFFE0000
03FFFFFE0000
03FE00000000
03FE00000000
03FE00000000
03FE00000000
03FE00000000
03FE00000000
03FE00000000
03FE00000000
03FE00000000
03FE00000000
03FE00000000
03FE00000000
03FE00000000
03FE00000000
03FE00000000
03FE00000000
03FE00000000
03FE00000000
03FE00000000
FFFFFFFFE000
FFFFFFFFE000
FFFFFFFFE000
FFFFFFFFE000
FFFFFFFFE000
FFFFFFFFE000
FFFFFFFFE000
03FE00000000
03FE00000000
03FE00000000
03FE00000000
03FE00000000
03FE00000000
03FE00000000
03FE00000000
03FE00000000
03FE00000000
03FE00000000
03FE00000000
03FE00000000
03FE00000000
03FE00000000
03FE00000000
03FE00000000
03FE00000000
03FE00000000
03FE00000000
03FFFFFFFFC0
03FFFFFFFFC0
03FFFFFFFFC0
03FFFFFFFFC0
03FFFFFFFFC0
03FFFFFFFFC0
03FFFFFFFFC0
03FFFFFFFFC0
ENDCHAR
STARTCHAR 0118
ENCODING 280
SWIDTH 495 0
DWIDTH 44 0
BBX 45 79 2 -17
BITMAP
03FFFFFE0000
03FFFFFE0000
03FFFFFE0000
03FFFFFE0000
03FFFFFE0000
03FFFFFE0000
03FFFFFE0000
03FFFFFE0000
03FE00000000
03FE00000000
03FE00000000
03FE00000000
03FE00000000
03FE00000000
03FE00000000
03FE00000000
03FE00000000
03FE00000000
03FE00000000
03FE00000000
03FE00000000
03FE00000000
03FE00000000
03FE00000000
03FE00000000
03FE00000000
03FE00000000
FFFFFFFFE000
FFFFFFFFE000
FFFFFFFFE000
FFFFFFFFE000
FFFFFFFFE000
FFFFFFFFE000
FFFFFFFFE000
03FE00000000
03FE00000000
03FE00000000
03FE00000000
03FE00000000
03FE00000000
03FE00000000
03FE00000000
03FE00000000
03FE00000000
03FE00000000
03FE00000000
03FE00000000
03FE00000000
03FE00000000
03FE00000000
03FE00000000
03FE00000000
03FE00000000
03FE00000000
03FFFFFFFFC0
03FFFFFFFFC0
03FFFFFFFFC0
03FFFFFFFFC0
03FFFFFFFFC0
03FFFFFFFFC0
03FFFFFFFFC0
03FFFFFFFFC0
000000007F00
00000001F800
00000003F000
00000003E000
00000007C000
0000000F8000
0000000F8000
0000000F8000
0000000F8000
0000000F8000
0000000F8060
0000000FC1F8
00000007FFF8
00000003FFF0
00000001FFE0
00000000FF80
000000000800
ENDCHAR
STARTCHAR 0119
ENCODING 281
SWIDTH 495 0
DWIDTH 44 0
BBX 45 79 2 -17
BITMAP
03FFFFFE0000
03FFFFFE0000
03FFFFFE0000
03FFFFFE0000
03FFFFFE0000
03FFFFFE0000
03FFFFFE0000
03FFFFFE0000
03FE00000000
03FE00000000
03FE00000000
03FE00000000
03FE00000000
03FE00000000
03FE00000000
03FE00000000
03FE00000000
03FE00000000
03FE00000000
03FE00000000
03FE00000000
03FE00000000
03FE00000000
03FE00000000
03FE00000000
03FE00000000
03FE00000000
FFFFFFFFE000
FFFFFFFFE000
FFFFFFFFE000
FFFFFFFFE000
FFFFFFFFE000
FFFFFFFFE000
FFFFFFFFE000
03FE00000000
03FE00000000
03FE00000000
03FE00000000
03FE00000000
03FE00000000
03FE00000000
03FE00000000
03FE00000000
03FE00000000
03FE00000000
03FE00000000
03FE00000000
03FE00000000
03FE00000000
03FE00000000
03FE00000000
03FE00000000
03FE00000000
03FE00000000
03FFFFFFFFC0
03FFFFFFFFC0
03FFFFFFFFC0
03FFFFFFFFC0
03FFFFFFFFC0
03FFFFFFFFC0
03FFFFFFFFC0
03FFFFFFFFC0
000000007F00
00000001F800
00000003F000
00000003E000
00000007C000
0000000F8000
0000000F8000
0000000F8000
0000000F8000
0000000F8000
0000000F8060
0000000FC1F8
00000007FFF8
00000003FFF0
00000001FFE0
00000000FF80
000000000800
ENDCHAR
STARTCHAR 011A
ENCODING 282
SWIDTH 495 0
DWIDTH 44 0
BBX 42 80 2 0
BITMAP
03F8007F0000
01FC00FE0000
01FE01FC0000
00FE03F80000
007F07F80000
003F87F00000
003FCFE00000
001FFFC00000
000FFFC00000
0007FF800000
0003FF000000
000000000000
000000000000
000000000000
000000000000
000000000000
000000000000
000000000000
03FFFFFE0000
03FFFFFE0000
03FFFFFE0000
03FFFFFE0000
03FFFFFE0000
03FFFFFE0000
03FFFFFE0000
03FFFFFE0000
03FE00000000
03FE00000000
03FE00000000
03FE00000000
03FE00000000
03FE00000000
03FE00000000
03FE00000000
03FE00000000
03FE00000000
03FE00000000
03FE00000000
03FE00000000
03FE00000000
03FE00000000
03FE00000000
03FE00000000
03FE00000000
03FE00000000
FFFFFFFFE000
FFFFFFFFE000
FFFFFFFFE000
FFFFFFFFE000
FFFFFFFFE000
FFFFFFFFE000
FFFFFFFFE000
03FE00000000
03FE00000000
03FE00000000
03FE00000000
03FE00000000
03FE00000000
03FE00000000
03FE00000000
03FE00000000
03FE00000000
03FE00000000
03FE00000000
03FE00000000
03FE00000000
03FE00000000
03FE00000000
03FE00000000
03FE00000000
03FE00000000
03FE00000000
03FFFFFFFFC0
03FFFFFFFFC0
03FFFFFFFFC0
03FFFFFFFFC0
03FFFFFFFFC0
03FFFFFFFFC0
03FFFFFFFFC0
03FFFFFFFFC0
ENDCHAR
STARTCHAR 011B
ENCODING 283
SWIDTH 495 0
DWIDTH 44 0
BBX 42 80 2 0
BITMAP
03F8007F0000
01FC00FE0000
01FE01FC0000
00FE03F80000
007F07F80000
003F87F00000
003FCFE00000
001FFFC00000
000FFFC00000
0007FF800000
0003FF000000
000000000000
000000000000
000000000000
000000000000
000000000000
000000000000
000000000000
03FFFFFE0000
03FFFFFE0000
03FFFFFE0000
03FFFFFE0000
03FFFFFE0000
03FFFFFE0000
03FFFFFE0000
03FFFFFE0000
03FE00000000
03FE00000000
03FE00000000
03FE00000000
03FE00000000
03FE00000000
03FE00000000
03FE00000000
03FE00000000
03FE00000000
03FE00000000
03FE00000000
03FE00000000
03FE00000000
03FE00000000
03FE00000000
03FE00000000
03FE00000000
03FE00000000
FFFFFFFFE000
FFFFFFFFE000
FFFFFFFFE000
FFFFFFFFE000
FFFFFFFFE000
FFFFFFFFE000
FFFFFFFFE000
03FE00000000
03FE00000000
03FE00000000
03FE00000000
03FE00000000
03FE00000000
03FE00000000
03FE00000000
03FE00000000
03FE00000000
03FE00000000
03FE00000000
03FE00000000
03FE00000000
03FE00000000
03FE00000000
03FE00000000
03FE00000000
03FE00000000
03FE00000000
03FFFFFFFFC0
03FFFFFFFFC0
03FFFFFFFFC0
03FFFFFFFFC0
03FFFFFFFFC0
03FFFFFFFFC0
03FFFFFFFFC0
03FFFFFFFFC0
ENDCHAR
STARTCHAR 011E
ENCODING 286
SWIDTH 832 0
DWIDTH 74 0
BBX 70 80 3 -1
BITMAP
00000FC001F8000000
000007C001F8000000
000007E001F0000000
000007E003F0000000
000007F007F0000000
000003F80FE0000000
000001FFFFE0000000
000001FFFFC0000000
0000007FFF80000000
0000003FFE00000000
0000000FF800000000
000000000000000000
000000000000000000
000000000000000000
000000000000000000
00000000C000000000
000000FFFFC0000000
000007FFFFF8000000
00001FFFFFFE000000
00007FFFFFFF800000
0001FFFFFFFFE00000
0007FFFFFFFFF00000
000FFFFFFFFFF80000
001FFFFE0FFFFC0000
003FFF80007FFE0000
007FFE00001FFF0000
00FFF8000007FF8000
01FFE0000003FF0000
03FFC0000000FE0000
07FF000000007C0000
07FE00000000380000
0FFC00000000100000
0FFC00000000000000
1FF800000000000000
1FF000000000000000
3FF000000000000000
3FE000000000000000
3FE000000000000000
7FC000000000000000
7FC000000000000000
7F8000000000000000
7F8000000000000000
FF8000000000000000
FF8000000000000000
FF800001FFFFFFFFFC
FF000001FFFFFFFFFC
FF000001FFFFFFFFFC
FF000001FFFFFFFFFC
FF000001FFFFFFFFFC
FF000001FFFFFFFFFC
FF000001FFFFFFFFFC
FF800000000000FF80
FF800000000000FF80
FF800000000000FF80
7F800000000000FF00
7F800000000001FF00
7FC00000000001FF00
7FC00000000001FF00
3FE00000000003FE00
3FE00000000003FE00
3FF00000000007FE00
1FF00000000007FC00
1FF8000000000FFC00
0FFC000000000FF800
0FFE000000001FF800
07FF000000003FF000
03FF800000007FF000
03FFC0000000FFE000
01FFE0000003FFC000
00FFF8000007FF8000
007FFE00001FFF0000
003FFFC000FFFF0000
001FFFFFFFFFFC0000
000FFFFFFFFFF80000
0003FFFFFFFFF00000
0001FFFFFFFFC00000
00007FFFFFFF800000
00001FFFFFFE000000
000003FFFFF0000000
0000003FFF80000000
ENDCHAR
STARTCHAR 011F
ENCODING 287
SWIDTH 832 0
DWIDTH 74 0
BBX 70 80 3 -1
BITMAP
00000FC001F8000000
000007C001F8000000
000007E001F0000000
000007E003F0000000
000007F007F0000000
000003F80FE0000000
000001FFFFE0000000
000001FFFFC0000000
0000007FFF80000000
0000003FFE00000000
0000000FF800000000
000000000000000000
000000000000000000
000000000000000000
000000000000000000
00000000C000000000
000000FFFFC0000000
000007FFFFF8000000
00001FFFFFFE000000
00007FFFFFFF800000
0001FFFFFFFFE00000
0007FFFFFFFFF00000
000FFFFFFFFFF80000
001FFFFE0FFFFC0000
003FFF80007FFE0000
007FFE00001FFF0000
00FFF8000007FF8000
01FFE0000003FF0000
03FFC0000000FE0000
07FF000000007C0000
07FE00000000380000
0FFC00000000100000
0FFC00000000000000
1FF800000000000000
1FF000000000000000
3FF000000000000000
3FE000000000000000
3FE000000000000000
7FC000000000000000
7FC000000000000000
7F8000000000000000
7F8000000000000000
FF8000000000000000
FF8000000000000000
FF800001FFFFFFFFFC
FF000001FFFFFFFFFC
FF000001FFFFFFFFFC
FF000001FFFFFFFFFC
FF000001FFFFFFFFFC
FF000001FFFFFFFFFC
FF000001FFFFFFFFFC
FF800000000000FF80
FF800000000000FF80
FF800000000000FF80
7F800000000000FF00
7F800000000001FF00
7FC00000000001FF00
7FC00000000001FF00
3FE00000000003FE00
3FE00000000003FE00
3FF00000000007FE00
1FF00000000007FC00
1FF8000000000FFC00
0FFC000000000FF800
0FFE000000001FF800
07FF000000003FF000
03FF800000007FF000
03FFC0000000FFE000
01FFE0000003FFC000
00FFF8000007FF8000
007FFE00001FFF0000
003FFFC000FFFF0000
001FFFFFFFFFFC0000
000FFFFFFFFFF80000
0003FFFFFFFFF00000
0001FFFFFFFFC00000
00007FFFFFFF800000
00001FFFFFFE000000
000003FFFFF0000000
0000003FFF80000000
ENDCHAR
STARTCHAR 0120
ENCODING 288
SWIDTH 832 0
DWIDTH 74 0
BBX 70 82 3 0
BITMAP
00000007F800000000
0000000FFC00000000
0000001FFE00000000
0000001FFE00000000
0000001FFE00000000
0000001FFF00000000
0000001FFF00000000
0000001FFE00000000
0000001FFE00000000
0000000FFE00000000
0000000FFC00000000
00000003F800000000
000000000000000000
000000000000000000
000000000000000000
000000000000000000
000000000000000000
00000000C000000000
000000FFFFC0000000
000007FFFFF8000000
00001FFFFFFE000000
00007FFFFFFF800000
0001FFFFFFFFE00000
0007FFFFFFFFF00000
000FFFFFFFFFF80000
001FFFFE0FFFFC0000
003FFF80007FFE0000
007FFE00001FFF0000
00FFF8000007FF8000
01FFE0000003FF0000
03FFC0000000FE0000
07FF000000007C0000
07FE00000000380000
0FFC00000000100000
0FFC00000000000000
1FF800000000000000
1FF000000000000000
3FF000000000000000
3FE000000000000000
3FE000000000000000
7FC000000000000000
7FC000000000000000
7F8000000000000000
7F8000000000000000
FF8000000000000000
FF8000000000000000
FF800001FFFFFFFFFC
FF000001FFFFFFFFFC
FF000001FFFFFFFFFC
FF000001FFFFFFFFFC
FF000001FFFFFFFFFC
FF000001FFFFFFFFFC
FF000001FFFFFFFFFC
FF800000000000FF80
FF800000000000FF80
FF800000000000FF80
7F800000000000FF00
7F800000000001FF00
7FC00000000001FF00
7FC00000000001FF00
3FE00000000003FE00
3FE00000000003FE00
3FF00000000007FE00
1FF00000000007FC00
1FF8000000000FFC00
0FFC000000000FF800
0FFE000000001FF800
07FF000000003FF000
03FF800000007FF000
03FFC0000000FFE000
01FFE0000003FFC000
00FFF8000007FF8000
007FFE00001FFF0000
003FFFC000FFFF0000
001FFFFFFFFFFC0000
000FFFFFFFFFF80000
0003FFFFFFFFF00000
0001FFFFFFFFC00000
00007FFFFFFF800000
00001FFFFFFE000000
000003FFFFF0000000
0000003FFF80000000
ENDCHAR
STARTCHAR 0121
ENCODING 289
SWIDTH 832 0
DWIDTH 74 0
BBX 70 82 3 0
BITMAP
00000007F800000000
0000000FFC00000000
0000001FFE00000000
0000001FFE00000000
0000001FFE00000000
0000001FFF00000000
0000001FFF00000000
0000001FFE00000000
0000001FFE00000000
0000000FFE00000000
0000000FFC00000000
00000003F800000000
000000000000000000
000000000000000000
000000000000000000
000000000000000000
000000000000000000
00000000C000000000
000000FFFFC0000000
000007FFFFF8000000
00001FFFFFFE000000
00007FFFFFFF800000
0001FFFFFFFFE00000
0007FFFFFFFFF00000
000FFFFFFFFFF80000
001FFFFE0FFFFC0000
003FFF80007FFE0000
007FFE00001FFF0000
00FFF8000007FF8000
01FFE0000003FF0000
03FFC0000000FE0000
07FF000000007C0000
07FE00000000380000
0FFC00000000100000
0FFC00000000000000
1FF800000000000000
1FF000000000000000
3FF000000000000000
3FE000000000000000
3FE000000000000000
7FC000000000000000
7FC000000000000000
7F8000000000000000
7F8000000000000000
FF8000000000000000
FF8000000000000000
FF800001FFFFFFFFFC
FF000001FFFFFFFFFC
FF000001FFFFFFFFFC
FF000001FFFFFFFFFC
FF000001FFFFFFFFFC
FF000001FFFFFFFFFC
FF000001FFFFFFFFFC
FF800000000000FF80
FF800000000000FF80
FF800000000000FF80
7F800000000000FF00
7F800000000001FF00
7FC00000000001FF00
7FC00000000001FF00
3FE00000000003FE00
3FE00000000003FE00
3FF00000000007FE00
1FF00000000007FC00
1FF8000000000FFC00
0FFC000000000FF800
0FFE000000001FF800
07FF000000003FF000
03FF800000007FF000
03FFC0000000FFE000
01FFE0000003FFC000
00FFF8000007FF8000
007FFE00001FFF0000
003FFFC000FFFF0000
001FFFFFFFFFFC0000
000FFFFFFFFFF80000
0003FFFFFFFFF00000
0001FFFFFFFFC00000
00007FFFFFFF800000
00001FFFFFFE000000
000003FFFFF0000000
0000003FFF80000000
ENDCHAR
STARTCHAR 0124
ENCODING 292
SWIDTH 551 0
DWIDTH 49 0
BBX 43 79 2 0
BITMAP
00000FFC0000
00001FFE0000
00003FFE0000
00007FFF0000
0000FF7F8000
0000FE3FC000
0001FC1FC000
0003F80FE000
0007F807F000
0007F003F800
000FE003F800
001FC001FC00
000000000000
000000000000
000000000000
000000000000
000000000000
03FE00001FE0
03FE00001FE0
03FE00001FE0
03FE00001FE0
03FE00001FE0
03FE00001FE0
03FE00001FE0
03FE00001FE0
03FE00001FE0
03FE00001FE0
03FE00001FE0
03FE00001FE0
03FE00001FE0
03FE00001FE0
03FE00001FE0
03FE00001FE0
03FE00001FE0
03FE00001FE0
03FE00001FE0
03FE00001FE0
03FE00001FE0
03FE00001FE0
03FE00001FE0
03FE00001FE0
03FE00001FE0
FFFFFFFFFFE0
FFFFFFFFFFE0
FFFFFFFFFFE0
FFFFFFFFFFE0
FFFFFFFFFFE0
FFFFFFFFFFE0
FFFFFFFFFFE0
FFFFFFFFFFE0
03FE00001FE0
03FE00001FE0
03FE00001FE0
03FE00001FE0
03FE00001FE0
03FE00001FE0
03FE00001FE0
03FE00001FE0
03FE00001FE0
03FE00001FE0
03FE00001FE0
03FE00001FE0
03FE00001FE0
03FE00001FE0
03FE00001FE0
03FE00001FE0
03FE00001FE0
03FE00001FE0
03FE00001FE0
03FE00001FE0
03FE00001FE0
03FE00001FE0
03FE00001FE0
03FE00001FE0
03FE00001FE0
03FE00001FE0
03FE00001FE0
03FE00001FE0
03FE00001FE0
ENDCHAR
STARTCHAR 0125
ENCODING 293
SWIDTH 551 0
DWIDTH 49 0
BBX 43 79 2 0
BITMAP
00000FFC0000
00001FFE0000
00003FFE0000
00007FFF0000
0000FF7F8000
0000FE3FC000
0001FC1FC000
0003F80FE000
0007F807F000
0007F003F800
000FE003F800
001FC001FC00
000000000000
000000000000
000000000000
000000000000
000000000000
03FE00001FE0
03FE00001FE0
03FE00001FE0
03FE00001FE0
03FE00001FE0
03FE00001FE0
03FE00001FE0
03FE00001FE0
03FE00001FE0
03FE00001FE0
03FE00001FE0
03FE00001FE0
03FE00001FE0
03FE00001FE0
03FE00001FE0
03FE00001FE0
03FE00001FE0
03FE00001FE0
03FE00001FE0
03FE00001FE0
03FE00001FE0
03FE00001FE0
03FE00001FE0
03FE00001FE0
03FE00001FE0
FFFFFFFFFFE0
FFFFFFFFFFE0
FFFFFFFFFFE0
FFFFFFFFFFE0
FFFFFFFFFFE0
FFFFFFFFFFE0
FFFFFFFFFFE0
FFFFFFFFFFE0
03FE00001FE0
03FE00001FE0
03FE00001FE0
03FE00001FE0
03FE00001FE0
03FE00001FE0
03FE00001FE0
03FE00001FE0
03FE00001FE0
03FE00001FE0
03FE00001FE0
03FE00001FE0
03FE00001FE0
03FE00001FE0
03FE00001FE0
03FE00001FE0
03FE00001FE0
03FE00001FE0
03FE00001FE0
03FE00001FE0
03FE00001FE0
03FE00001FE0
03FE00001FE0
03FE00001FE0
03FE00001FE0
03FE00001FE0
03FE00001FE0
03FE00001FE0
03FE00001FE0
ENDCHAR
STARTCHAR 0128
ENCODING 296
SWIDTH 191 0
DWIDTH 17 0
BBX 21 55 -3 0
BITMAP
0C0000
7FE000
FFFEF8
FFFFF8
FFFFF8
FFFFF8
C07FF8
000FE0
000000
000000
000000
000000
000000
000000
000000
000000
000000
00FF00
00FF00
00FF00
00FF00
00FF00
00FF00
00FF00
00FF00
00FF00
00FF00
00FF00
00FF00
00FF00
00FF00
00FF00
00FF00
00FF00
00FF00
00FF00
00FF00
00FF00
00FF00
00FF00
00FF00
00FF00
00FF00
00FF00
00FF00
00FF00
00FF00
00FF00
00FF00
00FF00
00FF00
00FF00
00FF00
00FF00
00FF00
ENDCHAR
STARTCHAR 0129
ENCODING 297
SWIDTH 191 0
DWIDTH 17 0
BBX 21 55 -3 0
BITMAP
0C0000
7FE000
FFFEF8
FFFFF8
FFFFF8
FFFFF8
C07FF8
000FE0
000000
000000
000000
000000
000000
000000
000000
000000
000000
00FF00
00FF00
00FF00
00FF00
00FF00
00FF00
00FF00
00FF00
00FF00
00FF00
00FF00
00FF00
00FF00
00FF00
00FF00
00FF00
00FF00
00FF00
00FF00
00FF00
00FF00
00FF00
00FF00
00FF00
00FF00
00FF00
00FF00
00FF00
00FF00
00FF00
00FF00
00FF00
00FF00
00FF00
00FF00
00FF00
00FF00
00FF00
ENDCHAR
STARTCHAR 012A
ENCODING 298
SWIDTH 191 0
DWIDTH 17 0
BBX 25 53 -4 0
BITMAP
FFFFFF80
FFFFFF80
FFFFFF80
FFFFFF80
FFFFFF80
FFFFFF80
FFFFFF80
00000000
00000000
00000000
00000000
00000000
00000000
00000000
00000000
007F8000
007F8000
007F8000
007F8000
007F8000
007F8000
007F8000
007F8000
007F8000
007F8000
007F8000
007F8000
007F8000
007F8000
007F8000
007F8000
007F8000
007F8000
007F8000
007F8000
007F8000
007F8000
007F8000
007F8000
007F8000
007F8000
007F8000
007F8000
007F8000
007F8000
007F8000
007F8000
007F8000
007F8000
007F8000
007F8000
007F8000
007F8000
ENDCHAR
STARTCHAR 012B
ENCODING 299
SWIDTH 191 0
DWIDTH 17 0
BBX 25 53 -4 0
BITMAP
FFFFFF80
FFFFFF80
FFFFFF80
FFFFFF80
FFFFFF80
FFFFFF80
FFFFFF80
00000000
00000000
00000000
00000000
00000000
00000000
00000000
00000000
007F8000
007F8000
007F8000
007F8000
007F8000
007F8000
007F8000
007F8000
007F8000
007F8000
007F8000
007F8000
007F8000
007F8000
007F8000
007F8000
007F8000
007F8000
007F8000
007F8000
007F8000
007F8000
007F8000
007F8000
007F8000
007F8000
007F8000
007F8000
007F8000
007F8000
007F8000
007F8000
007F8000
007F8000
007F8000
007F8000
007F8000
007F8000
ENDCHAR
STARTCHAR 012E
ENCODING 302
SWIDTH 180 0
DWIDTH 16 0
BBX 23 87 -3 -16
BITMAP
001000
001000
001000
003800
003800
003800
007C00
007C00
007C00
FFFFFE
3FFFF8
1FFFF0
07FFC0
03FF80
01FF00
03FF80
03FF80
03FF80
07C780
0783C0
0600C0
040040
000000
000000
000000
000000
000000
000000
000000
000000
000000
000000
000000
01FF00
01FF00
01FF00
01FF00
01FF00
01FF00
01FF00
01FF00
01FF00
01FF00
01FF00
01FF00
01FF00
01FF00
01FF00
01FF00
01FF00
01FF00
01FF00
01FF00
01FF00
01FF00
01FF00
01FF00
01FF00
01FF00
01FF00
01FF00
01FF00
01FF00
01FF00
01FF00
01FF00
01FF00
01FF00
01FF00
01FF00
01FF00
03F800
07E000
0FC000
1F8000
1F0000
3E0000
3E0000
3E0000
3E0000
3E0000
3E0180
3F07E0
1FFFE0
0FFFC0
07FF80
03FE00
ENDCHAR
STARTCHAR 012F
ENCODING 303
SWIDTH 180 0
DWIDTH 16 0
BBX 23 87 -3 -16
BITMAP
001000
001000
001000
003800
003800
003800
007C00
007C00
007C00
FFFFFE
3FFFF8
1FFFF0
07FFC0
03FF80
01FF00
03FF80
03FF80
03FF80
07C780
0783C0
0600C0
040040
000000
000000
000000
000000
000000
000000
000000
000000
000000
000000
000000
01FF00
01FF00
01FF00
01FF00
01FF00
01FF00
01FF00
01FF00
01FF00
01FF00
01FF00
01FF00
01FF00
01FF00
01FF00
01FF00
01FF00
01FF00
01FF00
01FF00
01FF00
01FF00
01FF00
01FF00
01FF00
01FF00
01FF00
01FF00
01FF00
01FF00
01FF00
01FF00
01FF00
01FF00
01FF00
01FF00
01FF00
01FF00
03F800
07E000
0FC000
1F8000
1F0000
3E0000
3E0000
3E0000
3E0000
3E0000
3E0180
3F07E0
1FFFE0
0FFFC0
07FF80
03FE00
ENDCHAR
STARTCHAR 0130
ENCODING 304
SWIDTH 191 0
DWIDTH 17 0
BBX 13 58 3 0
BITMAP
0200
1FC0
3FE0
7FF0
FFF0
FFF8
FFF8
FFF8
FFF8
FFF0
7FF0
3FE0
1FC0
0000
0000
0000
0000
0000
0000
0000
3FC0
3FC0
3FC0
3FC0
3FC0
3FC0
3FC0
3FC0
3FC0
3FC0
3FC0
3FC0
3FC0
3FC0
3FC0
3FC0
3FC0
3FC0
3FC0
3FC0
3FC0
3FC0
3FC0
3FC0
3FC0
3FC0
3FC0
3FC0
3FC0
3FC0
3FC0
3FC0
3FC0
3FC0
3FC0
3FC0
3FC0
3FC0
ENDCHAR
STARTCHAR 0139
ENCODING 313
SWIDTH 427 0
DWIDTH 38 0
BBX 32 79 5 0
BITMAP
03F80000
07F00000
07F00000
0FE00000
0FC00000
1F800000
1F800000
3F000000
7E000000
7C000000
FC000000
F8000000
00000000
00000000
00000000
00000000
00000000
FF000000
FF000000
FF000000
FF000000
FF000000
FF000000
FF000000
FF000000
FF000000
FF000000
FF000000
FF000000
FF000000
FF000000
FF000000
FF000000
FF000000
FF000000
FF000000
FF000000
FF000000
FF000000
FF000000
FF000000
FF000000
FF000000
FF000000
FF000000
FF000000
FF000000
FF000000
FF000000
FF000000
FF000000
FF000000
FF000000
FF000000
FF000000
FF000000
FF000000
FF000000
FF000000
FF000000
FF000000
FF000000
FF000000
FF000000
FF000000
FF000000
FF000000
FF000000
FF000000
FF000000
FF000000
FFFFFFFF
FFFFFFFF
FFFFFFFF
FFFFFFFF
FFFFFFFF
FFFFFFFF
FFFFFFFF
FFFFFFFF
ENDCHAR
STARTCHAR 013A
ENCODING 314
SWIDTH 427 0
DWIDTH 38 0
BBX 32 79 5 0
BITMAP
03F80000
07F00000
07F00000
0FE00000
0FC00000
1F800000
1F800000
3F000000
7E000000
7C000000
FC000000
F8000000
00000000
00000000
00000000
00000000
00000000
FF000000
FF000000
FF000000
FF000000
FF000000
FF000000
FF000000
FF000000
FF000000
FF000000
FF000000
FF000000
FF000000
FF000000
FF000000
FF000000
FF000000
FF000000
FF000000
FF000000
FF000000
FF000000
FF000000
FF000000
FF000000
FF000000
FF000000
FF000000
FF000000
FF000000
FF000000
FF000000
FF000000
FF000000
FF000000
FF000000
FF000000
FF000000
FF000000
FF000000
FF000000
FF000000
FF000000
FF000000
FF000000
FF000000
FF000000
FF000000
FF000000
FF000000
FF000000
FF000000
FF000000
FF000000
FFFFFFFF
FFFFFFFF
FFFFFFFF
FFFFFFFF
FFFFFFFF
FFFFFFFF
FFFFFFFF
FFFFFFFF
ENDCHAR
STARTCHAR 013D
ENCODING 317
SWIDTH 427 0
DWIDTH 38 0
BBX 41 80 -4 0
BITMAP
FE001FC00000
7F003F800000
3F807F000000
3FC0FF000000
1FE0FE000000
0FE1FC000000
07F3F8000000
07FFF0000000
03FFF0000000
01FFE0000000
00FFC0000000
000000000000
000000000000
000000000000
000000000000
000000000000
000000000000
000000000000
007F80000000
007F80000000
007F80000000
007F80000000
007F80000000
007F80000000
007F80000000
007F80000000
007F80000000
007F80000000
007F80000000
007F80000000
007F80000000
007F80000000
007F80000000
007F80000000
007F80000000
007F80000000
007F80000000
007F80000000
007F80000000
007F80000000
007F80000000
007F80000000
007F80000000
007F80000000
007F80000000
007F80000000
007F80000000
007F80000000
007F80000000
007F80000000
007F80000000
007F80000000
007F80000000
007F80000000
007F80000000
007F80000000
007F80000000
007F80000000
007F80000000
007F80000000
007F80000000
007F80000000
007F80000000
007F80000000
007F80000000
007F80000000
007F80000000
007F80000000
007F80000000
007F80000000
007F80000000
007F80000000
007FFFFFFF80
007FFFFFFF80
007FFFFFFF80
007FFFFFFF80
007FFFFFFF80
007FFFFFFF80
007FFFFFFF80
007FFFFFFF80
ENDCHAR
STARTCHAR 013E
ENCODING 318
SWIDTH 427 0
DWIDTH 38 0
BBX 41 80 -4 0
BITMAP
FE001FC00000
7F003F800000
3F807F000000
3FC0FF000000
1FE0FE000000
0FE1FC000000
07F3F8000000
07FFF0000000
03FFF0000000
01FFE0000000
00FFC0000000
000000000000
000000000000
000000000000
000000000000
000000000000
000000000000
000000000000
007F80000000
007F80000000
007F80000000
007F80000000
007F80000000
007F80000000
007F80000000
007F80000000
007F80000000
007F80000000
007F80000000
007F80000000
007F80000000
007F80000000
007F80000000
007F80000000
007F80000000
007F80000000
007F80000000
007F80000000
007F80000000
007F80000000
007F80000000
007F80000000
007F80000000
007F80000000
007F80000000
007F80000000
007F80000000
007F80000000
007F80000000
007F80000000
007F80000000
007F80000000
007F80000000
007F80000000
007F80000000
007F80000000
007F80000000
007F80000000
007F80000000
007F80000000
007F80000000
007F80000000
007F80000000
007F80000000
007F80000000
007F80000000
007F80000000
007F80000000
007F80000000
007F80000000
007F80000000
007F80000000
007FFFFFFF80
007FFFFFFF80
007FFFFFFF80
007FFFFFFF80
007FFFFFFF80
007FFFFFFF80
007FFFFFFF80
007FFFFFFF80
ENDCHAR
STARTCHAR 0141
ENCODING 321
SWIDTH 483 0
DWIDTH 43 0
BBX 40 62 1 0
BITMAP
00FF800000
00FF800000
00FF800000
00FF800000
00FF800000
00FF800000
00FF800000
00FF800000
00FF800000
00FF800000
00FF800000
00FF800000
00FF800000
00FF800000
00FF800000
00FF800000
00FF800000
00FF800000
00FF800000
00FF800000
00FF800000
00FF80E000
00FF83E000
00FF87F000
00FF9FF000
00FFFFF000
00FFFFE000
00FFFF8000
00FFFE0000
00FFF80000
01FFE00000
03FF800000
0FFF800000
3FFF800000
FFFF800000
FFFF800000
7FFF800000
7CFF800000
30FF800000
00FF800000
00FF800000
00FF800000
00FF800000
00FF800000
00FF800000
00FF800000
00FF800000
00FF800000
00FF800000
00FF800000
00FF800000
00FF800000
00FF800000
00FF800000
00FFFFFFFF
00FFFFFFFF
00FFFFFFFF
00FFFFFFFF
00FFFFFFFF
00FFFFFFFF
00FFFFFFFF
00FFFFFFFF
ENDCHAR
STARTCHAR 0142
ENCODING 322
SWIDTH 483 0
DWIDTH 43 0
BBX 40 62 1 0
BITMAP
00FF800000
00FF800000
00FF800000
00FF800000
00FF800000
00FF800000
00FF800000
00FF800000
00FF800000
00FF800000
00FF800000
00FF800000
00FF800000
00FF800000
00FF800000
00FF800000
00FF800000
00FF800000
00FF800000
00FF800000
00FF800000
00FF80E000
00FF83E000
00FF87F000
00FF9FF000
00FFFFF000
00FFFFE000
00FFFF8000
00FFFE0000
00FFF80000
01FFE00000
03FF800000
0FFF800000
3FFF800000
FFFF800000
FFFF800000
7FFF800000
7CFF800000
30FF800000
00FF800000
00FF800000
00FF800000
00FF800000
00FF800000
00FF800000
00FF800000
00FF800000
00FF800000
00FF800000
00FF800000
00FF800000
00FF800000
00FF800000
00FF800000
00FFFFFFFF
00FFFFFFFF
00FFFFFFFF
00FFFFFFFF
00FFFFFFFF
00FFFFFFFF
00FFFFFFFF
00FFFFFFFF
ENDCHAR
STARTCHAR 0143
ENCODING 323
SWIDTH 517 0
DWIDTH 46 0
BBX 41 79 1 0
BITMAP
000000FE0000
000000FE0000
000001FC0000
000001F80000
000003F00000
000007F00000
000007E00000
00000FC00000
00000F800000
00001F800000
00001F000000
00003E000000
000000000000
000000000000
000000000000
040000000000
0E0000000000
1F0000007F80
1FC000007F80
3FE000007F80
7FF000007F80
FFFC00007F80
7FFE00007F80
1FFF00007F80
0FFF80007F80
0FFFE0007F80
0FFFF0007F80
0FFFF8007F80
0FFFFE007F80
0FFFFF007F80
0FFFFF807F80
0FF7FFC07F80
0FF3FFF07F80
0FF0FFF87F80
0FF07FFC7F80
0FF03FFF7F80
0FF00FFFFF80
0FF007FFFF80
0FF003FFFF80
0FF001FFFF80
0FF0007FFF80
0FF0003FFF80
0FF0001FFF80
0FF0000FFF80
0FF00003FF80
0FF00001FF80
0FF00000FF80
0FF000007F80
0FF000007F80
0FF000007F80
0FF000007F80
0FF000007F80
0FF000007F80
0FF000007F80
0FF000007F80
0FF000007F80
0FF000007F80
0FF000007F80
0FF000007F80
0FF000007F80
0FF000007F80
0FF000007F80
0FF000007F80
0FF000007F80
0FF000007F80
0FF000007F80
0FF000007F80
0FF000007F80
0FF000007F80
0FF000007F80
0FF000007F80
0FF000007F80
0FF000007F80
0FF000007F80
0FF000007F80
0FF000007F80
0FF000007F80
0FF000007F80
0FF000007F80
ENDCHAR
STARTCHAR 0144
ENCODING 324
SWIDTH 517 0
DWIDTH 46 0
BBX 41 79 1 0
BITMAP
000000FE0000
000000FE0000
000001FC0000
000001F80000
000003F00000
000007F00000
000007E00000
00000FC00000
00000F800000
00001F800000
00001F000000
00003E000000
000000000000
000000000000
000000000000
040000000000
0E0000000000
1F0000007F80
1FC000007F80
3FE000007F80
7FF000007F80
FFFC00007F80
7FFE00007F80
1FFF00007F80
0FFF80007F80
0FFFE0007F80
0FFFF0007F80
0FFFF8007F80
0FFFFE007F80
0FFFFF007F80
0FFFFF807F80
0FF7FFC07F80
0FF3FFF07F80
0FF0FFF87F80
0FF07FFC7F80
0FF03FFF7F80
0FF00FFFFF80
0FF007FFFF80
0FF003FFFF80
0FF001FFFF80
0FF0007FFF80
0FF0003FFF80
0FF0001FFF80
0FF0000FFF80
0FF00003FF80
0FF00001FF80
0FF00000FF80
0FF000007F80
0FF000007F80
0FF000007F80
0FF000007F80
0FF000007F80
0FF000007F80
0FF000007F80
0FF000007F80
0FF000007F80
0FF000007F80
0FF000007F80
0FF000007F80
0FF000007F80
0FF000007F80
0FF000007F80
0FF000007F80
0FF000007F80
0FF000007F80
0FF000007F80
0FF000007F80
0FF000007F80
0FF000007F80
0FF000007F80
0FF000007F80
0FF000007F80
0FF000007F80
0FF000007F80
0FF000007F80
0FF000007F80
0FF000007F80
0FF000007F80
0FF000007F80
ENDCHAR
STARTCHAR 0147
ENCODING 327
SWIDTH 517 0
DWIDTH 46 0
BBX 41 80 1 0
BITMAP
007F000FE000
003F801FC000
001FC01FC000
000FE03F8000
000FF07F0000
0007F8FE0000
0003FDFE0000
0001FFFC0000
0000FFF80000
0000FFF00000
00007FF00000
000000000000
000000000000
000000000000
000000000000
000000000000
040000000000
0E0000000000
1F0000007F80
1FC000007F80
3FE000007F80
7FF000007F80
FFFC00007F80
7FFE00007F80
1FFF00007F80
0FFF80007F80
0FFFE0007F80
0FFFF0007F80
0FFFF8007F80
0FFFFE007F80
0FFFFF007F80
0FFFFF807F80
0FF7FFC07F80
0FF3FFF07F80
0FF0FFF87F80
0FF07FFC7F80
0FF03FFF7F80
0FF00FFFFF80
0FF007FFFF80
0FF003FFFF80
0FF001FFFF80
0FF0007FFF80
0FF0003FFF80
0FF0001FFF80
0FF0000FFF80
0FF00003FF80
0FF00001FF80
0FF00000FF80
0FF000007F80
0FF000007F80
0FF000007F80
0FF000007F80
0FF000007F80
0FF000007F80
0FF000007F80
0FF000007F80
0FF000007F80
0FF000007F80
0FF000007F80
0FF000007F80
0FF000007F80
0FF000007F80
0FF000007F80
0FF000007F80
0FF000007F80
0FF000007F80
0FF000007F80
0FF000007F80
0FF000007F80
0FF000007F80
0FF000007F80
0FF000007F80
0FF000007F80
0FF000007F80
0FF000007F80
0FF000007F80
0FF000007F80
0FF000007F80
0FF000007F80
0FF000007F80
ENDCHAR
STARTCHAR 0148
ENCODING 328
SWIDTH 517 0
DWIDTH 46 0
BBX 41 80 1 0
BITMAP
007F000FE000
003F801FC000
001FC01FC000
000FE03F8000
000FF07F0000
0007F8FE0000
0003FDFE0000
0001FFFC0000
0000FFF80000
0000FFF00000
00007FF00000
000000000000
000000000000
000000000000
000000000000
000000000000
040000000000
0E0000000000
1F0000007F80
1FC000007F80
3FE000007F80
7FF000007F80
FFFC00007F80
7FFE00007F80
1FFF00007F80
0FFF80007F80
0FFFE0007F80
0FFFF0007F80
0FFFF8007F80
0FFFFE007F80
0FFFFF007F80
0FFFFF807F80
0FF7FFC07F80
0FF3FFF07F80
0FF0FFF87F80
0FF07FFC7F80
0FF03FFF7F80
0FF00FFFFF80
0FF007FFFF80
0FF003FFFF80
0FF001FFFF80
0FF0007FFF80
0FF0003FFF80
0FF0001FFF80
0FF0000FFF80
0FF00003FF80
0FF00001FF80
0FF00000FF80
0FF000007F80
0FF000007F80
0FF000007F80
0FF000007F80
0FF000007F80
0FF000007F80
0FF000007F80
0FF000007F80
0FF000007F80
0FF000007F80
0FF000007F80
0FF000007F80
0FF000007F80
0FF000007F80
0FF000007F80
0FF000007F80
0FF000007F80
0FF000007F80
0FF000007F80
0FF000007F80
0FF000007F80
0FF000007F80
0FF000007F80
0FF000007F80
0FF000007F80
0FF000007F80
0FF000007F80
0FF000007F80
0FF000007F80
0FF000007F80
0FF000007F80
0FF000007F80
ENDCHAR
STARTCHAR 014C
ENCODING 332
SWIDTH 810 0
DWIDTH 72 0
BBX 67 78 3 -1
BITMAP
000007FFFFFC000000
000007FFFFFC000000
000007FFFFFC000000
000007FFFFFC000000
000007FFFFFC000000
000007FFFFFC000000
000007FFFFFC000000
000000000000000000
000000000000000000
000000000000000000
000000000000000000
000000000000000000
000000000000000000
00000000E000000000
000000FFFFC0000000
000007FFFFF8000000
00001FFFFFFF000000
00007FFFFFFFC00000
0001FFFFFFFFE00000
0007FFFFFFFFF80000
000FFFFFFFFFFC0000
001FFFFE0FFFFF0000
003FFF80007FFF8000
007FFE00000FFFC000
00FFF8000003FFE000
01FFE0000000FFF000
03FFC00000007FF000
07FF000000003FF800
07FE000000001FFC00
0FFC000000000FFC00
0FFC0000000007FE00
1FF80000000003FE00
1FF00000000003FF00
3FF00000000001FF00
3FE00000000000FF80
3FE00000000000FF80
7FC00000000000FF80
7FC000000000007FC0
7F8000000000007FC0
7F8000000000007FC0
FF8000000000003FC0
FF8000000000003FC0
FF8000000000003FC0
FF0000000000003FE0
FF0000000000003FE0
FF0000000000003FE0
FF0000000000003FE0
FF0000000000003FE0
FF0000000000003FC0
FF8000000000003FC0
FF8000000000003FC0
FF8000000000003FC0
7F8000000000007FC0
7F8000000000007FC0
7FC000000000007F80
7FC00000000000FF80
3FE00000000000FF80
3FE00000000001FF80
3FF00000000001FF00
1FF00000000003FF00
1FF80000000003FE00
0FFC0000000007FE00
0FFE000000000FFC00
07FF000000001FF800
03FF800000003FF800
03FFC00000007FF000
01FFE0000001FFE000
00FFF8000007FFC000
007FFE00001FFFC000
003FFFC0007FFF8000
001FFFFFFFFFFE0000
000FFFFFFFFFFC0000
0003FFFFFFFFF80000
0001FFFFFFFFE00000
00007FFFFFFF800000
00001FFFFFFE000000
000003FFFFF8000000
0000003FFF80000000
ENDCHAR
ENDFONT
